G04*
G04 #@! TF.GenerationSoftware,Altium Limited,Altium Designer,25.8.1 (18)*
G04*
G04 Layer_Physical_Order=2*
G04 Layer_Color=36540*
%FSLAX26Y26*%
%MOIN*%
G70*
G04*
G04 #@! TF.SameCoordinates,277DE813-E379-449B-8D7A-86A471DF349A*
G04*
G04*
G04 #@! TF.FilePolarity,Positive*
G04*
G01*
G75*
%ADD111C,0.023622*%
%ADD112C,0.259842*%
%ADD117C,0.062992*%
%ADD118C,0.044488*%
%ADD121O,0.118110X0.068898*%
G36*
X276565Y1953277D02*
X292493Y1948446D01*
X307173Y1940599D01*
X320040Y1930040D01*
X330599Y1917173D01*
X338446Y1902493D01*
X343277Y1886565D01*
X344842Y1870682D01*
X344706Y1870000D01*
Y30000D01*
X344842Y29318D01*
X343277Y13435D01*
X338446Y-2493D01*
X330599Y-17173D01*
X320040Y-30040D01*
X307173Y-40599D01*
X292493Y-48446D01*
X276565Y-53277D01*
X260682Y-54842D01*
X260000Y-54706D01*
X-3482677D01*
X-3483359Y-54842D01*
X-3499242Y-53277D01*
X-3515170Y-48446D01*
X-3529850Y-40599D01*
X-3542717Y-30040D01*
X-3553276Y-17173D01*
X-3561123Y-2493D01*
X-3565955Y13435D01*
X-3567518Y29305D01*
X-3567383Y29975D01*
X-3565767Y1035313D01*
X-3565957Y1036274D01*
X-3564134Y1054777D01*
X-3558464Y1073469D01*
X-3549256Y1090696D01*
X-3536864Y1105795D01*
X-3521765Y1118187D01*
X-3504538Y1127395D01*
X-3485846Y1133065D01*
X-3469185Y1134706D01*
X-3380000D01*
X-3374147Y1135870D01*
X-3369186Y1139186D01*
X-3365870Y1144147D01*
X-3364706Y1150000D01*
Y1250000D01*
X-3365870Y1255853D01*
X-3369186Y1260814D01*
X-3374147Y1264130D01*
X-3380000Y1265294D01*
X-3416318D01*
X-3420000Y1265294D01*
X-3421260Y1265294D01*
X-3426060Y1265667D01*
X-3433657Y1266415D01*
X-3445578Y1270031D01*
X-3456564Y1275903D01*
X-3466194Y1283806D01*
X-3474097Y1293436D01*
X-3479969Y1304422D01*
X-3483585Y1316343D01*
X-3484773Y1328404D01*
X-3484706Y1328740D01*
Y1871260D01*
X-3484773Y1871596D01*
X-3483585Y1883657D01*
X-3479969Y1895578D01*
X-3474097Y1906564D01*
X-3466194Y1916194D01*
X-3456564Y1924097D01*
X-3445578Y1929969D01*
X-3433657Y1933585D01*
X-3421596Y1934773D01*
X-3421260Y1934706D01*
X-2878740D01*
X-2878404Y1934773D01*
X-2866343Y1933585D01*
X-2854422Y1929969D01*
X-2843436Y1924097D01*
X-2833806Y1916194D01*
X-2825903Y1906564D01*
X-2820031Y1895578D01*
X-2816415Y1883657D01*
X-2815667Y1876060D01*
X-2815294Y1871260D01*
X-2815294Y1870000D01*
X-2815294Y1866318D01*
Y1840000D01*
X-2814130Y1834147D01*
X-2810814Y1829186D01*
X-2805853Y1825870D01*
X-2800000Y1824706D01*
X-2640000D01*
X-2634147Y1825870D01*
X-2629186Y1829186D01*
X-2625870Y1834147D01*
X-2624706Y1840000D01*
Y1870000D01*
X-2624842Y1870682D01*
X-2623277Y1886565D01*
X-2618446Y1902493D01*
X-2610599Y1917173D01*
X-2600040Y1930040D01*
X-2587173Y1940599D01*
X-2572493Y1948446D01*
X-2556565Y1953277D01*
X-2540683Y1954842D01*
X-2540000Y1954706D01*
X260000Y1954706D01*
X260682Y1954842D01*
X276565Y1953277D01*
D02*
G37*
%LPC*%
G36*
X5463Y1941496D02*
X-5463D01*
X-16017Y1938668D01*
X-25479Y1933205D01*
X-33205Y1925479D01*
X-38668Y1916017D01*
X-41496Y1905463D01*
Y1894537D01*
X-38668Y1883983D01*
X-33205Y1874521D01*
X-25479Y1866795D01*
X-16017Y1861332D01*
X-5463Y1858504D01*
X5463D01*
X16017Y1861332D01*
X25479Y1866795D01*
X33205Y1874521D01*
X38668Y1883983D01*
X41496Y1894537D01*
Y1905463D01*
X38668Y1916017D01*
X33205Y1925479D01*
X25479Y1933205D01*
X16017Y1938668D01*
X5463Y1941496D01*
D02*
G37*
G36*
X-94537D02*
X-105463D01*
X-116017Y1938668D01*
X-125479Y1933205D01*
X-133205Y1925479D01*
X-138668Y1916017D01*
X-141496Y1905463D01*
Y1894537D01*
X-138668Y1883983D01*
X-133205Y1874521D01*
X-125479Y1866795D01*
X-116017Y1861332D01*
X-105463Y1858504D01*
X-94537D01*
X-83983Y1861332D01*
X-74521Y1866795D01*
X-66795Y1874521D01*
X-61332Y1883983D01*
X-58504Y1894537D01*
Y1905463D01*
X-61332Y1916017D01*
X-66795Y1925479D01*
X-74521Y1933205D01*
X-83983Y1938668D01*
X-94537Y1941496D01*
D02*
G37*
G36*
X-194537D02*
X-205463D01*
X-216017Y1938668D01*
X-225479Y1933205D01*
X-233205Y1925479D01*
X-238668Y1916017D01*
X-241496Y1905463D01*
Y1894537D01*
X-238668Y1883983D01*
X-233205Y1874521D01*
X-225479Y1866795D01*
X-216017Y1861332D01*
X-205463Y1858504D01*
X-194537D01*
X-183983Y1861332D01*
X-174521Y1866795D01*
X-166795Y1874521D01*
X-161332Y1883983D01*
X-158504Y1894537D01*
Y1905463D01*
X-161332Y1916017D01*
X-166795Y1925479D01*
X-174521Y1933205D01*
X-183983Y1938668D01*
X-194537Y1941496D01*
D02*
G37*
G36*
X-294537D02*
X-305463D01*
X-316017Y1938668D01*
X-325479Y1933205D01*
X-333205Y1925479D01*
X-338668Y1916017D01*
X-341496Y1905463D01*
Y1894537D01*
X-338668Y1883983D01*
X-333205Y1874521D01*
X-325479Y1866795D01*
X-316017Y1861332D01*
X-305463Y1858504D01*
X-294537D01*
X-283983Y1861332D01*
X-274521Y1866795D01*
X-266795Y1874521D01*
X-261332Y1883983D01*
X-258504Y1894537D01*
Y1905463D01*
X-261332Y1916017D01*
X-266795Y1925479D01*
X-274521Y1933205D01*
X-283983Y1938668D01*
X-294537Y1941496D01*
D02*
G37*
G36*
X-394537D02*
X-405463D01*
X-416017Y1938668D01*
X-425479Y1933205D01*
X-433205Y1925479D01*
X-438668Y1916017D01*
X-441496Y1905463D01*
Y1894537D01*
X-438668Y1883983D01*
X-433205Y1874521D01*
X-425479Y1866795D01*
X-416017Y1861332D01*
X-405463Y1858504D01*
X-394537D01*
X-383983Y1861332D01*
X-374521Y1866795D01*
X-366795Y1874521D01*
X-361332Y1883983D01*
X-358504Y1894537D01*
Y1905463D01*
X-361332Y1916017D01*
X-366795Y1925479D01*
X-374521Y1933205D01*
X-383983Y1938668D01*
X-394537Y1941496D01*
D02*
G37*
G36*
X-494537D02*
X-505463D01*
X-516017Y1938668D01*
X-525479Y1933205D01*
X-533205Y1925479D01*
X-538668Y1916017D01*
X-541496Y1905463D01*
Y1894537D01*
X-538668Y1883983D01*
X-533205Y1874521D01*
X-525479Y1866795D01*
X-516017Y1861332D01*
X-505463Y1858504D01*
X-494537D01*
X-483983Y1861332D01*
X-474521Y1866795D01*
X-466795Y1874521D01*
X-461332Y1883983D01*
X-458504Y1894537D01*
Y1905463D01*
X-461332Y1916017D01*
X-466795Y1925479D01*
X-474521Y1933205D01*
X-483983Y1938668D01*
X-494537Y1941496D01*
D02*
G37*
G36*
X-594537D02*
X-605463D01*
X-616017Y1938668D01*
X-625479Y1933205D01*
X-633205Y1925479D01*
X-638668Y1916017D01*
X-641496Y1905463D01*
Y1894537D01*
X-638668Y1883983D01*
X-633205Y1874521D01*
X-625479Y1866795D01*
X-616017Y1861332D01*
X-605463Y1858504D01*
X-594537D01*
X-583983Y1861332D01*
X-574521Y1866795D01*
X-566795Y1874521D01*
X-561332Y1883983D01*
X-558504Y1894537D01*
Y1905463D01*
X-561332Y1916017D01*
X-566795Y1925479D01*
X-574521Y1933205D01*
X-583983Y1938668D01*
X-594537Y1941496D01*
D02*
G37*
G36*
X-694537D02*
X-705463D01*
X-716017Y1938668D01*
X-725479Y1933205D01*
X-733205Y1925479D01*
X-738668Y1916017D01*
X-741496Y1905463D01*
Y1894537D01*
X-738668Y1883983D01*
X-733205Y1874521D01*
X-725479Y1866795D01*
X-716017Y1861332D01*
X-705463Y1858504D01*
X-694537D01*
X-683983Y1861332D01*
X-674521Y1866795D01*
X-666795Y1874521D01*
X-661332Y1883983D01*
X-658504Y1894537D01*
Y1905463D01*
X-661332Y1916017D01*
X-666795Y1925479D01*
X-674521Y1933205D01*
X-683983Y1938668D01*
X-694537Y1941496D01*
D02*
G37*
G36*
X-854537D02*
X-865463D01*
X-876017Y1938668D01*
X-885479Y1933205D01*
X-893205Y1925479D01*
X-898668Y1916017D01*
X-901496Y1905463D01*
Y1894537D01*
X-898668Y1883983D01*
X-893205Y1874521D01*
X-885479Y1866795D01*
X-876017Y1861332D01*
X-865463Y1858504D01*
X-854537D01*
X-843983Y1861332D01*
X-834521Y1866795D01*
X-826795Y1874521D01*
X-821332Y1883983D01*
X-818504Y1894537D01*
Y1905463D01*
X-821332Y1916017D01*
X-826795Y1925479D01*
X-834521Y1933205D01*
X-843983Y1938668D01*
X-854537Y1941496D01*
D02*
G37*
G36*
X-954537D02*
X-965463D01*
X-976017Y1938668D01*
X-985479Y1933205D01*
X-993205Y1925479D01*
X-998668Y1916017D01*
X-1001496Y1905463D01*
Y1894537D01*
X-998668Y1883983D01*
X-993205Y1874521D01*
X-985479Y1866795D01*
X-976017Y1861332D01*
X-965463Y1858504D01*
X-954537D01*
X-943983Y1861332D01*
X-934521Y1866795D01*
X-926795Y1874521D01*
X-921332Y1883983D01*
X-918504Y1894537D01*
Y1905463D01*
X-921332Y1916017D01*
X-926795Y1925479D01*
X-934521Y1933205D01*
X-943983Y1938668D01*
X-954537Y1941496D01*
D02*
G37*
G36*
X-1054537D02*
X-1065463D01*
X-1076017Y1938668D01*
X-1085479Y1933205D01*
X-1093205Y1925479D01*
X-1098668Y1916017D01*
X-1101496Y1905463D01*
Y1894537D01*
X-1098668Y1883983D01*
X-1093205Y1874521D01*
X-1085479Y1866795D01*
X-1076017Y1861332D01*
X-1065463Y1858504D01*
X-1054537D01*
X-1043983Y1861332D01*
X-1034521Y1866795D01*
X-1026795Y1874521D01*
X-1021332Y1883983D01*
X-1018504Y1894537D01*
Y1905463D01*
X-1021332Y1916017D01*
X-1026795Y1925479D01*
X-1034521Y1933205D01*
X-1043983Y1938668D01*
X-1054537Y1941496D01*
D02*
G37*
G36*
X-1154537D02*
X-1165463D01*
X-1176017Y1938668D01*
X-1185479Y1933205D01*
X-1193205Y1925479D01*
X-1198668Y1916017D01*
X-1201496Y1905463D01*
Y1894537D01*
X-1198668Y1883983D01*
X-1193205Y1874521D01*
X-1185479Y1866795D01*
X-1176017Y1861332D01*
X-1165463Y1858504D01*
X-1154537D01*
X-1143983Y1861332D01*
X-1134521Y1866795D01*
X-1126795Y1874521D01*
X-1121332Y1883983D01*
X-1118504Y1894537D01*
Y1905463D01*
X-1121332Y1916017D01*
X-1126795Y1925479D01*
X-1134521Y1933205D01*
X-1143983Y1938668D01*
X-1154537Y1941496D01*
D02*
G37*
G36*
X-1254537D02*
X-1265463D01*
X-1276017Y1938668D01*
X-1285479Y1933205D01*
X-1293205Y1925479D01*
X-1298668Y1916017D01*
X-1301496Y1905463D01*
Y1894537D01*
X-1298668Y1883983D01*
X-1293205Y1874521D01*
X-1285479Y1866795D01*
X-1276017Y1861332D01*
X-1265463Y1858504D01*
X-1254537D01*
X-1243983Y1861332D01*
X-1234521Y1866795D01*
X-1226795Y1874521D01*
X-1221332Y1883983D01*
X-1218504Y1894537D01*
Y1905463D01*
X-1221332Y1916017D01*
X-1226795Y1925479D01*
X-1234521Y1933205D01*
X-1243983Y1938668D01*
X-1254537Y1941496D01*
D02*
G37*
G36*
X-1354537D02*
X-1365463D01*
X-1376017Y1938668D01*
X-1385479Y1933205D01*
X-1393205Y1925479D01*
X-1398668Y1916017D01*
X-1401496Y1905463D01*
Y1894537D01*
X-1398668Y1883983D01*
X-1393205Y1874521D01*
X-1385479Y1866795D01*
X-1376017Y1861332D01*
X-1365463Y1858504D01*
X-1354537D01*
X-1343983Y1861332D01*
X-1334521Y1866795D01*
X-1326795Y1874521D01*
X-1321332Y1883983D01*
X-1318504Y1894537D01*
Y1905463D01*
X-1321332Y1916017D01*
X-1326795Y1925479D01*
X-1334521Y1933205D01*
X-1343983Y1938668D01*
X-1354537Y1941496D01*
D02*
G37*
G36*
X-1554537D02*
X-1565463D01*
X-1576017Y1938668D01*
X-1585479Y1933205D01*
X-1593205Y1925479D01*
X-1598668Y1916017D01*
X-1601496Y1905463D01*
Y1894537D01*
X-1598668Y1883983D01*
X-1593205Y1874521D01*
X-1585479Y1866795D01*
X-1576017Y1861332D01*
X-1565463Y1858504D01*
X-1554537D01*
X-1543983Y1861332D01*
X-1534521Y1866795D01*
X-1526795Y1874521D01*
X-1521332Y1883983D01*
X-1518504Y1894537D01*
Y1905463D01*
X-1521332Y1916017D01*
X-1526795Y1925479D01*
X-1534521Y1933205D01*
X-1543983Y1938668D01*
X-1554537Y1941496D01*
D02*
G37*
G36*
X-1635661Y1901811D02*
X-1644339D01*
X-1652355Y1898491D01*
X-1658491Y1892355D01*
X-1661811Y1884339D01*
Y1875661D01*
X-1658491Y1867645D01*
X-1652355Y1861509D01*
X-1644339Y1858189D01*
X-1635661D01*
X-1627645Y1861509D01*
X-1621509Y1867645D01*
X-1618189Y1875661D01*
Y1884339D01*
X-1621509Y1892355D01*
X-1627645Y1898491D01*
X-1635661Y1901811D01*
D02*
G37*
G36*
X174606Y1893257D02*
X125394D01*
X113790Y1891730D01*
X102978Y1887251D01*
X93692Y1880126D01*
X86568Y1870841D01*
X82089Y1860029D01*
X80561Y1848425D01*
X82089Y1836822D01*
X86568Y1826009D01*
X93692Y1816724D01*
X102978Y1809599D01*
X113790Y1805120D01*
X125394Y1803593D01*
X174606D01*
X186210Y1805120D01*
X197022Y1809599D01*
X206308Y1816724D01*
X213432Y1826009D01*
X217911Y1836822D01*
X219439Y1848425D01*
X217911Y1860029D01*
X213432Y1870841D01*
X206308Y1880126D01*
X197022Y1887251D01*
X186210Y1891730D01*
X174606Y1893257D01*
D02*
G37*
G36*
Y1794832D02*
X125394D01*
X113790Y1793305D01*
X102978Y1788826D01*
X93692Y1781701D01*
X86568Y1772416D01*
X82089Y1761603D01*
X80561Y1750000D01*
X82089Y1738397D01*
X86568Y1727584D01*
X93692Y1718299D01*
X102978Y1711174D01*
X113790Y1706695D01*
X125394Y1705168D01*
X174606D01*
X186210Y1706695D01*
X197022Y1711174D01*
X206308Y1718299D01*
X213432Y1727584D01*
X217911Y1738397D01*
X219439Y1750000D01*
X217911Y1761603D01*
X213432Y1772416D01*
X206308Y1781701D01*
X197022Y1788826D01*
X186210Y1793305D01*
X174606Y1794832D01*
D02*
G37*
G36*
X-195661Y1671811D02*
X-204339D01*
X-212355Y1668491D01*
X-218490Y1662355D01*
X-221811Y1654339D01*
Y1645661D01*
X-218490Y1637645D01*
X-212355Y1631509D01*
X-204339Y1628189D01*
X-195661D01*
X-187645Y1631509D01*
X-181510Y1637645D01*
X-178189Y1645661D01*
Y1654339D01*
X-181510Y1662355D01*
X-187645Y1668491D01*
X-195661Y1671811D01*
D02*
G37*
G36*
X-3106385Y1632244D02*
X-3114875D01*
X-3123076Y1630047D01*
X-3130428Y1625802D01*
X-3136432Y1619798D01*
X-3140677Y1612446D01*
X-3142874Y1604245D01*
Y1595755D01*
X-3140677Y1587554D01*
X-3136432Y1580202D01*
X-3130428Y1574198D01*
X-3123076Y1569953D01*
X-3114875Y1567756D01*
X-3106385D01*
X-3098184Y1569953D01*
X-3090832Y1574198D01*
X-3084828Y1580202D01*
X-3080583Y1587554D01*
X-3078386Y1595755D01*
Y1604245D01*
X-3080583Y1612446D01*
X-3084828Y1619798D01*
X-3090832Y1625802D01*
X-3098184Y1630047D01*
X-3106385Y1632244D01*
D02*
G37*
G36*
X-3185125D02*
X-3193615D01*
X-3201816Y1630047D01*
X-3209168Y1625802D01*
X-3215172Y1619798D01*
X-3219417Y1612446D01*
X-3221614Y1604245D01*
Y1595755D01*
X-3219417Y1587554D01*
X-3215172Y1580202D01*
X-3209168Y1574198D01*
X-3201816Y1569953D01*
X-3193615Y1567756D01*
X-3185125D01*
X-3176924Y1569953D01*
X-3169572Y1574198D01*
X-3163568Y1580202D01*
X-3159323Y1587554D01*
X-3157126Y1595755D01*
Y1604245D01*
X-3159323Y1612446D01*
X-3163568Y1619798D01*
X-3169572Y1625802D01*
X-3176924Y1630047D01*
X-3185125Y1632244D01*
D02*
G37*
G36*
X-1944537Y1641496D02*
X-1955463D01*
X-1966017Y1638668D01*
X-1975479Y1633205D01*
X-1983205Y1625479D01*
X-1988668Y1616017D01*
X-1991496Y1605463D01*
Y1594537D01*
X-1988668Y1583983D01*
X-1983205Y1574521D01*
X-1975479Y1566795D01*
X-1966017Y1561332D01*
X-1955463Y1558504D01*
X-1944537D01*
X-1933983Y1561332D01*
X-1924521Y1566795D01*
X-1916795Y1574521D01*
X-1911332Y1583983D01*
X-1908504Y1594537D01*
Y1605463D01*
X-1911332Y1616017D01*
X-1916795Y1625479D01*
X-1924521Y1633205D01*
X-1933983Y1638668D01*
X-1944537Y1641496D01*
D02*
G37*
G36*
X-2898819Y1611379D02*
X-3001181D01*
X-3005083Y1610603D01*
X-3008391Y1608393D01*
X-3010601Y1605085D01*
X-3011377Y1601183D01*
Y1498821D01*
X-3010601Y1494919D01*
X-3010601Y1494919D01*
X-3010600Y1494917D01*
X-3008390Y1491609D01*
X-3005082Y1489399D01*
X-3001180Y1488623D01*
X-2898818D01*
X-2894916Y1489399D01*
X-2891609Y1491609D01*
X-2889398Y1494917D01*
X-2888622Y1498819D01*
Y1601181D01*
X-2889398Y1605082D01*
X-2889399Y1605083D01*
X-2889399Y1605085D01*
X-2891609Y1608393D01*
X-2894917Y1610603D01*
X-2898819Y1611379D01*
D02*
G37*
G36*
X-325661Y1531811D02*
X-334339D01*
X-342355Y1528491D01*
X-348490Y1522355D01*
X-351811Y1514339D01*
Y1505661D01*
X-348490Y1497645D01*
X-342355Y1491509D01*
X-334339Y1488189D01*
X-325661D01*
X-317645Y1491509D01*
X-311510Y1497645D01*
X-308189Y1505661D01*
Y1514339D01*
X-311510Y1522355D01*
X-317645Y1528491D01*
X-325661Y1531811D01*
D02*
G37*
G36*
X-1944537Y1541496D02*
X-1955463D01*
X-1966017Y1538668D01*
X-1975479Y1533205D01*
X-1983205Y1525479D01*
X-1988668Y1516017D01*
X-1991496Y1505463D01*
Y1494537D01*
X-1988668Y1483983D01*
X-1983205Y1474521D01*
X-1975479Y1466795D01*
X-1966017Y1461332D01*
X-1955463Y1458504D01*
X-1944537D01*
X-1933983Y1461332D01*
X-1924521Y1466795D01*
X-1916795Y1474521D01*
X-1911332Y1483983D01*
X-1908504Y1494537D01*
Y1505463D01*
X-1911332Y1516017D01*
X-1916795Y1525479D01*
X-1924521Y1533205D01*
X-1933983Y1538668D01*
X-1944537Y1541496D01*
D02*
G37*
G36*
X-14537Y1411496D02*
X-25463D01*
X-36017Y1408668D01*
X-45479Y1403205D01*
X-53205Y1395479D01*
X-58668Y1386017D01*
X-61496Y1375463D01*
Y1364537D01*
X-58668Y1353983D01*
X-53205Y1344521D01*
X-45479Y1336795D01*
X-36017Y1331332D01*
X-25463Y1328504D01*
X-14537D01*
X-3983Y1331332D01*
X5479Y1336795D01*
X13205Y1344521D01*
X18668Y1353983D01*
X21496Y1364537D01*
Y1375463D01*
X18668Y1386017D01*
X13205Y1395479D01*
X5479Y1403205D01*
X-3983Y1408668D01*
X-14537Y1411496D01*
D02*
G37*
G36*
X-674537Y1351496D02*
X-685463D01*
X-696017Y1348668D01*
X-705479Y1343205D01*
X-713205Y1335479D01*
X-718668Y1326017D01*
X-721496Y1315463D01*
Y1304537D01*
X-718668Y1293983D01*
X-713205Y1284521D01*
X-705479Y1276795D01*
X-696017Y1271332D01*
X-685463Y1268504D01*
X-674537D01*
X-663983Y1271332D01*
X-654521Y1276795D01*
X-646795Y1284521D01*
X-641332Y1293983D01*
X-638504Y1304537D01*
Y1315463D01*
X-641332Y1326017D01*
X-646795Y1335479D01*
X-654521Y1343205D01*
X-663983Y1348668D01*
X-674537Y1351496D01*
D02*
G37*
G36*
X-774537D02*
X-785463D01*
X-796017Y1348668D01*
X-805479Y1343205D01*
X-813205Y1335479D01*
X-818668Y1326017D01*
X-821496Y1315463D01*
Y1304537D01*
X-818668Y1293983D01*
X-813205Y1284521D01*
X-805479Y1276795D01*
X-796017Y1271332D01*
X-785463Y1268504D01*
X-774537D01*
X-763983Y1271332D01*
X-754521Y1276795D01*
X-746795Y1284521D01*
X-741332Y1293983D01*
X-738504Y1304537D01*
Y1315463D01*
X-741332Y1326017D01*
X-746795Y1335479D01*
X-754521Y1343205D01*
X-763983Y1348668D01*
X-774537Y1351496D01*
D02*
G37*
G36*
X-2640000Y1695294D02*
X-2800000D01*
X-2805853Y1694130D01*
X-2810814Y1690814D01*
X-2814130Y1685853D01*
X-2815294Y1680000D01*
Y1328740D01*
X-2815227Y1328404D01*
X-2816415Y1316343D01*
X-2820031Y1304422D01*
X-2825903Y1293436D01*
X-2833806Y1283806D01*
X-2843436Y1275903D01*
X-2854422Y1270031D01*
X-2866343Y1266415D01*
X-2878404Y1265227D01*
X-2878740Y1265294D01*
X-3220000D01*
X-3225853Y1264130D01*
X-3230814Y1260814D01*
X-3234130Y1255853D01*
X-3235294Y1250000D01*
Y1150000D01*
X-3234130Y1144147D01*
X-3230814Y1139186D01*
X-3225853Y1135870D01*
X-3220000Y1134706D01*
X-2762034D01*
X-2759728Y1134247D01*
Y1134125D01*
X-2738587Y1135789D01*
X-2717966Y1140739D01*
X-2698374Y1148855D01*
X-2680292Y1159935D01*
X-2664166Y1173708D01*
X-2650394Y1189834D01*
X-2639313Y1207915D01*
X-2631198Y1227508D01*
X-2626247Y1248129D01*
X-2624583Y1269270D01*
X-2624706D01*
Y1680000D01*
X-2625870Y1685853D01*
X-2629186Y1690814D01*
X-2634147Y1694130D01*
X-2640000Y1695294D01*
D02*
G37*
G36*
X-1944537Y1341496D02*
X-1955463D01*
X-1966017Y1338668D01*
X-1975479Y1333205D01*
X-1983205Y1325479D01*
X-1988668Y1316017D01*
X-1991496Y1305463D01*
Y1294537D01*
X-1988668Y1283983D01*
X-1983205Y1274521D01*
X-1975479Y1266795D01*
X-1966017Y1261332D01*
X-1955463Y1258504D01*
X-1944537D01*
X-1933983Y1261332D01*
X-1924521Y1266795D01*
X-1916795Y1274521D01*
X-1911332Y1283983D01*
X-1908504Y1294537D01*
Y1305463D01*
X-1911332Y1316017D01*
X-1916795Y1325479D01*
X-1924521Y1333205D01*
X-1933983Y1338668D01*
X-1944537Y1341496D01*
D02*
G37*
G36*
X-980000Y1572205D02*
X-994087Y1570818D01*
X-1007632Y1566709D01*
X-1020115Y1560036D01*
X-1031057Y1551057D01*
X-1040036Y1540115D01*
X-1046709Y1527632D01*
X-1050818Y1514086D01*
X-1052205Y1500000D01*
Y1252205D01*
X-1060417D01*
X-1062330Y1256825D01*
X-1061509Y1257645D01*
X-1058189Y1265661D01*
Y1274339D01*
X-1061509Y1282355D01*
X-1067645Y1288491D01*
X-1075661Y1291811D01*
X-1084339D01*
X-1092355Y1288491D01*
X-1098491Y1282355D01*
X-1101811Y1274339D01*
Y1265661D01*
X-1098491Y1257645D01*
X-1097670Y1256825D01*
X-1099583Y1252205D01*
X-1139870D01*
X-1144098Y1260115D01*
X-1153077Y1271057D01*
X-1164019Y1280036D01*
X-1176502Y1286709D01*
X-1177795Y1287101D01*
Y1390000D01*
X-1179182Y1404086D01*
X-1183291Y1417632D01*
X-1189964Y1430115D01*
X-1198943Y1441057D01*
X-1209885Y1450036D01*
X-1222368Y1456709D01*
X-1235914Y1460818D01*
X-1250000Y1462205D01*
X-1264086Y1460818D01*
X-1277632Y1456709D01*
X-1290115Y1450036D01*
X-1301057Y1441057D01*
X-1310036Y1430115D01*
X-1316709Y1417632D01*
X-1320818Y1404086D01*
X-1322205Y1390000D01*
Y1292205D01*
X-1417795D01*
Y1390000D01*
X-1419182Y1404086D01*
X-1423291Y1417632D01*
X-1429964Y1430115D01*
X-1438943Y1441057D01*
X-1449885Y1450036D01*
X-1462368Y1456709D01*
X-1475914Y1460818D01*
X-1490000Y1462205D01*
X-1504086Y1460818D01*
X-1517632Y1456709D01*
X-1530115Y1450036D01*
X-1541057Y1441057D01*
X-1550036Y1430115D01*
X-1556709Y1417632D01*
X-1560818Y1404086D01*
X-1562205Y1390000D01*
Y1282205D01*
X-1580000D01*
X-1594086Y1280818D01*
X-1607632Y1276709D01*
X-1620115Y1270036D01*
X-1631057Y1261057D01*
X-1640036Y1250115D01*
X-1646709Y1237632D01*
X-1650818Y1224086D01*
X-1652205Y1210000D01*
Y1062205D01*
X-1695000D01*
X-1709086Y1060818D01*
X-1722632Y1056709D01*
X-1732607Y1051377D01*
X-1736181D01*
X-1740083Y1050601D01*
X-1743390Y1048391D01*
X-1745601Y1045083D01*
X-1746377Y1041181D01*
Y1040667D01*
X-1755036Y1030115D01*
X-1759528Y1021712D01*
X-1765248Y1021618D01*
X-1767267Y1025117D01*
X-1774883Y1032733D01*
X-1784211Y1038118D01*
X-1794615Y1040906D01*
X-1805385D01*
X-1815789Y1038118D01*
X-1825117Y1032733D01*
X-1832733Y1025117D01*
X-1838118Y1015789D01*
X-1840906Y1005385D01*
Y994615D01*
X-1838118Y984211D01*
X-1832733Y974883D01*
X-1825117Y967267D01*
X-1815789Y961882D01*
X-1805385Y959095D01*
X-1794615D01*
X-1784211Y961882D01*
X-1774883Y967267D01*
X-1769924Y972226D01*
X-1764270Y970810D01*
X-1761709Y962368D01*
X-1755036Y949885D01*
X-1746377Y939333D01*
Y938819D01*
X-1745601Y934917D01*
X-1743390Y931609D01*
X-1740083Y929399D01*
X-1736181Y928623D01*
X-1732607D01*
X-1722632Y923291D01*
X-1709086Y919182D01*
X-1695000Y917795D01*
X-1617401D01*
Y874882D01*
X-1545906D01*
Y926745D01*
X-1539885Y929964D01*
X-1528943Y938943D01*
X-1519964Y949885D01*
X-1513291Y962368D01*
X-1509182Y975913D01*
X-1507795Y990000D01*
Y1026640D01*
X-1503637Y1029418D01*
X-1500670Y1028189D01*
X-1491993D01*
X-1483977Y1031509D01*
X-1477841Y1037645D01*
X-1474521Y1045661D01*
Y1054339D01*
X-1477841Y1062355D01*
X-1483977Y1068491D01*
X-1491993Y1071811D01*
X-1500670D01*
X-1503637Y1070582D01*
X-1507795Y1073360D01*
Y1137322D01*
X-1437401D01*
X-1423315Y1138710D01*
X-1409770Y1142819D01*
X-1400460Y1147795D01*
X-1268398D01*
X-1264170Y1139885D01*
X-1255191Y1128943D01*
X-1244249Y1119964D01*
X-1231766Y1113291D01*
X-1218220Y1109182D01*
X-1204134Y1107795D01*
X-980000D01*
X-965913Y1109182D01*
X-952368Y1113291D01*
X-939885Y1119964D01*
X-928943Y1128943D01*
X-919964Y1139885D01*
X-913291Y1152368D01*
X-909182Y1165914D01*
X-907795Y1180000D01*
Y1500000D01*
X-909182Y1514086D01*
X-913291Y1527632D01*
X-919964Y1540115D01*
X-928943Y1551057D01*
X-939885Y1560036D01*
X-952368Y1566709D01*
X-965913Y1570818D01*
X-980000Y1572205D01*
D02*
G37*
G36*
X-14537Y1311496D02*
X-25463D01*
X-36017Y1308668D01*
X-45479Y1303205D01*
X-53205Y1295479D01*
X-58668Y1286017D01*
X-61496Y1275463D01*
Y1264537D01*
X-58668Y1253983D01*
X-53205Y1244521D01*
X-45479Y1236795D01*
X-36017Y1231332D01*
X-25463Y1228504D01*
X-14537D01*
X-3983Y1231332D01*
X5479Y1236795D01*
X13205Y1244521D01*
X18668Y1253983D01*
X21496Y1264537D01*
Y1275463D01*
X18668Y1286017D01*
X13205Y1295479D01*
X5479Y1303205D01*
X-3983Y1308668D01*
X-14537Y1311496D01*
D02*
G37*
G36*
X-1944537Y1241496D02*
X-1955463D01*
X-1966017Y1238668D01*
X-1975479Y1233205D01*
X-1983205Y1225479D01*
X-1988668Y1216017D01*
X-1991496Y1205463D01*
Y1194537D01*
X-1988668Y1183983D01*
X-1983205Y1174521D01*
X-1975479Y1166795D01*
X-1966017Y1161332D01*
X-1955463Y1158504D01*
X-1944537D01*
X-1933983Y1161332D01*
X-1924521Y1166795D01*
X-1916795Y1174521D01*
X-1911332Y1183983D01*
X-1908504Y1194537D01*
Y1205463D01*
X-1911332Y1216017D01*
X-1916795Y1225479D01*
X-1924521Y1233205D01*
X-1933983Y1238668D01*
X-1944537Y1241496D01*
D02*
G37*
G36*
X-595662Y1181811D02*
X-604338D01*
X-612355Y1178491D01*
X-618490Y1172355D01*
X-621811Y1164339D01*
Y1155661D01*
X-620036Y1151377D01*
X-623377Y1146377D01*
X-636623D01*
X-639964Y1151377D01*
X-638189Y1155661D01*
Y1164339D01*
X-641510Y1172355D01*
X-647645Y1178491D01*
X-655662Y1181811D01*
X-664338D01*
X-672355Y1178491D01*
X-678490Y1172355D01*
X-681811Y1164339D01*
Y1155661D01*
X-680036Y1151377D01*
X-683377Y1146377D01*
X-696623D01*
X-699964Y1151377D01*
X-698189Y1155661D01*
Y1164339D01*
X-701510Y1172355D01*
X-707645Y1178491D01*
X-715662Y1181811D01*
X-724338D01*
X-732355Y1178491D01*
X-738490Y1172355D01*
X-741811Y1164339D01*
Y1155661D01*
X-738490Y1147645D01*
X-732355Y1141509D01*
X-724338Y1138189D01*
X-723025D01*
X-721377Y1136181D01*
Y1107607D01*
X-726709Y1097632D01*
X-730818Y1084086D01*
X-732205Y1070000D01*
Y1029630D01*
X-735314Y1027244D01*
X-744686D01*
X-753737Y1024819D01*
X-761853Y1020133D01*
X-768480Y1013507D01*
X-773165Y1005391D01*
X-775591Y996339D01*
Y986968D01*
X-773165Y977916D01*
X-768480Y969800D01*
X-761853Y963174D01*
X-753737Y958488D01*
X-744686Y956063D01*
X-735314D01*
X-726263Y958488D01*
X-724342Y957940D01*
X-720036Y949885D01*
X-718354Y947835D01*
X-721642Y943960D01*
X-722909Y944691D01*
X-731110Y946889D01*
X-739600D01*
X-747801Y944691D01*
X-755154Y940446D01*
X-761157Y934443D01*
X-765402Y927091D01*
X-767599Y918890D01*
Y910400D01*
X-765402Y902199D01*
X-761157Y894846D01*
X-755154Y888843D01*
X-747801Y884598D01*
X-739600Y882401D01*
X-731110D01*
X-722909Y884598D01*
X-715557Y888843D01*
X-709554Y894846D01*
X-705309Y902199D01*
X-703111Y910400D01*
Y918890D01*
X-705309Y927091D01*
X-706040Y928358D01*
X-702165Y931646D01*
X-700115Y929964D01*
X-687632Y923291D01*
X-674087Y919182D01*
X-660000Y917795D01*
X-622205D01*
Y682961D01*
X-622635Y682438D01*
X-629307Y669955D01*
X-633416Y656409D01*
X-634804Y642323D01*
X-634172Y635910D01*
X-637530Y632205D01*
X-747795D01*
Y710000D01*
X-749182Y724087D01*
X-753291Y737632D01*
X-759964Y750115D01*
X-768943Y761057D01*
X-779885Y770036D01*
X-792368Y776709D01*
X-798623Y778606D01*
Y836181D01*
X-799399Y840083D01*
X-801609Y843391D01*
X-804917Y845601D01*
X-808819Y846377D01*
X-911181D01*
X-915083Y845601D01*
X-918391Y843391D01*
X-920601Y840083D01*
X-921377Y836181D01*
Y782205D01*
X-1037239D01*
X-1118593Y839153D01*
X-1130929Y846094D01*
X-1144382Y850496D01*
X-1158435Y852188D01*
X-1164842Y851697D01*
X-1170000Y852205D01*
X-1430000D01*
X-1430091Y852196D01*
X-1447553Y850822D01*
X-1464673Y846712D01*
X-1480939Y839974D01*
X-1495951Y830774D01*
X-1509340Y819340D01*
X-1520774Y805952D01*
X-1529974Y790939D01*
X-1536712Y774673D01*
X-1540822Y757553D01*
X-1542196Y740091D01*
X-1542205Y740000D01*
Y620000D01*
X-1540818Y605913D01*
X-1536709Y592368D01*
X-1530036Y579885D01*
X-1521057Y568943D01*
X-1510115Y559964D01*
X-1497632Y553291D01*
X-1484086Y549182D01*
X-1470000Y547795D01*
X-1455914Y549182D01*
X-1442368Y553291D01*
X-1429885Y559964D01*
X-1418943Y568943D01*
X-1409964Y579885D01*
X-1403291Y592368D01*
X-1399182Y605913D01*
X-1397795Y620000D01*
Y707795D01*
X-1182761D01*
X-1101407Y650847D01*
X-1100723Y650462D01*
X-1100115Y649964D01*
X-1094560Y646995D01*
X-1089071Y643906D01*
X-1088324Y643661D01*
X-1087632Y643291D01*
X-1081604Y641463D01*
X-1075618Y639504D01*
X-1074838Y639410D01*
X-1074086Y639182D01*
X-1067819Y638565D01*
X-1061565Y637812D01*
X-1060781Y637872D01*
X-1060000Y637795D01*
X-892205D01*
Y560000D01*
X-890818Y545913D01*
X-886709Y532368D01*
X-880036Y519885D01*
X-871057Y508943D01*
X-860115Y499964D01*
X-847632Y493291D01*
X-834087Y489182D01*
X-820000Y487795D01*
X-771377D01*
Y403819D01*
X-770601Y399917D01*
X-768390Y396610D01*
X-765083Y394399D01*
X-761181Y393623D01*
X-658819D01*
X-654917Y394399D01*
X-651609Y396610D01*
X-649399Y399917D01*
X-648623Y403819D01*
Y487795D01*
X-617170D01*
X-614087Y486859D01*
X-600000Y485472D01*
X-585913Y486859D01*
X-572368Y490968D01*
X-559885Y497641D01*
X-548943Y506620D01*
X-539964Y517562D01*
X-533291Y530045D01*
X-529182Y543591D01*
X-527795Y557677D01*
Y558455D01*
X-528579Y566413D01*
X-525221Y570118D01*
X-507756D01*
X-493670Y571505D01*
X-480124Y575614D01*
X-467641Y582286D01*
X-456699Y591266D01*
X-447720Y602208D01*
X-441047Y614691D01*
X-436938Y628236D01*
X-435551Y642323D01*
X-436446Y651413D01*
X-433088Y655118D01*
X-237205D01*
Y608859D01*
X-242205Y606494D01*
X-249688Y612635D01*
X-262171Y619307D01*
X-275717Y623416D01*
X-289803Y624804D01*
X-301946Y623608D01*
X-306946Y627021D01*
Y630984D01*
X-310266Y639001D01*
X-316402Y645136D01*
X-324418Y648457D01*
X-333095D01*
X-341112Y645136D01*
X-347247Y639001D01*
X-350568Y630984D01*
Y622307D01*
X-347247Y614291D01*
X-342079Y609123D01*
X-341292Y605594D01*
X-341482Y602897D01*
X-349840Y592714D01*
X-356512Y580230D01*
X-360621Y566685D01*
X-362008Y552598D01*
Y509557D01*
X-362205Y507559D01*
X-360818Y493473D01*
X-356709Y479927D01*
X-350036Y467444D01*
X-341057Y456502D01*
X-330115Y447523D01*
X-317632Y440850D01*
X-304087Y436741D01*
X-290000Y435354D01*
X-222441D01*
Y435302D01*
X-202152Y436899D01*
X-182362Y441650D01*
X-163559Y449438D01*
X-146206Y460072D01*
X-130731Y473289D01*
X-117513Y488765D01*
X-106879Y506118D01*
X-99091Y524921D01*
X-94340Y544711D01*
X-92743Y565000D01*
X-92795D01*
Y658623D01*
X-38819D01*
X-34917Y659399D01*
X-31609Y661610D01*
X-29399Y664917D01*
X-28623Y668819D01*
Y771181D01*
X-29399Y775083D01*
X-31609Y778391D01*
X-34917Y780601D01*
X-38819Y781377D01*
X-117596D01*
X-124885Y787359D01*
X-137368Y794032D01*
X-150913Y798141D01*
X-165000Y799528D01*
X-470000D01*
X-474090Y799125D01*
X-477795Y802483D01*
Y917795D01*
X-470000D01*
X-455913Y919182D01*
X-442368Y923291D01*
X-429885Y929964D01*
X-418943Y938943D01*
X-409964Y949885D01*
X-403291Y962368D01*
X-399182Y975913D01*
X-397795Y990000D01*
X-399182Y1004087D01*
X-403291Y1017632D01*
X-409964Y1030115D01*
X-418943Y1041057D01*
X-429885Y1050036D01*
X-442368Y1056709D01*
X-455913Y1060818D01*
X-470000Y1062205D01*
X-587795D01*
Y1070000D01*
X-589182Y1084086D01*
X-593291Y1097632D01*
X-598623Y1107607D01*
Y1136181D01*
X-596975Y1138189D01*
X-595662D01*
X-587645Y1141509D01*
X-581510Y1147645D01*
X-578189Y1155661D01*
Y1164339D01*
X-581510Y1172355D01*
X-587645Y1178491D01*
X-595662Y1181811D01*
D02*
G37*
G36*
X-14537Y1211496D02*
X-25463D01*
X-36017Y1208668D01*
X-45479Y1203205D01*
X-53205Y1195479D01*
X-58668Y1186017D01*
X-61496Y1175463D01*
Y1164537D01*
X-58668Y1153983D01*
X-53205Y1144521D01*
X-45479Y1136795D01*
X-36017Y1131332D01*
X-25463Y1128504D01*
X-14537D01*
X-3983Y1131332D01*
X5479Y1136795D01*
X13205Y1144521D01*
X18668Y1153983D01*
X21496Y1164537D01*
Y1175463D01*
X18668Y1186017D01*
X13205Y1195479D01*
X5479Y1203205D01*
X-3983Y1208668D01*
X-14537Y1211496D01*
D02*
G37*
G36*
X-1285661Y1111811D02*
X-1294339D01*
X-1302355Y1108491D01*
X-1308491Y1102355D01*
X-1311811Y1094339D01*
Y1085661D01*
X-1308491Y1077645D01*
X-1302355Y1071509D01*
X-1294339Y1068189D01*
X-1285661D01*
X-1277645Y1071509D01*
X-1271509Y1077645D01*
X-1268189Y1085661D01*
Y1094339D01*
X-1271509Y1102355D01*
X-1277645Y1108491D01*
X-1285661Y1111811D01*
D02*
G37*
G36*
X174606Y1093257D02*
X125394D01*
X113790Y1091730D01*
X102978Y1087251D01*
X93692Y1080126D01*
X86568Y1070841D01*
X82089Y1060029D01*
X80561Y1048425D01*
X82089Y1036822D01*
X86568Y1026009D01*
X93692Y1016724D01*
X102978Y1009599D01*
X113790Y1005120D01*
X125394Y1003593D01*
X174606D01*
X186210Y1005120D01*
X197022Y1009599D01*
X206308Y1016724D01*
X213432Y1026009D01*
X217911Y1036822D01*
X219439Y1048425D01*
X217911Y1060029D01*
X213432Y1070841D01*
X206308Y1080126D01*
X197022Y1087251D01*
X186210Y1091730D01*
X174606Y1093257D01*
D02*
G37*
G36*
X-1944537Y1041496D02*
X-1955463D01*
X-1966017Y1038668D01*
X-1975479Y1033205D01*
X-1983205Y1025479D01*
X-1988668Y1016017D01*
X-1991496Y1005463D01*
Y994537D01*
X-1988668Y983983D01*
X-1983205Y974521D01*
X-1975479Y966795D01*
X-1966017Y961332D01*
X-1955463Y958504D01*
X-1944537D01*
X-1933983Y961332D01*
X-1924521Y966795D01*
X-1916795Y974521D01*
X-1911332Y983983D01*
X-1908504Y994537D01*
Y1005463D01*
X-1911332Y1016017D01*
X-1916795Y1025479D01*
X-1924521Y1033205D01*
X-1933983Y1038668D01*
X-1944537Y1041496D01*
D02*
G37*
G36*
X-783150Y1027244D02*
X-854331D01*
Y956063D01*
X-783150D01*
Y1027244D01*
D02*
G37*
G36*
X-155661Y971811D02*
X-164339D01*
X-172355Y968490D01*
X-178490Y962355D01*
X-181811Y954338D01*
Y945662D01*
X-178490Y937645D01*
X-172355Y931510D01*
X-164339Y928189D01*
X-155661D01*
X-147645Y931510D01*
X-141510Y937645D01*
X-138189Y945662D01*
Y954338D01*
X-141510Y962355D01*
X-147645Y968490D01*
X-155661Y971811D01*
D02*
G37*
G36*
X-1374615Y990905D02*
X-1385385D01*
X-1395789Y988118D01*
X-1405117Y982733D01*
X-1412733Y975117D01*
X-1418118Y965789D01*
X-1420906Y955385D01*
Y944615D01*
X-1418118Y934211D01*
X-1412733Y924883D01*
X-1405117Y917267D01*
X-1395789Y911882D01*
X-1385385Y909095D01*
X-1374615D01*
X-1364211Y911882D01*
X-1354883Y917267D01*
X-1347267Y924883D01*
X-1341882Y934211D01*
X-1339094Y944615D01*
Y955385D01*
X-1341882Y965789D01*
X-1347267Y975117D01*
X-1354883Y982733D01*
X-1364211Y988118D01*
X-1374615Y990905D01*
D02*
G37*
G36*
X174606Y994832D02*
X125394D01*
X113790Y993305D01*
X102978Y988826D01*
X93692Y981701D01*
X86568Y972416D01*
X82089Y961604D01*
X80561Y950000D01*
X82089Y938396D01*
X86568Y927584D01*
X93692Y918299D01*
X102978Y911174D01*
X113790Y906695D01*
X125394Y905168D01*
X174606D01*
X186210Y906695D01*
X197022Y911174D01*
X206308Y918299D01*
X213432Y927584D01*
X217911Y938396D01*
X219439Y950000D01*
X217911Y961604D01*
X213432Y972416D01*
X206308Y981701D01*
X197022Y988826D01*
X186210Y993305D01*
X174606Y994832D01*
D02*
G37*
G36*
X-1944537Y941496D02*
X-1955463D01*
X-1966017Y938668D01*
X-1975479Y933205D01*
X-1983205Y925479D01*
X-1988668Y916017D01*
X-1991496Y905463D01*
Y894537D01*
X-1988668Y883983D01*
X-1983205Y874521D01*
X-1975479Y866795D01*
X-1966017Y861332D01*
X-1955463Y858504D01*
X-1944537D01*
X-1933983Y861332D01*
X-1924521Y866795D01*
X-1916795Y874521D01*
X-1911332Y883983D01*
X-1908504Y894537D01*
Y905463D01*
X-1911332Y916017D01*
X-1916795Y925479D01*
X-1924521Y933205D01*
X-1933983Y938668D01*
X-1944537Y941496D01*
D02*
G37*
G36*
X-2455662Y821811D02*
X-2464338D01*
X-2472355Y818490D01*
X-2478490Y812355D01*
X-2481811Y804338D01*
Y795662D01*
X-2478490Y787645D01*
X-2472355Y781510D01*
X-2464338Y778189D01*
X-2455662D01*
X-2447645Y781510D01*
X-2441510Y787645D01*
X-2438189Y795662D01*
Y804338D01*
X-2441510Y812355D01*
X-2447645Y818490D01*
X-2455662Y821811D01*
D02*
G37*
G36*
X-1794615Y840905D02*
X-1805385D01*
X-1815789Y838118D01*
X-1825117Y832733D01*
X-1832733Y825117D01*
X-1838118Y815789D01*
X-1840906Y805385D01*
Y794615D01*
X-1838118Y784211D01*
X-1832733Y774883D01*
X-1825117Y767267D01*
X-1815789Y761882D01*
X-1805385Y759095D01*
X-1794615D01*
X-1784211Y761882D01*
X-1774883Y767267D01*
X-1767267Y774883D01*
X-1761882Y784211D01*
X-1759094Y794615D01*
Y805385D01*
X-1761882Y815789D01*
X-1767267Y825117D01*
X-1774883Y832733D01*
X-1784211Y838118D01*
X-1794615Y840905D01*
D02*
G37*
G36*
X-1944537Y841496D02*
X-1955463D01*
X-1966017Y838668D01*
X-1975479Y833205D01*
X-1983205Y825479D01*
X-1988668Y816017D01*
X-1991496Y805463D01*
Y794537D01*
X-1988668Y783983D01*
X-1983205Y774521D01*
X-1975479Y766795D01*
X-1966017Y761332D01*
X-1955463Y758504D01*
X-1944537D01*
X-1933983Y761332D01*
X-1924521Y766795D01*
X-1916795Y774521D01*
X-1911332Y783983D01*
X-1908504Y794537D01*
Y805463D01*
X-1911332Y816017D01*
X-1916795Y825479D01*
X-1924521Y833205D01*
X-1933983Y838668D01*
X-1944537Y841496D01*
D02*
G37*
G36*
X-2415662Y741811D02*
X-2424338D01*
X-2432355Y738490D01*
X-2438490Y732355D01*
X-2441811Y724338D01*
Y715662D01*
X-2438490Y707645D01*
X-2432355Y701510D01*
X-2424338Y698189D01*
X-2415662D01*
X-2407645Y701510D01*
X-2401510Y707645D01*
X-2398189Y715662D01*
Y724338D01*
X-2401510Y732355D01*
X-2407645Y738490D01*
X-2415662Y741811D01*
D02*
G37*
G36*
X-3505392Y744000D02*
X-3514608D01*
X-3523510Y741615D01*
X-3531490Y737007D01*
X-3538007Y730490D01*
X-3542615Y722510D01*
X-3545000Y713608D01*
Y704392D01*
X-3542615Y695490D01*
X-3538007Y687510D01*
X-3531490Y680993D01*
X-3523510Y676385D01*
X-3514608Y674000D01*
X-3505392D01*
X-3496490Y676385D01*
X-3488510Y680993D01*
X-3481993Y687510D01*
X-3477385Y695490D01*
X-3475000Y704392D01*
Y713608D01*
X-3477385Y722510D01*
X-3481993Y730490D01*
X-3488510Y737007D01*
X-3496490Y741615D01*
X-3505392Y744000D01*
D02*
G37*
G36*
X-3324537Y711496D02*
X-3335463D01*
X-3346017Y708668D01*
X-3355479Y703205D01*
X-3363205Y695479D01*
X-3368668Y686017D01*
X-3371496Y675463D01*
Y664537D01*
X-3368668Y653983D01*
X-3363205Y644521D01*
X-3355479Y636795D01*
X-3346017Y631332D01*
X-3335463Y628504D01*
X-3324537D01*
X-3313983Y631332D01*
X-3304521Y636795D01*
X-3296795Y644521D01*
X-3291332Y653983D01*
X-3288504Y664537D01*
Y675463D01*
X-3291332Y686017D01*
X-3296795Y695479D01*
X-3304521Y703205D01*
X-3313983Y708668D01*
X-3324537Y711496D01*
D02*
G37*
G36*
X-1165661Y661811D02*
X-1174339D01*
X-1182355Y658490D01*
X-1188491Y652355D01*
X-1191811Y644338D01*
Y635662D01*
X-1188491Y627645D01*
X-1182355Y621510D01*
X-1174339Y618189D01*
X-1165661D01*
X-1157645Y621510D01*
X-1151509Y627645D01*
X-1148189Y635662D01*
Y644338D01*
X-1151509Y652355D01*
X-1157645Y658490D01*
X-1165661Y661811D01*
D02*
G37*
G36*
X-2255662D02*
X-2264338D01*
X-2272355Y658490D01*
X-2278490Y652355D01*
X-2281811Y644338D01*
Y635662D01*
X-2278490Y627645D01*
X-2272355Y621510D01*
X-2264338Y618189D01*
X-2255662D01*
X-2247645Y621510D01*
X-2241510Y627645D01*
X-2238189Y635662D01*
Y644338D01*
X-2241510Y652355D01*
X-2247645Y658490D01*
X-2255662Y661811D01*
D02*
G37*
G36*
X-1254615Y670905D02*
X-1265385D01*
X-1275789Y668118D01*
X-1285117Y662733D01*
X-1292733Y655117D01*
X-1298118Y645789D01*
X-1300906Y635385D01*
Y624615D01*
X-1298118Y614211D01*
X-1292733Y604883D01*
X-1285117Y597267D01*
X-1275789Y591882D01*
X-1265385Y589095D01*
X-1254615D01*
X-1244211Y591882D01*
X-1234883Y597267D01*
X-1227267Y604883D01*
X-1221882Y614211D01*
X-1219094Y624615D01*
Y635385D01*
X-1221882Y645789D01*
X-1227267Y655117D01*
X-1234883Y662733D01*
X-1244211Y668118D01*
X-1254615Y670905D01*
D02*
G37*
G36*
X-1115661Y611811D02*
X-1124339D01*
X-1132355Y608490D01*
X-1138491Y602355D01*
X-1141811Y594338D01*
Y585662D01*
X-1138491Y577645D01*
X-1132355Y571510D01*
X-1124339Y568189D01*
X-1115661D01*
X-1107645Y571510D01*
X-1101509Y577645D01*
X-1098189Y585662D01*
Y594338D01*
X-1101509Y602355D01*
X-1107645Y608490D01*
X-1115661Y611811D01*
D02*
G37*
G36*
X-3505392Y626000D02*
X-3514608D01*
X-3523510Y623615D01*
X-3531490Y619007D01*
X-3538007Y612490D01*
X-3542615Y604510D01*
X-3545000Y595608D01*
Y586392D01*
X-3542615Y577490D01*
X-3538007Y569510D01*
X-3531490Y562993D01*
X-3523510Y558385D01*
X-3514608Y556000D01*
X-3505392D01*
X-3496490Y558385D01*
X-3488510Y562993D01*
X-3481993Y569510D01*
X-3477385Y577490D01*
X-3475000Y586392D01*
Y595608D01*
X-3477385Y604510D01*
X-3481993Y612490D01*
X-3488510Y619007D01*
X-3496490Y623615D01*
X-3505392Y626000D01*
D02*
G37*
G36*
X-14537Y611496D02*
X-25463D01*
X-36017Y608668D01*
X-45479Y603205D01*
X-53205Y595479D01*
X-58668Y586017D01*
X-61496Y575463D01*
Y564537D01*
X-58668Y553983D01*
X-53205Y544521D01*
X-45479Y536795D01*
X-36017Y531332D01*
X-25463Y528504D01*
X-14537D01*
X-3983Y531332D01*
X5479Y536795D01*
X13205Y544521D01*
X18668Y553983D01*
X21496Y564537D01*
Y575463D01*
X18668Y586017D01*
X13205Y595479D01*
X5479Y603205D01*
X-3983Y608668D01*
X-14537Y611496D01*
D02*
G37*
G36*
X-3324537D02*
X-3335463D01*
X-3346017Y608668D01*
X-3355479Y603205D01*
X-3363205Y595479D01*
X-3368668Y586017D01*
X-3371496Y575463D01*
Y564537D01*
X-3368668Y553983D01*
X-3363205Y544521D01*
X-3355479Y536795D01*
X-3346017Y531332D01*
X-3335463Y528504D01*
X-3324537D01*
X-3313983Y531332D01*
X-3304521Y536795D01*
X-3296795Y544521D01*
X-3291332Y553983D01*
X-3288504Y564537D01*
Y575463D01*
X-3291332Y586017D01*
X-3296795Y595479D01*
X-3304521Y603205D01*
X-3313983Y608668D01*
X-3324537Y611496D01*
D02*
G37*
G36*
X-3175662Y501811D02*
X-3184338D01*
X-3192355Y498490D01*
X-3198490Y492355D01*
X-3201811Y484339D01*
Y475661D01*
X-3198490Y467645D01*
X-3192355Y461510D01*
X-3184338Y458189D01*
X-3175662D01*
X-3167645Y461510D01*
X-3161510Y467645D01*
X-3158189Y475661D01*
Y484339D01*
X-3161510Y492355D01*
X-3167645Y498490D01*
X-3175662Y501811D01*
D02*
G37*
G36*
X-2485579Y516575D02*
X-2495209D01*
X-2504511Y514082D01*
X-2512851Y509267D01*
X-2519661Y502457D01*
X-2524476Y494117D01*
X-2526968Y484815D01*
Y475185D01*
X-2524476Y465883D01*
X-2519661Y457543D01*
X-2512851Y450733D01*
X-2504511Y445918D01*
X-2495209Y443425D01*
X-2485579D01*
X-2476276Y445918D01*
X-2467936Y450733D01*
X-2461127Y457543D01*
X-2456311Y465883D01*
X-2453819Y475185D01*
Y484815D01*
X-2456311Y494117D01*
X-2461127Y502457D01*
X-2467936Y509267D01*
X-2476276Y514082D01*
X-2485579Y516575D01*
D02*
G37*
G36*
X-2784791D02*
X-2794421D01*
X-2803724Y514082D01*
X-2812064Y509267D01*
X-2818873Y502457D01*
X-2823689Y494117D01*
X-2826181Y484815D01*
Y475185D01*
X-2823689Y465883D01*
X-2818873Y457543D01*
X-2812064Y450733D01*
X-2803724Y445918D01*
X-2794421Y443425D01*
X-2784791D01*
X-2775489Y445918D01*
X-2767149Y450733D01*
X-2760339Y457543D01*
X-2755524Y465883D01*
X-2753032Y475185D01*
Y484815D01*
X-2755524Y494117D01*
X-2760339Y502457D01*
X-2767149Y509267D01*
X-2775489Y514082D01*
X-2784791Y516575D01*
D02*
G37*
G36*
X-14537Y511496D02*
X-25463D01*
X-36017Y508668D01*
X-45479Y503205D01*
X-53205Y495479D01*
X-58668Y486017D01*
X-61496Y475463D01*
Y464537D01*
X-58668Y453983D01*
X-53205Y444521D01*
X-45479Y436795D01*
X-36017Y431332D01*
X-25463Y428504D01*
X-14537D01*
X-3983Y431332D01*
X5479Y436795D01*
X13205Y444521D01*
X18668Y453983D01*
X21496Y464537D01*
Y475463D01*
X18668Y486017D01*
X13205Y495479D01*
X5479Y503205D01*
X-3983Y508668D01*
X-14537Y511496D01*
D02*
G37*
G36*
X-505661Y501811D02*
X-514338D01*
X-522355Y498490D01*
X-528490Y492355D01*
X-531811Y484339D01*
Y475661D01*
X-528490Y467645D01*
X-524047Y463202D01*
X-522897Y460000D01*
X-524047Y456798D01*
X-528490Y452355D01*
X-531811Y444339D01*
Y435661D01*
X-528490Y427645D01*
X-524047Y423202D01*
X-522897Y420000D01*
X-524047Y416798D01*
X-528490Y412355D01*
X-531811Y404339D01*
Y395661D01*
X-528490Y387645D01*
X-522355Y381510D01*
X-514338Y378189D01*
X-505661D01*
X-497645Y381510D01*
X-491510Y387645D01*
X-488189Y395661D01*
Y404339D01*
X-491510Y412355D01*
X-495953Y416798D01*
X-497103Y420000D01*
X-495953Y423202D01*
X-491510Y427645D01*
X-488189Y435661D01*
Y444339D01*
X-491510Y452355D01*
X-495953Y456798D01*
X-497103Y460000D01*
X-495953Y463202D01*
X-491510Y467645D01*
X-488189Y475661D01*
Y484339D01*
X-491510Y492355D01*
X-497645Y498490D01*
X-505661Y501811D01*
D02*
G37*
G36*
X-14537Y411496D02*
X-25463D01*
X-36017Y408668D01*
X-45479Y403205D01*
X-53205Y395479D01*
X-58668Y386017D01*
X-61496Y375463D01*
Y364537D01*
X-58668Y353983D01*
X-53205Y344521D01*
X-45479Y336795D01*
X-36017Y331332D01*
X-25463Y328504D01*
X-14537D01*
X-3983Y331332D01*
X5479Y336795D01*
X13205Y344521D01*
X18668Y353983D01*
X21496Y364537D01*
Y375463D01*
X18668Y386017D01*
X13205Y395479D01*
X5479Y403205D01*
X-3983Y408668D01*
X-14537Y411496D01*
D02*
G37*
G36*
X-3324537D02*
X-3335463D01*
X-3346017Y408668D01*
X-3355479Y403205D01*
X-3363205Y395479D01*
X-3368668Y386017D01*
X-3371496Y375463D01*
Y364537D01*
X-3368668Y353983D01*
X-3363205Y344521D01*
X-3355479Y336795D01*
X-3346017Y331332D01*
X-3335463Y328504D01*
X-3324537D01*
X-3313983Y331332D01*
X-3304521Y336795D01*
X-3296795Y344521D01*
X-3291332Y353983D01*
X-3288504Y364537D01*
Y375463D01*
X-3291332Y386017D01*
X-3296795Y395479D01*
X-3304521Y403205D01*
X-3313983Y408668D01*
X-3324537Y411496D01*
D02*
G37*
G36*
X-3424537D02*
X-3435463D01*
X-3446017Y408668D01*
X-3455479Y403205D01*
X-3463205Y395479D01*
X-3468668Y386017D01*
X-3471496Y375463D01*
Y364537D01*
X-3468668Y353983D01*
X-3463205Y344521D01*
X-3455479Y336795D01*
X-3446017Y331332D01*
X-3435463Y328504D01*
X-3424537D01*
X-3413983Y331332D01*
X-3404521Y336795D01*
X-3396795Y344521D01*
X-3391332Y353983D01*
X-3388504Y364537D01*
Y375463D01*
X-3391332Y386017D01*
X-3396795Y395479D01*
X-3404521Y403205D01*
X-3413983Y408668D01*
X-3424537Y411496D01*
D02*
G37*
G36*
X-575662Y361811D02*
X-584338D01*
X-592355Y358490D01*
X-598490Y352355D01*
X-601811Y344339D01*
Y335661D01*
X-598490Y327645D01*
X-592355Y321510D01*
X-584338Y318189D01*
X-575662D01*
X-567645Y321510D01*
X-561510Y327645D01*
X-558189Y335661D01*
Y344339D01*
X-561510Y352355D01*
X-567645Y358490D01*
X-575662Y361811D01*
D02*
G37*
G36*
X-1015662Y441811D02*
X-1024339D01*
X-1032355Y438490D01*
X-1038491Y432355D01*
X-1041811Y424339D01*
Y415661D01*
X-1038491Y407645D01*
X-1034047Y403202D01*
X-1032897Y400000D01*
X-1034047Y396798D01*
X-1038491Y392355D01*
X-1041811Y384339D01*
Y375661D01*
X-1038491Y367645D01*
X-1034047Y363202D01*
X-1032897Y360000D01*
X-1034047Y356798D01*
X-1038491Y352355D01*
X-1041811Y344339D01*
Y335661D01*
X-1038491Y327645D01*
X-1034047Y323202D01*
X-1032897Y320000D01*
X-1034047Y316798D01*
X-1038491Y312355D01*
X-1041811Y304339D01*
Y295661D01*
X-1038491Y287645D01*
X-1033636Y282790D01*
X-1038295Y278132D01*
X-1041615Y270115D01*
Y261438D01*
X-1038295Y253422D01*
X-1032159Y247286D01*
X-1024143Y243966D01*
X-1015466D01*
X-1007449Y247286D01*
X-1001314Y253422D01*
X-997993Y261438D01*
Y270115D01*
X-1001314Y278132D01*
X-1006168Y282986D01*
X-1001510Y287645D01*
X-998189Y295661D01*
Y304339D01*
X-1001510Y312355D01*
X-1005953Y316798D01*
X-1007103Y320000D01*
X-1005953Y323202D01*
X-1001510Y327645D01*
X-998189Y335661D01*
Y344339D01*
X-1001510Y352355D01*
X-1005953Y356798D01*
X-1007103Y360000D01*
X-1005953Y363202D01*
X-1001510Y367645D01*
X-998189Y375661D01*
Y384339D01*
X-1001510Y392355D01*
X-1005953Y396798D01*
X-1007103Y400000D01*
X-1005953Y403202D01*
X-1001510Y407645D01*
X-998189Y415661D01*
Y424339D01*
X-1001510Y432355D01*
X-1007645Y438490D01*
X-1015662Y441811D01*
D02*
G37*
G36*
X174606Y293257D02*
X125394D01*
X113790Y291730D01*
X102978Y287251D01*
X93692Y280126D01*
X86568Y270841D01*
X82089Y260029D01*
X80561Y248425D01*
X82089Y236822D01*
X86568Y226009D01*
X93692Y216724D01*
X102978Y209599D01*
X113790Y205120D01*
X125394Y203593D01*
X174606D01*
X186210Y205120D01*
X197022Y209599D01*
X206308Y216724D01*
X213432Y226009D01*
X217911Y236822D01*
X219439Y248425D01*
X217911Y260029D01*
X213432Y270841D01*
X206308Y280126D01*
X197022Y287251D01*
X186210Y291730D01*
X174606Y293257D01*
D02*
G37*
G36*
X-505661Y231811D02*
X-514338D01*
X-522355Y228490D01*
X-528490Y222355D01*
X-531811Y214339D01*
Y205661D01*
X-528490Y197645D01*
X-522355Y191510D01*
X-514338Y188189D01*
X-505661D01*
X-497645Y191510D01*
X-491510Y197645D01*
X-488189Y205661D01*
Y214339D01*
X-491510Y222355D01*
X-497645Y228490D01*
X-505661Y231811D01*
D02*
G37*
G36*
X-555662D02*
X-564338D01*
X-572355Y228490D01*
X-578490Y222355D01*
X-581811Y214339D01*
Y205661D01*
X-578490Y197645D01*
X-572355Y191510D01*
X-564338Y188189D01*
X-555662D01*
X-547645Y191510D01*
X-541510Y197645D01*
X-538189Y205661D01*
Y214339D01*
X-541510Y222355D01*
X-547645Y228490D01*
X-555662Y231811D01*
D02*
G37*
G36*
X-2295662D02*
X-2304338D01*
X-2312355Y228490D01*
X-2318490Y222355D01*
X-2321811Y214339D01*
Y205661D01*
X-2318490Y197645D01*
X-2312355Y191510D01*
X-2304338Y188189D01*
X-2295662D01*
X-2287645Y191510D01*
X-2281510Y197645D01*
X-2278189Y205661D01*
Y214339D01*
X-2281510Y222355D01*
X-2287645Y228490D01*
X-2295662Y231811D01*
D02*
G37*
G36*
X-2035661Y211811D02*
X-2044339D01*
X-2052355Y208490D01*
X-2058490Y202355D01*
X-2061811Y194339D01*
Y185661D01*
X-2058490Y177645D01*
X-2052355Y171510D01*
X-2044339Y168189D01*
X-2035661D01*
X-2027645Y171510D01*
X-2021509Y177645D01*
X-2018189Y185661D01*
Y194339D01*
X-2021509Y202355D01*
X-2027645Y208490D01*
X-2035661Y211811D01*
D02*
G37*
G36*
X-2145662D02*
X-2154338D01*
X-2162355Y208490D01*
X-2168490Y202355D01*
X-2171811Y194339D01*
Y185661D01*
X-2168490Y177645D01*
X-2162355Y171510D01*
X-2154338Y168189D01*
X-2145662D01*
X-2137645Y171510D01*
X-2131510Y177645D01*
X-2128189Y185661D01*
Y194339D01*
X-2131510Y202355D01*
X-2137645Y208490D01*
X-2145662Y211811D01*
D02*
G37*
G36*
X-505661Y171811D02*
X-514338D01*
X-522355Y168490D01*
X-528490Y162355D01*
X-531811Y154339D01*
Y145661D01*
X-528490Y137645D01*
X-522355Y131510D01*
X-514338Y128189D01*
X-505661D01*
X-497645Y131510D01*
X-491510Y137645D01*
X-488189Y145661D01*
Y154339D01*
X-491510Y162355D01*
X-497645Y168490D01*
X-505661Y171811D01*
D02*
G37*
G36*
X-555662D02*
X-564338D01*
X-572355Y168490D01*
X-578490Y162355D01*
X-581811Y154339D01*
Y145661D01*
X-578490Y137645D01*
X-572355Y131510D01*
X-564338Y128189D01*
X-555662D01*
X-547645Y131510D01*
X-541510Y137645D01*
X-538189Y145661D01*
Y154339D01*
X-541510Y162355D01*
X-547645Y168490D01*
X-555662Y171811D01*
D02*
G37*
G36*
X174606Y194832D02*
X125394D01*
X113790Y193305D01*
X102978Y188826D01*
X93692Y181701D01*
X86568Y172416D01*
X82089Y161603D01*
X80561Y150000D01*
X82089Y138397D01*
X86568Y127584D01*
X93692Y118299D01*
X102978Y111174D01*
X113790Y106695D01*
X125394Y105168D01*
X174606D01*
X186210Y106695D01*
X197022Y111174D01*
X206308Y118299D01*
X213432Y127584D01*
X217911Y138397D01*
X219439Y150000D01*
X217911Y161603D01*
X213432Y172416D01*
X206308Y181701D01*
X197022Y188826D01*
X186210Y193305D01*
X174606Y194832D01*
D02*
G37*
G36*
X-635662Y201811D02*
X-644338D01*
X-652355Y198490D01*
X-658490Y192355D01*
X-661811Y184339D01*
Y175661D01*
X-658490Y167645D01*
X-654047Y163202D01*
X-652897Y160000D01*
X-654047Y156798D01*
X-658490Y152355D01*
X-661811Y144339D01*
Y135661D01*
X-658490Y127645D01*
X-654047Y123202D01*
X-652897Y120000D01*
X-654047Y116798D01*
X-658490Y112355D01*
X-661811Y104338D01*
Y95662D01*
X-658490Y87645D01*
X-652355Y81510D01*
X-644338Y78189D01*
X-635662D01*
X-627645Y81510D01*
X-621510Y87645D01*
X-618189Y95662D01*
Y104338D01*
X-621510Y112355D01*
X-625953Y116798D01*
X-627103Y120000D01*
X-625953Y123202D01*
X-621510Y127645D01*
X-618189Y135661D01*
Y144339D01*
X-621510Y152355D01*
X-625953Y156798D01*
X-627103Y160000D01*
X-625953Y163202D01*
X-621510Y167645D01*
X-618189Y175661D01*
Y184339D01*
X-621510Y192355D01*
X-627645Y198490D01*
X-635662Y201811D01*
D02*
G37*
G36*
X-304615Y150905D02*
X-315385D01*
X-325789Y148118D01*
X-335117Y142733D01*
X-342733Y135117D01*
X-348118Y125789D01*
X-350906Y115385D01*
Y104615D01*
X-348118Y94211D01*
X-342733Y84883D01*
X-335117Y77267D01*
X-325789Y71882D01*
X-315385Y69094D01*
X-304615D01*
X-294211Y71882D01*
X-284883Y77267D01*
X-277267Y84883D01*
X-271882Y94211D01*
X-269094Y104615D01*
Y115385D01*
X-271882Y125789D01*
X-277267Y135117D01*
X-284883Y142733D01*
X-294211Y148118D01*
X-304615Y150905D01*
D02*
G37*
G36*
X5463Y41496D02*
X-5463D01*
X-16017Y38668D01*
X-25479Y33205D01*
X-33205Y25479D01*
X-38668Y16017D01*
X-41496Y5463D01*
Y-5463D01*
X-38668Y-16017D01*
X-33205Y-25479D01*
X-25479Y-33205D01*
X-16017Y-38668D01*
X-5463Y-41496D01*
X5463D01*
X16017Y-38668D01*
X25479Y-33205D01*
X33205Y-25479D01*
X38668Y-16017D01*
X41496Y-5463D01*
Y5463D01*
X38668Y16017D01*
X33205Y25479D01*
X25479Y33205D01*
X16017Y38668D01*
X5463Y41496D01*
D02*
G37*
G36*
X-94537D02*
X-105463D01*
X-116017Y38668D01*
X-125479Y33205D01*
X-133205Y25479D01*
X-138668Y16017D01*
X-141496Y5463D01*
Y-5463D01*
X-138668Y-16017D01*
X-133205Y-25479D01*
X-125479Y-33205D01*
X-116017Y-38668D01*
X-105463Y-41496D01*
X-94537D01*
X-83983Y-38668D01*
X-74521Y-33205D01*
X-66795Y-25479D01*
X-61332Y-16017D01*
X-58504Y-5463D01*
Y5463D01*
X-61332Y16017D01*
X-66795Y25479D01*
X-74521Y33205D01*
X-83983Y38668D01*
X-94537Y41496D01*
D02*
G37*
G36*
X-194537D02*
X-205463D01*
X-216017Y38668D01*
X-225479Y33205D01*
X-233205Y25479D01*
X-238668Y16017D01*
X-241496Y5463D01*
Y-5463D01*
X-238668Y-16017D01*
X-233205Y-25479D01*
X-225479Y-33205D01*
X-216017Y-38668D01*
X-205463Y-41496D01*
X-194537D01*
X-183983Y-38668D01*
X-174521Y-33205D01*
X-166795Y-25479D01*
X-161332Y-16017D01*
X-158504Y-5463D01*
Y5463D01*
X-161332Y16017D01*
X-166795Y25479D01*
X-174521Y33205D01*
X-183983Y38668D01*
X-194537Y41496D01*
D02*
G37*
G36*
X-294537D02*
X-305463D01*
X-316017Y38668D01*
X-325479Y33205D01*
X-333205Y25479D01*
X-338668Y16017D01*
X-341496Y5463D01*
Y-5463D01*
X-338668Y-16017D01*
X-333205Y-25479D01*
X-325479Y-33205D01*
X-316017Y-38668D01*
X-305463Y-41496D01*
X-294537D01*
X-283983Y-38668D01*
X-274521Y-33205D01*
X-266795Y-25479D01*
X-261332Y-16017D01*
X-258504Y-5463D01*
Y5463D01*
X-261332Y16017D01*
X-266795Y25479D01*
X-274521Y33205D01*
X-283983Y38668D01*
X-294537Y41496D01*
D02*
G37*
G36*
X-394537D02*
X-405463D01*
X-416017Y38668D01*
X-425479Y33205D01*
X-433205Y25479D01*
X-438668Y16017D01*
X-441496Y5463D01*
Y-5463D01*
X-438668Y-16017D01*
X-433205Y-25479D01*
X-425479Y-33205D01*
X-416017Y-38668D01*
X-405463Y-41496D01*
X-394537D01*
X-383983Y-38668D01*
X-374521Y-33205D01*
X-366795Y-25479D01*
X-361332Y-16017D01*
X-358504Y-5463D01*
Y5463D01*
X-361332Y16017D01*
X-366795Y25479D01*
X-374521Y33205D01*
X-383983Y38668D01*
X-394537Y41496D01*
D02*
G37*
G36*
X-494537D02*
X-505463D01*
X-516017Y38668D01*
X-525479Y33205D01*
X-533205Y25479D01*
X-538668Y16017D01*
X-541496Y5463D01*
Y-5463D01*
X-538668Y-16017D01*
X-533205Y-25479D01*
X-525479Y-33205D01*
X-516017Y-38668D01*
X-505463Y-41496D01*
X-494537D01*
X-483983Y-38668D01*
X-474521Y-33205D01*
X-466795Y-25479D01*
X-461332Y-16017D01*
X-458504Y-5463D01*
Y5463D01*
X-461332Y16017D01*
X-466795Y25479D01*
X-474521Y33205D01*
X-483983Y38668D01*
X-494537Y41496D01*
D02*
G37*
G36*
X-694537D02*
X-705463D01*
X-716017Y38668D01*
X-725479Y33205D01*
X-733205Y25479D01*
X-738668Y16017D01*
X-741496Y5463D01*
Y-5463D01*
X-738668Y-16017D01*
X-733205Y-25479D01*
X-725479Y-33205D01*
X-716017Y-38668D01*
X-705463Y-41496D01*
X-694537D01*
X-683983Y-38668D01*
X-674521Y-33205D01*
X-666795Y-25479D01*
X-661332Y-16017D01*
X-658504Y-5463D01*
Y5463D01*
X-661332Y16017D01*
X-666795Y25479D01*
X-674521Y33205D01*
X-683983Y38668D01*
X-694537Y41496D01*
D02*
G37*
G36*
X-994537D02*
X-1005463D01*
X-1016017Y38668D01*
X-1025479Y33205D01*
X-1033205Y25479D01*
X-1038668Y16017D01*
X-1041496Y5463D01*
Y-5463D01*
X-1038668Y-16017D01*
X-1033205Y-25479D01*
X-1025479Y-33205D01*
X-1016017Y-38668D01*
X-1005463Y-41496D01*
X-994537D01*
X-983983Y-38668D01*
X-974521Y-33205D01*
X-966795Y-25479D01*
X-961332Y-16017D01*
X-958504Y-5463D01*
Y5463D01*
X-961332Y16017D01*
X-966795Y25479D01*
X-974521Y33205D01*
X-983983Y38668D01*
X-994537Y41496D01*
D02*
G37*
G36*
X-1094537D02*
X-1105463D01*
X-1116017Y38668D01*
X-1125479Y33205D01*
X-1133205Y25479D01*
X-1138668Y16017D01*
X-1141496Y5463D01*
Y-5463D01*
X-1138668Y-16017D01*
X-1133205Y-25479D01*
X-1125479Y-33205D01*
X-1116017Y-38668D01*
X-1105463Y-41496D01*
X-1094537D01*
X-1083983Y-38668D01*
X-1074521Y-33205D01*
X-1066795Y-25479D01*
X-1061332Y-16017D01*
X-1058504Y-5463D01*
Y5463D01*
X-1061332Y16017D01*
X-1066795Y25479D01*
X-1074521Y33205D01*
X-1083983Y38668D01*
X-1094537Y41496D01*
D02*
G37*
G36*
X-1194537D02*
X-1205463D01*
X-1216017Y38668D01*
X-1225479Y33205D01*
X-1233205Y25479D01*
X-1238668Y16017D01*
X-1241496Y5463D01*
Y-5463D01*
X-1238668Y-16017D01*
X-1233205Y-25479D01*
X-1225479Y-33205D01*
X-1216017Y-38668D01*
X-1205463Y-41496D01*
X-1194537D01*
X-1183983Y-38668D01*
X-1174521Y-33205D01*
X-1166795Y-25479D01*
X-1161332Y-16017D01*
X-1158504Y-5463D01*
Y5463D01*
X-1161332Y16017D01*
X-1166795Y25479D01*
X-1174521Y33205D01*
X-1183983Y38668D01*
X-1194537Y41496D01*
D02*
G37*
%LPD*%
D111*
X-1230787Y465239D02*
D03*
X-1194761Y429213D02*
D03*
X-1280000Y478425D02*
D03*
X-1329213Y465239D02*
D03*
X-1365239Y429213D02*
D03*
X-1378425Y380000D02*
D03*
X-1365239Y330787D02*
D03*
X-1329213Y294761D02*
D03*
X-1280000Y281575D02*
D03*
X-1230787Y294761D02*
D03*
X-1194761Y330787D02*
D03*
X-1181575Y380000D02*
D03*
X-3251575Y1400000D02*
D03*
X-3264761Y1350787D02*
D03*
X-3300787Y1314761D02*
D03*
X-3350000Y1301575D02*
D03*
X-3399213Y1314761D02*
D03*
X-3435239Y1350787D02*
D03*
X-3448425Y1400000D02*
D03*
X-3435239Y1449213D02*
D03*
X-3399213Y1485239D02*
D03*
X-3350000Y1498425D02*
D03*
X-3264761Y1449213D02*
D03*
X-3300787Y1485239D02*
D03*
X-2900787Y1885239D02*
D03*
X-2864761Y1849213D02*
D03*
X-2950000Y1898425D02*
D03*
X-2999213Y1885239D02*
D03*
X-3035239Y1849213D02*
D03*
X-3048425Y1800000D02*
D03*
X-3035239Y1750787D02*
D03*
X-2999213Y1714761D02*
D03*
X-2950000Y1701575D02*
D03*
X-2900787Y1714761D02*
D03*
X-2864761Y1750787D02*
D03*
X-2851575Y1800000D02*
D03*
X-1661575Y600000D02*
D03*
X-1674761Y550787D02*
D03*
X-1710787Y514761D02*
D03*
X-1760000Y501575D02*
D03*
X-1809213Y514761D02*
D03*
X-1845239Y550787D02*
D03*
X-1858425Y600000D02*
D03*
X-1845239Y649213D02*
D03*
X-1809213Y685239D02*
D03*
X-1760000Y698425D02*
D03*
X-1674761Y649213D02*
D03*
X-1710787Y685239D02*
D03*
X-1661575Y1400000D02*
D03*
X-1674761Y1350787D02*
D03*
X-1710787Y1314761D02*
D03*
X-1760000Y1301575D02*
D03*
X-1809213Y1314761D02*
D03*
X-1845239Y1350787D02*
D03*
X-1858425Y1400000D02*
D03*
X-1845239Y1449213D02*
D03*
X-1809213Y1485239D02*
D03*
X-1760000Y1498425D02*
D03*
X-1674761Y1449213D02*
D03*
X-1710787Y1485239D02*
D03*
X249213Y635239D02*
D03*
X285239Y599213D02*
D03*
X200000Y648425D02*
D03*
X150787Y635239D02*
D03*
X114761Y599213D02*
D03*
X101575Y550000D02*
D03*
X114761Y500787D02*
D03*
X150787Y464761D02*
D03*
X200000Y451575D02*
D03*
X249213Y464761D02*
D03*
X285239Y500787D02*
D03*
X298425Y550000D02*
D03*
X249213Y1435239D02*
D03*
X285239Y1399213D02*
D03*
X200000Y1448425D02*
D03*
X150787Y1435239D02*
D03*
X114761Y1399213D02*
D03*
X101575Y1350000D02*
D03*
X114761Y1300787D02*
D03*
X150787Y1264761D02*
D03*
X200000Y1251575D02*
D03*
X249213Y1264761D02*
D03*
X285239Y1300787D02*
D03*
X298425Y1350000D02*
D03*
X-3375984Y1069491D02*
D03*
X-3339958Y1033465D02*
D03*
X-3425197Y1082677D02*
D03*
X-3474410Y1069491D02*
D03*
X-3510436Y1033465D02*
D03*
X-3523622Y984252D02*
D03*
X-3510436Y935039D02*
D03*
X-3474410Y899013D02*
D03*
X-3425197Y885827D02*
D03*
X-3375984Y899013D02*
D03*
X-3339958Y935039D02*
D03*
X-3326772Y984252D02*
D03*
X-3375984Y163979D02*
D03*
X-3339958Y127953D02*
D03*
X-3425197Y177165D02*
D03*
X-3474410Y163979D02*
D03*
X-3510436Y127953D02*
D03*
X-3523622Y78740D02*
D03*
X-3510436Y29528D02*
D03*
X-3474410Y-6498D02*
D03*
X-3425197Y-19685D02*
D03*
X-3375984Y-6498D02*
D03*
X-3339958Y29528D02*
D03*
X-3326772Y78740D02*
D03*
X-891039Y1151184D02*
D03*
X-890043Y1184791D02*
D03*
X-890830Y1218404D02*
D03*
X-550000Y490000D02*
D03*
X-515000Y555000D02*
D03*
X-675000Y665000D02*
D03*
X250000Y1750000D02*
D03*
Y1550000D02*
D03*
Y1150000D02*
D03*
Y950000D02*
D03*
Y750000D02*
D03*
Y350000D02*
D03*
Y150000D02*
D03*
X150000Y1550000D02*
D03*
Y1150000D02*
D03*
Y750000D02*
D03*
Y350000D02*
D03*
X0Y1650000D02*
D03*
X50000Y1550000D02*
D03*
X0Y1450000D02*
D03*
X50000Y1350000D02*
D03*
X-50000Y1550000D02*
D03*
X-100000Y1450000D02*
D03*
Y1250000D02*
D03*
Y850000D02*
D03*
X-150000Y1550000D02*
D03*
X-200000Y1450000D02*
D03*
X-150000Y1350000D02*
D03*
X-200000Y850000D02*
D03*
X-250000Y1550000D02*
D03*
X-300000Y1050000D02*
D03*
X-250000Y950000D02*
D03*
X-300000Y850000D02*
D03*
X-350000Y1750000D02*
D03*
X-400000Y1650000D02*
D03*
Y1250000D02*
D03*
X-350000Y950000D02*
D03*
X-400000Y850000D02*
D03*
X-450000Y1750000D02*
D03*
X-500000Y1650000D02*
D03*
Y1450000D02*
D03*
X-550000Y1750000D02*
D03*
X-600000Y1650000D02*
D03*
X-550000Y1550000D02*
D03*
X-600000Y1450000D02*
D03*
X-550000Y1350000D02*
D03*
X-650000Y1750000D02*
D03*
X-700000Y1650000D02*
D03*
X-650000Y1550000D02*
D03*
X-700000Y850000D02*
D03*
Y250000D02*
D03*
X-800000Y1850000D02*
D03*
X-750000Y1750000D02*
D03*
X-800000Y1650000D02*
D03*
X-750000Y1550000D02*
D03*
X-800000Y1450000D02*
D03*
Y1250000D02*
D03*
Y250000D02*
D03*
X-900000Y1850000D02*
D03*
X-850000Y1750000D02*
D03*
X-900000Y1650000D02*
D03*
X-850000Y1550000D02*
D03*
Y1350000D02*
D03*
X-1000000Y1850000D02*
D03*
X-950000Y1750000D02*
D03*
X-1000000Y1650000D02*
D03*
Y1050000D02*
D03*
X-950000Y950000D02*
D03*
X-1000000Y850000D02*
D03*
X-1100000Y1850000D02*
D03*
X-1050000Y1750000D02*
D03*
X-1100000Y1650000D02*
D03*
Y1450000D02*
D03*
Y1050000D02*
D03*
Y450000D02*
D03*
X-1200000Y1850000D02*
D03*
X-1150000Y1750000D02*
D03*
X-1200000Y1650000D02*
D03*
X-1150000Y1550000D02*
D03*
X-1200000Y1050000D02*
D03*
X-1150000Y550000D02*
D03*
X-1200000Y250000D02*
D03*
X-1250000Y1750000D02*
D03*
X-1300000Y1650000D02*
D03*
X-1250000Y1550000D02*
D03*
Y550000D02*
D03*
X-1350000Y1750000D02*
D03*
X-1400000Y1650000D02*
D03*
X-1350000Y1550000D02*
D03*
X-1400000Y1450000D02*
D03*
X-1350000Y550000D02*
D03*
X-1400000Y250000D02*
D03*
X-1450000Y1750000D02*
D03*
X-1500000Y1650000D02*
D03*
X-1450000Y1550000D02*
D03*
Y950000D02*
D03*
X-1500000Y450000D02*
D03*
X-1450000Y350000D02*
D03*
X-1500000Y250000D02*
D03*
X-1550000Y1750000D02*
D03*
X-1600000Y1650000D02*
D03*
X-1550000Y1550000D02*
D03*
X-1600000Y650000D02*
D03*
Y450000D02*
D03*
X-1550000Y350000D02*
D03*
X-1600000Y250000D02*
D03*
X-1650000Y1750000D02*
D03*
X-1700000Y1650000D02*
D03*
X-1650000Y1550000D02*
D03*
X-1700000Y1250000D02*
D03*
X-1650000Y750000D02*
D03*
X-1700000Y450000D02*
D03*
X-1650000Y350000D02*
D03*
X-1700000Y250000D02*
D03*
X-1750000Y1750000D02*
D03*
X-1800000Y1650000D02*
D03*
X-1750000Y1550000D02*
D03*
X-1800000Y1250000D02*
D03*
X-1750000Y1150000D02*
D03*
Y750000D02*
D03*
X-1800000Y450000D02*
D03*
X-1750000Y350000D02*
D03*
X-1900000Y1650000D02*
D03*
X-1850000Y1550000D02*
D03*
X-1900000Y1450000D02*
D03*
Y1250000D02*
D03*
X-1850000Y1150000D02*
D03*
X-1900000Y1050000D02*
D03*
X-1850000Y950000D02*
D03*
X-1900000Y850000D02*
D03*
X-1850000Y750000D02*
D03*
X-1900000Y650000D02*
D03*
Y450000D02*
D03*
Y50000D02*
D03*
X-1950000Y1750000D02*
D03*
X-2000000Y1650000D02*
D03*
Y1450000D02*
D03*
Y1250000D02*
D03*
Y1050000D02*
D03*
Y850000D02*
D03*
Y450000D02*
D03*
X-2100000Y1850000D02*
D03*
X-2050000Y1550000D02*
D03*
Y1350000D02*
D03*
X-2100000Y450000D02*
D03*
Y250000D02*
D03*
X-2200000Y1850000D02*
D03*
X-2150000Y1750000D02*
D03*
X-2200000Y1650000D02*
D03*
X-2150000Y1550000D02*
D03*
X-2200000Y1450000D02*
D03*
X-2150000Y1350000D02*
D03*
X-2200000Y1250000D02*
D03*
X-2150000Y1150000D02*
D03*
X-2200000Y1050000D02*
D03*
Y250000D02*
D03*
X-2300000Y1850000D02*
D03*
X-2250000Y1750000D02*
D03*
X-2300000Y1650000D02*
D03*
X-2250000Y1550000D02*
D03*
X-2300000Y1450000D02*
D03*
X-2250000Y1350000D02*
D03*
X-2300000Y1250000D02*
D03*
X-2250000Y1150000D02*
D03*
X-2300000Y1050000D02*
D03*
Y850000D02*
D03*
Y450000D02*
D03*
X-2250000Y150000D02*
D03*
X-2400000Y1850000D02*
D03*
X-2350000Y1750000D02*
D03*
X-2400000Y1650000D02*
D03*
X-2350000Y1550000D02*
D03*
X-2400000Y1450000D02*
D03*
X-2350000Y1350000D02*
D03*
X-2400000Y1250000D02*
D03*
X-2350000Y1150000D02*
D03*
X-2400000Y1050000D02*
D03*
Y850000D02*
D03*
X-2350000Y350000D02*
D03*
X-2400000Y250000D02*
D03*
Y50000D02*
D03*
X-2500000Y1850000D02*
D03*
X-2450000Y1750000D02*
D03*
X-2500000Y1650000D02*
D03*
X-2450000Y1550000D02*
D03*
X-2500000Y1450000D02*
D03*
X-2450000Y1350000D02*
D03*
X-2500000Y1250000D02*
D03*
X-2450000Y1150000D02*
D03*
X-2500000Y1050000D02*
D03*
Y850000D02*
D03*
X-2450000Y550000D02*
D03*
X-2500000Y250000D02*
D03*
X-2450000Y150000D02*
D03*
X-2500000Y50000D02*
D03*
X-2600000Y1850000D02*
D03*
X-2550000Y1750000D02*
D03*
X-2600000Y1650000D02*
D03*
X-2550000Y1550000D02*
D03*
X-2600000Y1450000D02*
D03*
X-2550000Y1350000D02*
D03*
X-2600000Y1250000D02*
D03*
X-2550000Y1150000D02*
D03*
X-2600000Y1050000D02*
D03*
X-2550000Y950000D02*
D03*
X-2600000Y850000D02*
D03*
X-2550000Y750000D02*
D03*
X-2600000Y650000D02*
D03*
Y450000D02*
D03*
X-2550000Y350000D02*
D03*
X-2600000Y250000D02*
D03*
X-2550000Y150000D02*
D03*
X-2600000Y50000D02*
D03*
X-2650000Y1150000D02*
D03*
X-2700000Y1050000D02*
D03*
X-2650000Y950000D02*
D03*
X-2700000Y850000D02*
D03*
X-2650000Y750000D02*
D03*
X-2700000Y650000D02*
D03*
Y450000D02*
D03*
X-2650000Y350000D02*
D03*
X-2700000Y250000D02*
D03*
X-2650000Y150000D02*
D03*
X-2700000Y50000D02*
D03*
X-2800000Y1050000D02*
D03*
X-2750000Y950000D02*
D03*
X-2800000Y850000D02*
D03*
X-2750000Y750000D02*
D03*
X-2800000Y650000D02*
D03*
X-2750000Y550000D02*
D03*
X-2800000Y250000D02*
D03*
X-2750000Y150000D02*
D03*
X-2800000Y50000D02*
D03*
X-2900000Y1050000D02*
D03*
X-2850000Y950000D02*
D03*
X-2900000Y850000D02*
D03*
X-2850000Y750000D02*
D03*
X-2900000Y650000D02*
D03*
X-2850000Y550000D02*
D03*
X-2900000Y450000D02*
D03*
Y250000D02*
D03*
X-2850000Y150000D02*
D03*
X-2900000Y50000D02*
D03*
X-3000000Y1050000D02*
D03*
X-2950000Y950000D02*
D03*
X-3000000Y850000D02*
D03*
X-2950000Y750000D02*
D03*
X-3000000Y650000D02*
D03*
X-2950000Y550000D02*
D03*
X-3000000Y250000D02*
D03*
X-2950000Y150000D02*
D03*
X-3000000Y50000D02*
D03*
X-3100000Y1050000D02*
D03*
X-3050000Y950000D02*
D03*
X-3100000Y850000D02*
D03*
X-3050000Y750000D02*
D03*
X-3100000Y650000D02*
D03*
X-3050000Y550000D02*
D03*
X-3100000Y250000D02*
D03*
X-3050000Y150000D02*
D03*
X-3100000Y50000D02*
D03*
X-3200000Y1050000D02*
D03*
X-3150000Y950000D02*
D03*
X-3200000Y850000D02*
D03*
X-3150000Y750000D02*
D03*
Y550000D02*
D03*
Y350000D02*
D03*
X-3200000Y250000D02*
D03*
X-3150000Y150000D02*
D03*
X-3200000Y50000D02*
D03*
X-3250000Y950000D02*
D03*
X-3300000Y850000D02*
D03*
X-3250000Y750000D02*
D03*
Y350000D02*
D03*
X-3300000Y250000D02*
D03*
X-3250000Y150000D02*
D03*
X-3400000Y250000D02*
D03*
X-3500000Y850000D02*
D03*
Y650000D02*
D03*
Y450000D02*
D03*
Y250000D02*
D03*
X-950000Y380000D02*
D03*
X-1060000Y300000D02*
D03*
X-1070000Y380000D02*
D03*
X-1990000Y740000D02*
D03*
Y700000D02*
D03*
X-2030000D02*
D03*
X-2220000Y470000D02*
D03*
X-2230000Y560000D02*
D03*
X-2200000Y590000D02*
D03*
X-900000Y1530000D02*
D03*
X-1060000D02*
D03*
X-1410000Y1420000D02*
D03*
X-1570000D02*
D03*
X-1330000D02*
D03*
X-1170000D02*
D03*
X-1560000Y640000D02*
D03*
X-420000Y590000D02*
D03*
X-130000Y1000000D02*
D03*
X-600000Y1210000D02*
D03*
X-720000D02*
D03*
X-660000D02*
D03*
X-680000Y1460000D02*
D03*
X-570000Y1400000D02*
D03*
X-2000000Y50000D02*
D03*
X-2120000D02*
D03*
X-2240000D02*
D03*
X-2360000D02*
D03*
X-2240000Y320000D02*
D03*
X-1220000Y690000D02*
D03*
X-470000Y270000D02*
D03*
X-460000Y1550000D02*
D03*
X-1080000Y1310000D02*
D03*
X-40000Y1650000D02*
D03*
X-1400000Y1310000D02*
D03*
X-1290000Y1130000D02*
D03*
X-910000Y590000D02*
D03*
X-750000Y770000D02*
D03*
X-720000Y750000D02*
D03*
X-680000D02*
D03*
X-465000Y865000D02*
D03*
Y815000D02*
D03*
X-425000Y865000D02*
D03*
X-465000Y840000D02*
D03*
X-410697Y816115D02*
D03*
X-377075D02*
D03*
X-343453D02*
D03*
X-309831D02*
D03*
X-276209D02*
D03*
X-242587D02*
D03*
X-208965D02*
D03*
X-175343D02*
D03*
X-141722Y815863D02*
D03*
X-76208Y606339D02*
D03*
Y572717D02*
D03*
X-78754Y539191D02*
D03*
X-105153Y477811D02*
D03*
X-156298Y434818D02*
D03*
X-187800Y423069D02*
D03*
X-221150Y418799D02*
D03*
X-254772Y418767D02*
D03*
X-288374Y417602D02*
D03*
X-321970Y418909D02*
D03*
X-352935Y432009D02*
D03*
X-375140Y457256D02*
D03*
X-384463Y489559D02*
D03*
X-475000Y560000D02*
D03*
X-1393956Y868792D02*
D03*
X-1350000Y870000D02*
D03*
X-1341453Y692165D02*
D03*
X-1374137Y684280D02*
D03*
X-1564674Y667303D02*
D03*
X-1565863Y700904D02*
D03*
X-1564505Y734499D02*
D03*
X-1555889Y766998D02*
D03*
X-1544608Y798671D02*
D03*
X-1525511Y826343D02*
D03*
X-1499901Y848128D02*
D03*
X-1469525Y862540D02*
D03*
X-1436429Y868465D02*
D03*
X-1203956Y868792D02*
D03*
X-1170334D02*
D03*
X-1137075Y863869D02*
D03*
X-1107786Y847358D02*
D03*
X-1315742Y691208D02*
D03*
X-1308861Y868792D02*
D03*
X-1275242Y869170D02*
D03*
X-1241622Y868792D02*
D03*
X-735595Y667278D02*
D03*
X-950994Y621208D02*
D03*
X-984580Y622759D02*
D03*
X-987212Y796982D02*
D03*
X-1020000Y620000D02*
D03*
X-1050000D02*
D03*
X-1080000Y830000D02*
D03*
X-1050000Y810000D02*
D03*
X-1020000Y800000D02*
D03*
X-950000D02*
D03*
X-1560000Y610000D02*
D03*
X-1550000Y570000D02*
D03*
X-1383774Y653774D02*
D03*
Y606226D02*
D03*
X-790000Y420000D02*
D03*
X-670000Y380000D02*
D03*
X-710000D02*
D03*
X-780000Y390000D02*
D03*
X-630000Y460000D02*
D03*
X-600000Y470000D02*
D03*
X-570000D02*
D03*
X-440000Y815000D02*
D03*
X-1471024Y1090000D02*
D03*
X-1522958Y895741D02*
D03*
X-1529442Y862750D02*
D03*
X-1561606Y852958D02*
D03*
X-1595228D02*
D03*
X-1628850D02*
D03*
X-1644500Y823200D02*
D03*
X-1744549Y812958D02*
D03*
X-1787042Y1053606D02*
D03*
X-1780995Y1086680D02*
D03*
X-1749010Y1097042D02*
D03*
X-1715388D02*
D03*
X-1681766D02*
D03*
X-1469371Y974281D02*
D03*
X-1479090Y942094D02*
D03*
X-1497772Y914140D02*
D03*
X-1669821Y1122487D02*
D03*
X-1669220Y1156104D02*
D03*
X-1665000Y1190000D02*
D03*
Y1225000D02*
D03*
X-1651332Y1255000D02*
D03*
X-1630000Y1280000D02*
D03*
X-1575000Y1300000D02*
D03*
X-1336332Y1310000D02*
D03*
X-1366332D02*
D03*
X-1165000Y1305000D02*
D03*
X-1136332Y1275000D02*
D03*
X-884398Y1443277D02*
D03*
X-884137Y1409656D02*
D03*
X-888077Y1376266D02*
D03*
X-891208Y1342790D02*
D03*
X-891290Y1309168D02*
D03*
X-895020Y1275753D02*
D03*
X-1069170Y1359825D02*
D03*
X-1075233Y1392896D02*
D03*
X-1075863Y1426512D02*
D03*
X-1071332Y1460000D02*
D03*
Y1500000D02*
D03*
X-886332D02*
D03*
Y1470000D02*
D03*
X-1035000Y1565000D02*
D03*
X-926332D02*
D03*
X-956332Y1585000D02*
D03*
X-996332D02*
D03*
X-1573668Y1350000D02*
D03*
Y1390000D02*
D03*
X-1550000Y1450000D02*
D03*
X-1430000D02*
D03*
X-1460000Y1470000D02*
D03*
X-1520000D02*
D03*
X-1490000Y1480000D02*
D03*
X-1406332Y1390000D02*
D03*
Y1350000D02*
D03*
X-1333668Y1390000D02*
D03*
Y1350000D02*
D03*
X-1166332Y1390000D02*
D03*
Y1350000D02*
D03*
X-1310000Y1450000D02*
D03*
X-1190000D02*
D03*
X-1220000Y1470000D02*
D03*
X-1280000D02*
D03*
X-1250000Y1480000D02*
D03*
X-1260000Y1110000D02*
D03*
X-1220000Y1090000D02*
D03*
X-1180000D02*
D03*
X-1140000D02*
D03*
X-1100000D02*
D03*
X-1060000D02*
D03*
X-1020000D02*
D03*
X-980000D02*
D03*
X-940000Y1100000D02*
D03*
X-910000Y1120000D02*
D03*
X-890000Y1250000D02*
D03*
X-935000Y830000D02*
D03*
X-785000Y790000D02*
D03*
Y830000D02*
D03*
X-810000Y860000D02*
D03*
X-920000D02*
D03*
X-880000D02*
D03*
X-850000D02*
D03*
X-588839Y442307D02*
D03*
X-815301Y441208D02*
D03*
X-848409Y447066D02*
D03*
X-897100Y491653D02*
D03*
X-905620Y524178D02*
D03*
X-909170Y557612D02*
D03*
X-1210000Y660000D02*
D03*
X-1370000Y1050000D02*
D03*
X-1330000D02*
D03*
X-1290000D02*
D03*
X-1715000Y815000D02*
D03*
X-1680000D02*
D03*
X-110000Y800000D02*
D03*
X-80000D02*
D03*
X-50000D02*
D03*
X-75000Y640000D02*
D03*
X-40000D02*
D03*
X-20000Y800000D02*
D03*
X-15000Y665000D02*
D03*
Y770000D02*
D03*
Y700000D02*
D03*
Y735000D02*
D03*
X-475000Y520000D02*
D03*
X-1070000Y420000D02*
D03*
X-950000D02*
D03*
X-1090000Y630000D02*
D03*
X-128285Y453412D02*
D03*
X-91243Y509379D02*
D03*
X-750000Y380000D02*
D03*
X-630000Y420000D02*
D03*
X-540000Y290000D02*
D03*
X-640000Y390000D02*
D03*
X-877065Y464652D02*
D03*
X-1520000Y550000D02*
D03*
X-1450000Y530000D02*
D03*
X-1490000D02*
D03*
X-1420000Y550000D02*
D03*
X-1390000Y570000D02*
D03*
X-1130000Y640000D02*
D03*
X-960000Y220000D02*
D03*
X-690000Y910000D02*
D03*
X-1120000Y300000D02*
D03*
X-1110000Y240000D02*
D03*
X-960000Y260000D02*
D03*
X-405000Y895000D02*
D03*
Y925000D02*
D03*
X-390000Y960000D02*
D03*
X-385000Y995000D02*
D03*
X-395000Y1035000D02*
D03*
X-559449Y1073668D02*
D03*
X-635000Y745000D02*
D03*
Y775000D02*
D03*
Y805000D02*
D03*
Y835000D02*
D03*
Y865000D02*
D03*
Y895000D02*
D03*
X-665000Y905000D02*
D03*
X-1800000Y935000D02*
D03*
X-1784539Y850984D02*
D03*
X-3220000Y570000D02*
D03*
Y670000D02*
D03*
X-3330000Y810000D02*
D03*
X-1390000Y1070000D02*
D03*
X-1469658Y1007902D02*
D03*
D112*
X-1280000Y380000D02*
D03*
X-3350000Y1400000D02*
D03*
X-2950000Y1800000D02*
D03*
X-1760000Y600000D02*
D03*
Y1400000D02*
D03*
X200000Y550000D02*
D03*
Y1350000D02*
D03*
X-3425197Y984252D02*
D03*
Y78740D02*
D03*
D117*
X-1460000Y1900000D02*
D03*
X-1950000Y1100000D02*
D03*
X-900000Y0D02*
D03*
X-800000D02*
D03*
X-1950000Y1700000D02*
D03*
D118*
X-3150000Y1639370D02*
D03*
D121*
X150000Y51575D02*
D03*
Y851575D02*
D03*
Y1651575D02*
D03*
M02*
