M48
;Layer_Color=9474304
;FILE_FORMAT=2:4
INCH,TZ
;TYPE=PLATED
T01F00S00C0.0118
T02F00S00C0.0287
T03F00S00C0.0315
T04F00S00C0.0335
T05F00S00C0.0350
T06F00S00C0.0394
T07F00S00C0.0400
T08F00S00C0.0433
T09F00S00C0.1260
%
T01
X-8000Y2500
X-7000
X-6400Y1800
Y1400
Y1000
X-5600Y1500
X-5100
Y2100
X-5600
X-5400Y2900
X-4700Y2700
X-5100Y4000
Y4400
Y4800
X-5500Y4900
X-5700Y4700
X-6000
X-5888Y4423
X-6300Y4600
Y4200
X-6400Y3900
X-6700Y3800
X-7100
X-7500
X-7800Y3900
X-7900Y4200
X-8153Y4412
X-8484Y4471
X-8771Y4647
X-8971Y4917
X-9056Y5242
X-9092Y5576
X-9100Y5900
X-7356Y6673
X-6750Y6650
X-6800Y7500
X-7200
X-7500Y7700
X-7850Y7900
Y8300
X-8100Y8600
X-8500
X-8800
X-7000Y8500
X-6900Y9100
X-6650Y9050
X-6350Y8950
Y8650
Y8350
Y8050
Y7750
Y7450
X-4650Y8150
Y8400
Y8650
X-4250
X-4000Y8500
X-4107Y8161
X-4400Y8150
X-3771Y8161
X-3435
X-3098
X-2762
X-2426
X-2090
X-1753
X-1417Y8159
X-1100Y8000
X-800
X-500
X-200
X-150Y7700
Y7350
Y7000
Y6650
X-400Y6400
X-750
X-762Y6063
Y5727
X-788Y5392
X-912Y5094
X-1052Y4778
X-1283Y4534
X-1563Y4348
X-1878Y4231
X-2211Y4188
X-2548Y4188
X-2884Y4176
X-3220Y4189
X-3529Y4320
X-3751Y4573
X-3845Y4896
X-4750Y5200
Y5600
X-5150Y5550
X-4200Y5900
X-3288Y6266
X-3000Y8500
X-2000
X-1000
X-1600Y9500
X-1300Y10000
X-2500Y9500
X-3500
X-3900Y9600
X-3850Y9950
X-3950Y10350
X-3000Y10500
X-4050Y9250
Y8950
X-5594Y10737
X-6000Y11600
Y12100
X-6600
Y11600
X-7200
Y12100
X-8000Y12500
X-8900
X-8950Y12758
X-8913Y13092
X-8912Y13428
X-8500Y13500
X-8908Y12184
X-8900Y11848
X-8910Y11512
X-9100Y11200
X-5500Y13500
X-4000Y12500
X-1000
X-1500Y13500
X500
X1016
X1148Y13008
X1508Y12648
X2000Y12516
X2492Y12648
X2852Y13008
X2984Y13500
X2500Y11500
X1500
X2500Y9500
Y7500
X1500
X1508Y6352
X2000Y6484
X2492Y6352
X2852Y5992
X2984Y5500
X2852Y5008
X2492Y4648
X2000Y4516
X1508Y4648
X1148Y5008
X1016Y5500
X1148Y5992
X1500Y3500
X2500
Y1500
X-5800Y3400
X-9500Y3800
Y4200
X-10200
Y3800
Y3400
Y3000
X-10198Y2658
X-9600Y2600
Y2200
X-11100Y2400
X-11200Y3000
X-10600
X-10700Y3800
Y4200
X-11000Y4500
X-11948Y4292
X-11816Y3800
X-11948Y3308
X-12308Y2948
X-12800Y2816
X-13292Y2948
X-13652Y3308
X-13784Y3800
X-13652Y4292
X-13292Y4652
X-12800Y4784
X-12308Y4652
X-12500Y5500
X-11500
X-11200Y5900
X-11300Y6400
X-11700
X-12100Y6600
X-12200Y6900
X-13157Y6912
X-13415Y6922
X-13741Y6843
X-13838Y6538
Y6062
X-13900Y5700
X-14200Y5500
X-14500Y5300
X-14900
X-15200Y5500
X-15500Y5700
X-15600Y6100
Y6400
X-15647Y6673
X-15659Y7009
X-15645Y7345
X-15559Y7670
X-15446Y7987
X-15255Y8263
X-15294Y8627
X-15230Y8957
X-14978Y9141
X-14791Y9421
X-14500Y9500
X-14694Y9743
X-14697Y10079
X-14963Y10500
X-14710Y10900
X-13900Y10700
X-13700Y10500
X-13300
X-12900
Y10900
Y11300
X-12600Y11100
X-12200Y10900
X-11800
X-11400
X-11000
Y10500
X-10600Y10900
X-10200
X-9800
X-9400Y11000
X-10000Y10500
X-9500Y9500
X-9200Y8600
X-9350Y8300
X-9500Y8000
X-9872Y7970
X-10200Y8000
X-10500Y8100
X-10800Y8300
X-11078Y8474
X-11371Y8639
X-11703Y8688
X-12040
X-12416
X-12752Y8692
X-13089Y8688
X-13500Y8700
X-13940Y8688
X-14364Y8685
X-14695Y8625
X-14999Y8481
X-15616Y8530
X-15952
X-16288
X-16445Y8232
X-16800Y8150
X-17150
X-17445Y8130
X-17500Y7500
X-17600Y6984
X-18092Y6852
X-18452Y6492
X-19000Y6500
X-18584Y6000
X-18452Y5508
X-18092Y5148
X-17600Y5016
X-17108Y5148
X-16748Y5508
X-16616Y6000
X-16748Y6492
X-17108Y6852
X-16500Y7500
X-16000Y6500
Y4500
X-15000
X-14500Y3500
X-15500
X-16500
X-17500
X-17000Y4500
X-18000
X-19000
X-20000
X-21000
X-22200Y4700
X-23000Y4500
X-23500Y3500
X-22400Y3200
X-22000Y2500
X-21000
X-21500Y1900
X-20400
X-20000Y500
X-19000
X-21200
X-22400
X-22500Y1500
X-23000Y2100
X-24000Y2500
X-24500Y1500
X-24000Y500
X-23600
X-24500Y5500
X-24200Y7200
X-24600Y8000
X-24000Y8500
X-23000
Y10500
X-22000
X-21500Y11500
X-22500
X-23500
X-24500
X-24000Y12500
X-23000
X-22000
X-21500Y13500
X-20500
X-20000Y12500
X-19000
X-18000
X-18092Y13148
X-17600Y13016
X-17108Y13148
X-16748Y13508
X-15737Y13500
X-15750Y13000
X-16300Y12800
X-16513Y12550
X-16650Y12250
Y11900
X-16692Y11561
X-16698Y11225
X-16818Y10970
X-17154
X-17490
X-17810Y10867
X-17870Y10536
X-19000Y10500
X-20000
Y8500
X-19000
X-17845Y8510
X-18000Y9350
X-18500Y9500
Y11500
X-17500
X-17000Y12500
X-18452Y13508
X-22500Y13500
X-23500
X-24500
X-24000Y10500
X-22600Y6400
X-22300Y5600
X-22000Y5900
X-20300Y7000
X-19900
Y7400
X-18500Y7500
X-17000Y2500
X-16000
X-15000
X-14000
X-12000
X-13500Y5500
X-10900Y6300
X-10500Y6200
X-10200
X-9846Y6228
X-9510Y6212
X-10000Y8500
X-12000Y10500
X-11363Y12750
X-11650Y13050
X-11663Y13500
X-10692Y13598
X-10800Y13100
Y12700
X-13363Y13100
X-13663
X-14000
X-14063Y13500
X-13337
X-25500
X-25000Y12500
X-26000
X-25500Y11500
X-26500
X-26000Y10500
X-25000
X-25500Y9500
X-26500
X-27500
X-28500
X-29500
X-30500
X-31500
X-32500
X-33400Y9350
X-33268Y9843
X-33400Y10335
X-33760Y10695
X-34252Y10827
X-34744Y10695
X-35104Y10335
X-35236Y9843
X-35104Y9350
X-34744Y8990
X-34252Y8858
X-33760Y8990
X-33000Y8500
X-33300Y8100
X-32500Y7500
X-31500
X-30500
X-29500
X-28500
X-27500
X-26500
X-25500
X-25000Y8500
X-26000
X-27000
X-28000
X-29000
X-30000
X-31000
X-32000
Y10500
X-31000
X-30000
X-29000
X-28000
X-27000
Y6500
X-26000
Y4500
X-27000
X-26500Y3500
X-25500
X-25000Y2500
X-26000
X-27000
X-28000
X-29000
X-30000
X-31000
X-32000
X-33000
X-34000
X-34252Y1772
X-33760Y1640
X-33400Y1280
X-33268Y787
X-33400Y295
X-33760Y-65
X-34252Y-197
X-34744Y-65
X-35104Y295
X-35236Y787
X-35104Y1280
X-34744Y1640
X-35000Y2500
Y4500
Y6500
Y8500
X-32200Y6700
Y5700
X-31500Y5500
X-30500
X-29500
X-28500
X-27500
X-28000Y6500
X-29000
X-30000
X-31000
X-31800Y4800
X-31500Y3500
X-32500
Y1500
X-31500
X-30500
X-29500
X-28500
X-27500
X-26500
X-25500
X-25000Y500
X-26000
X-27000
X-28000
X-29000
X-30000
X-31000
X-32000
X-29000Y4500
X-32648Y13508
X-33008Y13148
X-33500Y13016
X-33992Y13148
X-34352Y13508
X-34484Y14000
X-34352Y14492
X-33992Y14852
X-33500Y14984
X-33008Y14852
X-32648Y14492
X-32516Y14000
X-30352Y17508
X-30484Y18000
X-30352Y18492
X-29992Y18852
X-29500Y18984
X-29008Y18852
X-28648Y18492
X-28516Y18000
X-28648Y17508
X-29008Y17148
X-29500Y17016
X-29992Y17148
X-26000Y16500
X-25000
X-25500Y17500
X-25000Y18500
X-26000
X-25500Y15500
X-25000Y14500
X-26000
X-24000
X-23000
X-22000
X-21500Y15500
X-20500
X-20000Y16500
X-19000
X-18000
X-17000
X-16000
X-15000
X-14000
X-13000
X-12000
X-11000
X-10000
X-9963Y15850
X-9563
X-9263Y15650
X-10350
X-10600Y15300
X-10713Y15000
Y14600
X-10759Y14265
X-10752Y13929
X-11000Y14500
X-11900
X-11700Y14200
X-11663Y13900
X-12200Y14700
X-12500Y14800
X-12800Y14700
X-13100Y14500
X-13300Y14200
X-13337Y13900
X-14063
X-14100Y14200
X-14000Y14500
X-14300
X-14600Y14700
X-14900Y14800
X-15200Y14700
X-15500Y14500
X-15700Y14200
X-15737Y13900
X-16616Y14000
X-16748Y14492
X-17108Y14852
X-17600Y14984
X-17500Y15500
X-16500
X-15500
X-14500
X-13500
X-12500
X-11500
Y17500
X-10500
X-9500
X-10000Y18500
X-11000
X-12000
X-12500Y17500
X-13500
X-14500
X-15500
X-16500
X-17500
X-19500
X-21500
X-22500
X-23500
X-24500
X-24000Y18500
X-23000
X-22000
X-21000
X-22000Y16500
X-23000
X-24000
X-23500Y15500
X-22500
X-24500
X-20000Y14500
X-19000
X-18452Y14492
X-18584Y14000
X-18092Y14852
X-18500Y15500
X-16400Y18800
X-9000Y18500
X-8000
X-7500Y17500
X-6500
X-5500
X-4500
X-3500
X-4000Y16500
X-5000
X-6000
X-7000
X-8000
X-9000
Y15300
X-8863Y15000
Y14700
X-8844Y14433
X-8841Y14097
X-8881Y13763
X-8000Y14500
X-6800Y14600
X-6000Y14500
X-5700Y14000
X-5000Y14500
X-4600Y15500
X-5500
X-6500
X-7500
X-8500
Y17500
X-2000Y16500
X-1500Y15500
X-500
X500
X1500
X2500
X2492Y14352
X2000Y14484
X1508Y14352
X1148Y13992
X0Y14500
X-1000
X-2000
X-2500Y15500
X-3300Y15100
X-400Y16500
X0
X2500Y17500
X2852Y13992
T02
X-7354Y9146
X-31106Y16000
X-31500Y16394
X-31894Y16000
T03
X-8187Y9917
X-7400
X-6613
X-15817Y9894
Y9106
T04
X-27896Y4800
X-24904
T05
X-35100Y5910
Y7090
T06
X1500Y516
Y1500
Y2484
Y8516
Y9500
Y10484
X-6800Y13100
X-7800
X-33300Y6700
Y5700
Y3700
X-34300
X1500Y16516
Y17500
Y18484
T07
X-3100Y1100
X-12600Y6300
X-13800Y9500
X-18000Y10000
Y8000
T08
X-9000Y0
X-8000
X-7000
X-5000
X-4000
X-3000
X-2000
X-1000
X0
X-200Y3700
Y4700
Y5700
Y11700
Y12700
Y13700
X-19500Y13000
Y12000
Y11000
Y10000
Y9000
Y8000
X-12000Y0
X-11000
X-10000
X-9600Y19000
X-10600
X-11600
X-12600
X-13600
X-14600
X-15600
X-19500Y17000
Y16000
Y15000
X-8600Y19000
X-7000
X-6000
X-5000
X-4000
X-3000
X-2000
X-1000
X-0
T09
X2000Y5500
Y13500
X-12800Y3800
X-17600Y6000
X-34252Y9843
Y787
X-33500Y14000
X-29500Y18000
X-17600Y14000
M30
