G04*
G04 #@! TF.GenerationSoftware,Altium Limited,Altium Designer,25.8.1 (18)*
G04*
G04 Layer_Physical_Order=4*
G04 Layer_Color=16711680*
%FSLAX26Y26*%
%MOIN*%
G70*
G04*
G04 #@! TF.SameCoordinates,3AB4B18C-38BA-446E-90AA-5604B7F899A8*
G04*
G04*
G04 #@! TF.FilePolarity,Positive*
G04*
G01*
G75*
%ADD14C,0.030000*%
%ADD17C,0.010000*%
%ADD46R,0.086614X0.041339*%
%ADD47R,0.041339X0.039370*%
%ADD101C,0.061811*%
%ADD103C,0.053150*%
%ADD106C,0.024724*%
%ADD107C,0.024743*%
%ADD110C,0.020000*%
%ADD111C,0.023622*%
%ADD112C,0.259842*%
%ADD113C,0.010000*%
%ADD114C,0.020000*%
%ADD115C,0.051496*%
%ADD116R,0.051496X0.051496*%
%ADD117C,0.062992*%
%ADD118C,0.044488*%
%ADD119P,0.028284X4X270.0*%
%ADD120C,0.050000*%
%ADD121O,0.118110X0.068898*%
%AMCUSTOMSHAPE122*
4,1,8,0.011122,0.022244,0.022244,0.011122,0.022244,-0.011122,0.011122,-0.022244,-0.011122,-0.022244,-0.022244,-0.011122,-0.022244,0.011122,-0.011122,0.022244,0.011122,0.022244,0.0*%
%ADD122CUSTOMSHAPE122*%

%ADD123R,0.051181X0.051181*%
%ADD124C,0.051181*%
G36*
X276565Y1953277D02*
X292493Y1948446D01*
X307173Y1940599D01*
X320040Y1930040D01*
X330599Y1917173D01*
X338446Y1902493D01*
X343277Y1886565D01*
X344842Y1870682D01*
X344706Y1870000D01*
Y30000D01*
X344842Y29318D01*
X343277Y13435D01*
X338446Y-2493D01*
X330599Y-17173D01*
X320040Y-30040D01*
X307173Y-40599D01*
X292493Y-48446D01*
X276565Y-53277D01*
X260682Y-54842D01*
X260000Y-54706D01*
X-663754D01*
X-665668Y-50087D01*
X-455777Y159804D01*
X40000D01*
X43902Y160580D01*
X47210Y162790D01*
X97876Y213457D01*
X97937Y213467D01*
X102978Y209599D01*
X113790Y205120D01*
X125394Y203593D01*
X174606D01*
X186210Y205120D01*
X197022Y209599D01*
X206308Y216724D01*
X213432Y226009D01*
X217911Y236822D01*
X219439Y248425D01*
X217911Y260029D01*
X213432Y270841D01*
X206308Y280126D01*
X197022Y287251D01*
X186210Y291730D01*
X174606Y293257D01*
X125394D01*
X115196Y291915D01*
X110196Y294989D01*
Y452122D01*
X109420Y456023D01*
X107210Y459331D01*
X101051Y465490D01*
X89049Y482009D01*
X79779Y500202D01*
X73469Y519622D01*
X70275Y539791D01*
Y560210D01*
X73469Y580378D01*
X79779Y599797D01*
X89049Y617991D01*
X101051Y634510D01*
X107210Y640669D01*
X109420Y643977D01*
X110196Y647879D01*
Y815034D01*
X110065Y815693D01*
X110109Y816365D01*
X109680Y817628D01*
X109420Y818936D01*
X109046Y819495D01*
X108830Y820132D01*
X107951Y821134D01*
X107210Y822243D01*
X106650Y822617D01*
X106207Y823123D01*
X100964Y827146D01*
X95474Y834300D01*
X92022Y842633D01*
X90845Y851575D01*
X92022Y860517D01*
X95474Y868849D01*
X100964Y876004D01*
X106207Y880027D01*
X106650Y880533D01*
X107210Y880906D01*
X107951Y882015D01*
X108830Y883018D01*
X109046Y883655D01*
X109420Y884214D01*
X109680Y885522D01*
X110109Y886785D01*
X110065Y887456D01*
X110196Y888116D01*
Y903436D01*
X115196Y906510D01*
X125394Y905168D01*
X174606D01*
X186210Y906695D01*
X197022Y911174D01*
X206308Y918299D01*
X213432Y927584D01*
X217911Y938396D01*
X219439Y950000D01*
X217911Y961604D01*
X213432Y972416D01*
X206308Y981701D01*
X197022Y988826D01*
X186210Y993305D01*
X174606Y994832D01*
X125394D01*
X115196Y993490D01*
X110196Y996564D01*
Y1001862D01*
X115196Y1004935D01*
X125394Y1003593D01*
X174606D01*
X186210Y1005120D01*
X197022Y1009599D01*
X206308Y1016724D01*
X213432Y1026009D01*
X217911Y1036822D01*
X219439Y1048425D01*
X217911Y1060029D01*
X213432Y1070841D01*
X206308Y1080126D01*
X197022Y1087251D01*
X186210Y1091730D01*
X174606Y1093257D01*
X125394D01*
X115196Y1091915D01*
X110196Y1094989D01*
Y1110000D01*
X109420Y1113902D01*
X107210Y1117210D01*
X31003Y1193416D01*
X30444Y1193789D01*
X30001Y1194295D01*
X28804Y1194885D01*
X27696Y1195626D01*
X27036Y1195757D01*
X26433Y1196055D01*
X25102Y1196142D01*
X23794Y1196402D01*
X23134Y1196271D01*
X22463Y1196315D01*
X21200Y1195886D01*
X19892Y1195626D01*
X19333Y1195252D01*
X18696Y1195036D01*
X14770Y1192769D01*
X13205Y1195479D01*
X5479Y1203205D01*
X-3983Y1208668D01*
X-14537Y1211496D01*
X-25463D01*
X-36017Y1208668D01*
X-45479Y1203205D01*
X-49518Y1199166D01*
X-51531Y1198330D01*
X-54746Y1197696D01*
X-56170Y1198509D01*
X-57533Y1199420D01*
X-57887Y1199490D01*
X-58200Y1199669D01*
X-59827Y1199876D01*
X-61434Y1200196D01*
X-591289D01*
X-595191Y1199420D01*
X-597690Y1198385D01*
X-602310D01*
X-604809Y1199420D01*
X-608711Y1200196D01*
X-651289D01*
X-655191Y1199420D01*
X-657690Y1198385D01*
X-662310D01*
X-664809Y1199420D01*
X-668711Y1200196D01*
X-711289D01*
X-715191Y1199420D01*
X-717690Y1198385D01*
X-722310D01*
X-724809Y1199420D01*
X-728711Y1200196D01*
X-740000D01*
X-743902Y1199420D01*
X-747210Y1197210D01*
X-749420Y1193902D01*
X-750196Y1190000D01*
Y1130000D01*
X-749420Y1126098D01*
X-747210Y1122790D01*
X-743902Y1120580D01*
X-740000Y1119804D01*
X-721377D01*
Y1033819D01*
X-720601Y1029917D01*
X-718391Y1026609D01*
X-715083Y1024399D01*
X-711181Y1023623D01*
X-677868D01*
X-676528Y1018623D01*
X-680288Y1016452D01*
X-686058Y1010682D01*
X-690138Y1003615D01*
X-692250Y995734D01*
Y987573D01*
X-690138Y979692D01*
X-686058Y972625D01*
X-680288Y966855D01*
X-673222Y962775D01*
X-665340Y960663D01*
X-657180D01*
X-649298Y962775D01*
X-642231Y966855D01*
X-636461Y972625D01*
X-632381Y979692D01*
X-630269Y987573D01*
Y995734D01*
X-632381Y1003615D01*
X-636461Y1010682D01*
X-642231Y1016452D01*
X-645991Y1018623D01*
X-644652Y1023623D01*
X-608819D01*
X-604917Y1024399D01*
X-601609Y1026609D01*
X-599399Y1029917D01*
X-598623Y1033819D01*
Y1119804D01*
X-204223D01*
X-10196Y925777D01*
Y808711D01*
X-9420Y804809D01*
X-8385Y802310D01*
Y797690D01*
X-9420Y795191D01*
X-10196Y791289D01*
Y785845D01*
X-9420Y781944D01*
X-7210Y778636D01*
X-5153Y776579D01*
X-3385Y772310D01*
Y767690D01*
X-5153Y763421D01*
X-7210Y761364D01*
X-9420Y758056D01*
X-10196Y754155D01*
Y750845D01*
X-9420Y746944D01*
X-7210Y743636D01*
X-5153Y741579D01*
X-3385Y737310D01*
Y732690D01*
X-5153Y728421D01*
X-7210Y726364D01*
X-9420Y723056D01*
X-10196Y719155D01*
Y715845D01*
X-9420Y711944D01*
X-7210Y708636D01*
X-5153Y706579D01*
X-3385Y702310D01*
Y697690D01*
X-5153Y693421D01*
X-7210Y691364D01*
X-9420Y688056D01*
X-10196Y684155D01*
Y680845D01*
X-9420Y676944D01*
X-7210Y673636D01*
X-5153Y671579D01*
X-3385Y667310D01*
Y662690D01*
X-5153Y658421D01*
X-7210Y656364D01*
X-9420Y653056D01*
X-10196Y649155D01*
Y614440D01*
X-14163Y611396D01*
X-14537Y611496D01*
X-25463D01*
X-36017Y608668D01*
X-45479Y603205D01*
X-53205Y595479D01*
X-58668Y586017D01*
X-61496Y575463D01*
Y564537D01*
X-58668Y553983D01*
X-53205Y544521D01*
X-45479Y536795D01*
X-36017Y531332D01*
X-25463Y528504D01*
X-14537D01*
X-14163Y528604D01*
X-10196Y525560D01*
Y514440D01*
X-14163Y511396D01*
X-14537Y511496D01*
X-25463D01*
X-36017Y508668D01*
X-45479Y503205D01*
X-53205Y495479D01*
X-58668Y486017D01*
X-61496Y475463D01*
Y464552D01*
X-130558Y395490D01*
X-469442D01*
X-484510Y410558D01*
Y454510D01*
X-450000D01*
X-440245Y456450D01*
X-431976Y461976D01*
X-310733Y583219D01*
X-305207Y591489D01*
X-303267Y601243D01*
Y626646D01*
X-305207Y636400D01*
X-310733Y644670D01*
X-319002Y650195D01*
X-328757Y652136D01*
X-338511Y650195D01*
X-346781Y644670D01*
X-352306Y636400D01*
X-354247Y626646D01*
Y611801D01*
X-460558Y505490D01*
X-510000D01*
X-519755Y503550D01*
X-528024Y498024D01*
X-533549Y489755D01*
X-535490Y480000D01*
Y440000D01*
Y400000D01*
X-533549Y390245D01*
X-528024Y381976D01*
X-510863Y364815D01*
X-512777Y360196D01*
X-520000D01*
X-523902Y359420D01*
X-527210Y357210D01*
X-555619Y328800D01*
X-559858Y331633D01*
X-558189Y335661D01*
Y344339D01*
X-561510Y352355D01*
X-567645Y358490D01*
X-575662Y361811D01*
X-584338D01*
X-592355Y358490D01*
X-598490Y352355D01*
X-601811Y344339D01*
Y335661D01*
X-598490Y327645D01*
X-595294Y324449D01*
Y286335D01*
X-760814Y120814D01*
X-764130Y115853D01*
X-765294Y110000D01*
Y-13665D01*
X-786335Y-34706D01*
X-968951D01*
X-971022Y-29706D01*
X-966795Y-25479D01*
X-961332Y-16017D01*
X-958504Y-5463D01*
Y5463D01*
X-961332Y16017D01*
X-966795Y25479D01*
X-974521Y33205D01*
X-983983Y38668D01*
X-994537Y41496D01*
X-1005463D01*
X-1016017Y38668D01*
X-1025479Y33205D01*
X-1033205Y25479D01*
X-1038668Y16017D01*
X-1041496Y5463D01*
Y-5463D01*
X-1038668Y-16017D01*
X-1033205Y-25479D01*
X-1028978Y-29706D01*
X-1031049Y-34706D01*
X-1068951D01*
X-1071022Y-29706D01*
X-1066795Y-25479D01*
X-1061332Y-16017D01*
X-1058504Y-5463D01*
Y5463D01*
X-1061332Y16017D01*
X-1066795Y25479D01*
X-1074521Y33205D01*
X-1083983Y38668D01*
X-1094537Y41496D01*
X-1105463D01*
X-1116017Y38668D01*
X-1125479Y33205D01*
X-1133205Y25479D01*
X-1138668Y16017D01*
X-1141496Y5463D01*
Y-5463D01*
X-1138668Y-16017D01*
X-1133205Y-25479D01*
X-1128978Y-29706D01*
X-1131049Y-34706D01*
X-1168951D01*
X-1171022Y-29706D01*
X-1166795Y-25479D01*
X-1161332Y-16017D01*
X-1158504Y-5463D01*
Y5463D01*
X-1161332Y16017D01*
X-1166795Y25479D01*
X-1174521Y33205D01*
X-1183983Y38668D01*
X-1194537Y41496D01*
X-1205463D01*
X-1216017Y38668D01*
X-1225479Y33205D01*
X-1233205Y25479D01*
X-1238668Y16017D01*
X-1241496Y5463D01*
Y-5463D01*
X-1238668Y-16017D01*
X-1233205Y-25479D01*
X-1228978Y-29706D01*
X-1231049Y-34706D01*
X-1953665D01*
X-2134706Y146335D01*
Y174448D01*
X-2131510Y177645D01*
X-2128189Y185661D01*
Y194339D01*
X-2131510Y202355D01*
X-2137645Y208490D01*
X-2145662Y211811D01*
X-2154338D01*
X-2162355Y208490D01*
X-2168490Y202355D01*
X-2171811Y194339D01*
Y185661D01*
X-2168490Y177645D01*
X-2165294Y174448D01*
Y140000D01*
X-2164130Y134147D01*
X-2160814Y129186D01*
X-1981542Y-50087D01*
X-1983456Y-54706D01*
X-3482677D01*
X-3483359Y-54842D01*
X-3499242Y-53277D01*
X-3515170Y-48446D01*
X-3529850Y-40599D01*
X-3542717Y-30040D01*
X-3553276Y-17173D01*
X-3561123Y-2493D01*
X-3565955Y13435D01*
X-3567518Y29305D01*
X-3567383Y29975D01*
X-3565767Y1035313D01*
X-3565957Y1036274D01*
X-3564134Y1054777D01*
X-3558464Y1073469D01*
X-3549256Y1090696D01*
X-3536864Y1105795D01*
X-3521765Y1118187D01*
X-3504538Y1127395D01*
X-3485846Y1133065D01*
X-3469185Y1134706D01*
X-3380000D01*
X-3374147Y1135870D01*
X-3369186Y1139186D01*
X-3365870Y1144147D01*
X-3364706Y1150000D01*
Y1250000D01*
X-3365870Y1255853D01*
X-3369186Y1260814D01*
X-3374147Y1264130D01*
X-3380000Y1265294D01*
X-3416318D01*
X-3420000Y1265294D01*
X-3421260Y1265294D01*
X-3426060Y1265667D01*
X-3433657Y1266415D01*
X-3445578Y1270031D01*
X-3456564Y1275903D01*
X-3466194Y1283806D01*
X-3474097Y1293436D01*
X-3479969Y1304422D01*
X-3483585Y1316343D01*
X-3484773Y1328404D01*
X-3484706Y1328740D01*
Y1871260D01*
X-3484773Y1871596D01*
X-3483585Y1883657D01*
X-3479969Y1895578D01*
X-3474097Y1906564D01*
X-3466194Y1916194D01*
X-3456564Y1924097D01*
X-3445578Y1929969D01*
X-3433657Y1933585D01*
X-3421596Y1934773D01*
X-3421260Y1934706D01*
X-2878740D01*
X-2878404Y1934773D01*
X-2866343Y1933585D01*
X-2854422Y1929969D01*
X-2843436Y1924097D01*
X-2833806Y1916194D01*
X-2825903Y1906564D01*
X-2820031Y1895578D01*
X-2816415Y1883657D01*
X-2815667Y1876060D01*
X-2815294Y1871260D01*
X-2815294Y1870000D01*
X-2815294Y1866318D01*
Y1840000D01*
X-2814130Y1834147D01*
X-2810814Y1829186D01*
X-2805853Y1825870D01*
X-2800000Y1824706D01*
X-2640000D01*
X-2634147Y1825870D01*
X-2629186Y1829186D01*
X-2625870Y1834147D01*
X-2624706Y1840000D01*
Y1870000D01*
X-2624842Y1870682D01*
X-2623277Y1886565D01*
X-2618446Y1902493D01*
X-2610599Y1917173D01*
X-2600040Y1930040D01*
X-2587173Y1940599D01*
X-2572493Y1948446D01*
X-2556565Y1953277D01*
X-2540683Y1954842D01*
X-2540000Y1954706D01*
X260000Y1954706D01*
X260682Y1954842D01*
X276565Y1953277D01*
D02*
G37*
G36*
X-58941Y1185000D02*
X-61496Y1175463D01*
Y1164537D01*
X-58668Y1153983D01*
X-53205Y1144521D01*
X-45479Y1136795D01*
X-36017Y1131332D01*
X-25463Y1128504D01*
X-14537D01*
X-3983Y1131332D01*
X5479Y1136795D01*
X13205Y1144521D01*
X18668Y1153983D01*
X21496Y1164537D01*
Y1175463D01*
X19311Y1183618D01*
X23794Y1186206D01*
X100000Y1110000D01*
Y1084966D01*
X93692Y1080126D01*
X86568Y1070841D01*
X82089Y1060029D01*
X80561Y1048425D01*
X82089Y1036822D01*
X86568Y1026009D01*
X93692Y1016724D01*
X100000Y1011884D01*
Y986541D01*
X93692Y981701D01*
X86568Y972416D01*
X82089Y961604D01*
X80561Y950000D01*
X82089Y938396D01*
X86568Y927584D01*
X93692Y918299D01*
X100000Y913459D01*
Y888116D01*
X93692Y883276D01*
X86568Y873991D01*
X82089Y863178D01*
X80561Y851575D01*
X82089Y839971D01*
X86568Y829159D01*
X93692Y819874D01*
X100000Y815034D01*
Y647879D01*
X93274Y641153D01*
X80329Y623335D01*
X70330Y603711D01*
X63524Y582765D01*
X60079Y561012D01*
Y538988D01*
X63524Y517235D01*
X70330Y496289D01*
X80329Y476665D01*
X93274Y458847D01*
X100000Y452122D01*
Y284966D01*
X93692Y280126D01*
X86568Y270841D01*
X82089Y260029D01*
X80561Y248425D01*
X82089Y236822D01*
X86568Y226009D01*
X90667Y220667D01*
X40000Y170000D01*
X-460000D01*
X-680000Y-50000D01*
X-739999D01*
Y-31628D01*
X-739186Y-30814D01*
X-735870Y-25853D01*
X-734706Y-20000D01*
Y103665D01*
X-569186Y269186D01*
X-565870Y274147D01*
X-564762Y279720D01*
X-564326Y280000D01*
X-559593Y280308D01*
X-558490Y277645D01*
X-552355Y271510D01*
X-544338Y268189D01*
X-535662D01*
X-527645Y271510D01*
X-521510Y277645D01*
X-518189Y285661D01*
Y294339D01*
X-521510Y302355D01*
X-527645Y308490D01*
X-535662Y311811D01*
X-544338D01*
X-552355Y308490D01*
X-558490Y302355D01*
X-559706Y299420D01*
X-564706Y300415D01*
Y305294D01*
X-520000Y350000D01*
X-495067D01*
X-489755Y346450D01*
X-480000Y344510D01*
X-120000D01*
X-110246Y346450D01*
X-104933Y350000D01*
X-56368D01*
X-53205Y344521D01*
X-45479Y336795D01*
X-36017Y331332D01*
X-25463Y328504D01*
X-14537D01*
X-3983Y331332D01*
X5479Y336795D01*
X13205Y344521D01*
X18668Y353983D01*
X21496Y364537D01*
Y375463D01*
X18668Y386017D01*
X13205Y395479D01*
X5479Y403205D01*
X0Y406368D01*
Y433632D01*
X5479Y436795D01*
X13205Y444521D01*
X18668Y453983D01*
X21496Y464537D01*
Y475463D01*
X18668Y486017D01*
X13205Y495479D01*
X5479Y503205D01*
X0Y506368D01*
Y533631D01*
X5479Y536795D01*
X13205Y544521D01*
X18668Y553983D01*
X21496Y564537D01*
Y575463D01*
X18668Y586017D01*
X13205Y595479D01*
X5479Y603205D01*
X0Y606369D01*
Y649155D01*
X3490Y652645D01*
X6811Y660662D01*
Y669338D01*
X3490Y677355D01*
X0Y680845D01*
Y684155D01*
X3490Y687645D01*
X6811Y695662D01*
Y704338D01*
X3490Y712355D01*
X0Y715845D01*
Y719155D01*
X3490Y722645D01*
X6811Y730662D01*
Y739338D01*
X3490Y747355D01*
X0Y750845D01*
Y754155D01*
X3490Y757645D01*
X6811Y765662D01*
Y774338D01*
X3490Y782355D01*
X0Y785845D01*
Y791289D01*
X1811Y795662D01*
Y804338D01*
X0Y808711D01*
Y930000D01*
X-200000Y1130000D01*
X-598623D01*
Y1136181D01*
X-599399Y1140083D01*
X-601609Y1143391D01*
X-604917Y1145601D01*
X-608819Y1146377D01*
X-711181D01*
X-715083Y1145601D01*
X-718391Y1143391D01*
X-720601Y1140083D01*
X-721377Y1136181D01*
Y1130000D01*
X-740000D01*
Y1190000D01*
X-728711D01*
X-724338Y1188189D01*
X-715662D01*
X-711289Y1190000D01*
X-668711D01*
X-664338Y1188189D01*
X-655662D01*
X-651289Y1190000D01*
X-608711D01*
X-604338Y1188189D01*
X-595662D01*
X-591289Y1190000D01*
X-61434D01*
X-58941Y1185000D01*
D02*
G37*
%LPC*%
G36*
X5463Y1941496D02*
X-5463D01*
X-16017Y1938668D01*
X-25479Y1933205D01*
X-33205Y1925479D01*
X-38668Y1916017D01*
X-41496Y1905463D01*
Y1894537D01*
X-38668Y1883983D01*
X-33205Y1874521D01*
X-25479Y1866795D01*
X-16017Y1861332D01*
X-5463Y1858504D01*
X5463D01*
X16017Y1861332D01*
X25479Y1866795D01*
X33205Y1874521D01*
X38668Y1883983D01*
X41496Y1894537D01*
Y1905463D01*
X38668Y1916017D01*
X33205Y1925479D01*
X25479Y1933205D01*
X16017Y1938668D01*
X5463Y1941496D01*
D02*
G37*
G36*
X-94537D02*
X-105463D01*
X-116017Y1938668D01*
X-125479Y1933205D01*
X-133205Y1925479D01*
X-138668Y1916017D01*
X-141496Y1905463D01*
Y1894537D01*
X-138668Y1883983D01*
X-133205Y1874521D01*
X-125479Y1866795D01*
X-116017Y1861332D01*
X-105463Y1858504D01*
X-94537D01*
X-83983Y1861332D01*
X-74521Y1866795D01*
X-66795Y1874521D01*
X-61332Y1883983D01*
X-58504Y1894537D01*
Y1905463D01*
X-61332Y1916017D01*
X-66795Y1925479D01*
X-74521Y1933205D01*
X-83983Y1938668D01*
X-94537Y1941496D01*
D02*
G37*
G36*
X-194537D02*
X-205463D01*
X-216017Y1938668D01*
X-225479Y1933205D01*
X-233205Y1925479D01*
X-238668Y1916017D01*
X-241496Y1905463D01*
Y1894537D01*
X-238668Y1883983D01*
X-233205Y1874521D01*
X-225479Y1866795D01*
X-216017Y1861332D01*
X-205463Y1858504D01*
X-194537D01*
X-183983Y1861332D01*
X-174521Y1866795D01*
X-166795Y1874521D01*
X-161332Y1883983D01*
X-158504Y1894537D01*
Y1905463D01*
X-161332Y1916017D01*
X-166795Y1925479D01*
X-174521Y1933205D01*
X-183983Y1938668D01*
X-194537Y1941496D01*
D02*
G37*
G36*
X-294537D02*
X-305463D01*
X-316017Y1938668D01*
X-325479Y1933205D01*
X-333205Y1925479D01*
X-338668Y1916017D01*
X-341496Y1905463D01*
Y1894537D01*
X-338668Y1883983D01*
X-333205Y1874521D01*
X-325479Y1866795D01*
X-316017Y1861332D01*
X-305463Y1858504D01*
X-294537D01*
X-283983Y1861332D01*
X-274521Y1866795D01*
X-266795Y1874521D01*
X-261332Y1883983D01*
X-258504Y1894537D01*
Y1905463D01*
X-261332Y1916017D01*
X-266795Y1925479D01*
X-274521Y1933205D01*
X-283983Y1938668D01*
X-294537Y1941496D01*
D02*
G37*
G36*
X-394537D02*
X-405463D01*
X-416017Y1938668D01*
X-425479Y1933205D01*
X-433205Y1925479D01*
X-438668Y1916017D01*
X-441496Y1905463D01*
Y1894537D01*
X-438668Y1883983D01*
X-433205Y1874521D01*
X-425479Y1866795D01*
X-416017Y1861332D01*
X-405463Y1858504D01*
X-394537D01*
X-383983Y1861332D01*
X-374521Y1866795D01*
X-366795Y1874521D01*
X-361332Y1883983D01*
X-358504Y1894537D01*
Y1905463D01*
X-361332Y1916017D01*
X-366795Y1925479D01*
X-374521Y1933205D01*
X-383983Y1938668D01*
X-394537Y1941496D01*
D02*
G37*
G36*
X-494537D02*
X-505463D01*
X-516017Y1938668D01*
X-525479Y1933205D01*
X-533205Y1925479D01*
X-538668Y1916017D01*
X-541496Y1905463D01*
Y1894537D01*
X-538668Y1883983D01*
X-533205Y1874521D01*
X-525479Y1866795D01*
X-516017Y1861332D01*
X-505463Y1858504D01*
X-494537D01*
X-483983Y1861332D01*
X-474521Y1866795D01*
X-466795Y1874521D01*
X-461332Y1883983D01*
X-458504Y1894537D01*
Y1905463D01*
X-461332Y1916017D01*
X-466795Y1925479D01*
X-474521Y1933205D01*
X-483983Y1938668D01*
X-494537Y1941496D01*
D02*
G37*
G36*
X-594537D02*
X-605463D01*
X-616017Y1938668D01*
X-625479Y1933205D01*
X-633205Y1925479D01*
X-638668Y1916017D01*
X-641496Y1905463D01*
Y1894537D01*
X-638668Y1883983D01*
X-633205Y1874521D01*
X-625479Y1866795D01*
X-616017Y1861332D01*
X-605463Y1858504D01*
X-594537D01*
X-583983Y1861332D01*
X-574521Y1866795D01*
X-566795Y1874521D01*
X-561332Y1883983D01*
X-558504Y1894537D01*
Y1905463D01*
X-561332Y1916017D01*
X-566795Y1925479D01*
X-574521Y1933205D01*
X-583983Y1938668D01*
X-594537Y1941496D01*
D02*
G37*
G36*
X-694537D02*
X-705463D01*
X-716017Y1938668D01*
X-725479Y1933205D01*
X-733205Y1925479D01*
X-738668Y1916017D01*
X-741496Y1905463D01*
Y1894537D01*
X-738668Y1883983D01*
X-733205Y1874521D01*
X-725479Y1866795D01*
X-716017Y1861332D01*
X-705463Y1858504D01*
X-694537D01*
X-683983Y1861332D01*
X-674521Y1866795D01*
X-666795Y1874521D01*
X-661332Y1883983D01*
X-658504Y1894537D01*
Y1905463D01*
X-661332Y1916017D01*
X-666795Y1925479D01*
X-674521Y1933205D01*
X-683983Y1938668D01*
X-694537Y1941496D01*
D02*
G37*
G36*
X-854537D02*
X-865463D01*
X-876017Y1938668D01*
X-885479Y1933205D01*
X-893205Y1925479D01*
X-898668Y1916017D01*
X-901496Y1905463D01*
Y1894537D01*
X-898668Y1883983D01*
X-893205Y1874521D01*
X-885479Y1866795D01*
X-876017Y1861332D01*
X-865463Y1858504D01*
X-854537D01*
X-843983Y1861332D01*
X-834521Y1866795D01*
X-826795Y1874521D01*
X-821332Y1883983D01*
X-818504Y1894537D01*
Y1905463D01*
X-821332Y1916017D01*
X-826795Y1925479D01*
X-834521Y1933205D01*
X-843983Y1938668D01*
X-854537Y1941496D01*
D02*
G37*
G36*
X-954537D02*
X-965463D01*
X-976017Y1938668D01*
X-985479Y1933205D01*
X-993205Y1925479D01*
X-998668Y1916017D01*
X-1001496Y1905463D01*
Y1894537D01*
X-998668Y1883983D01*
X-993205Y1874521D01*
X-985479Y1866795D01*
X-976017Y1861332D01*
X-965463Y1858504D01*
X-954537D01*
X-943983Y1861332D01*
X-934521Y1866795D01*
X-926795Y1874521D01*
X-921332Y1883983D01*
X-918504Y1894537D01*
Y1905463D01*
X-921332Y1916017D01*
X-926795Y1925479D01*
X-934521Y1933205D01*
X-943983Y1938668D01*
X-954537Y1941496D01*
D02*
G37*
G36*
X-1054537D02*
X-1065463D01*
X-1076017Y1938668D01*
X-1085479Y1933205D01*
X-1093205Y1925479D01*
X-1098668Y1916017D01*
X-1101496Y1905463D01*
Y1894537D01*
X-1098668Y1883983D01*
X-1093205Y1874521D01*
X-1085479Y1866795D01*
X-1076017Y1861332D01*
X-1065463Y1858504D01*
X-1054537D01*
X-1043983Y1861332D01*
X-1034521Y1866795D01*
X-1026795Y1874521D01*
X-1021332Y1883983D01*
X-1018504Y1894537D01*
Y1905463D01*
X-1021332Y1916017D01*
X-1026795Y1925479D01*
X-1034521Y1933205D01*
X-1043983Y1938668D01*
X-1054537Y1941496D01*
D02*
G37*
G36*
X-1154537D02*
X-1165463D01*
X-1176017Y1938668D01*
X-1185479Y1933205D01*
X-1193205Y1925479D01*
X-1198668Y1916017D01*
X-1201496Y1905463D01*
Y1894537D01*
X-1198668Y1883983D01*
X-1193205Y1874521D01*
X-1185479Y1866795D01*
X-1176017Y1861332D01*
X-1165463Y1858504D01*
X-1154537D01*
X-1143983Y1861332D01*
X-1134521Y1866795D01*
X-1126795Y1874521D01*
X-1121332Y1883983D01*
X-1118504Y1894537D01*
Y1905463D01*
X-1121332Y1916017D01*
X-1126795Y1925479D01*
X-1134521Y1933205D01*
X-1143983Y1938668D01*
X-1154537Y1941496D01*
D02*
G37*
G36*
X-1254537D02*
X-1265463D01*
X-1276017Y1938668D01*
X-1285479Y1933205D01*
X-1293205Y1925479D01*
X-1298668Y1916017D01*
X-1301496Y1905463D01*
Y1894537D01*
X-1298668Y1883983D01*
X-1298294Y1883335D01*
X-1326335Y1855294D01*
X-1347199D01*
X-1347857Y1860294D01*
X-1343983Y1861332D01*
X-1334521Y1866795D01*
X-1326795Y1874521D01*
X-1321332Y1883983D01*
X-1318504Y1894537D01*
Y1905463D01*
X-1321332Y1916017D01*
X-1326795Y1925479D01*
X-1334521Y1933205D01*
X-1343983Y1938668D01*
X-1354537Y1941496D01*
X-1365463D01*
X-1376017Y1938668D01*
X-1385479Y1933205D01*
X-1393205Y1925479D01*
X-1398668Y1916017D01*
X-1401496Y1905463D01*
Y1894537D01*
X-1398668Y1883983D01*
X-1393205Y1874521D01*
X-1385479Y1866795D01*
X-1376017Y1861332D01*
X-1372143Y1860294D01*
X-1372801Y1855294D01*
X-1547199D01*
X-1547857Y1860294D01*
X-1543983Y1861332D01*
X-1534521Y1866795D01*
X-1526795Y1874521D01*
X-1521332Y1883983D01*
X-1518504Y1894537D01*
Y1905463D01*
X-1521332Y1916017D01*
X-1526795Y1925479D01*
X-1534521Y1933205D01*
X-1543983Y1938668D01*
X-1554537Y1941496D01*
X-1565463D01*
X-1576017Y1938668D01*
X-1585479Y1933205D01*
X-1593205Y1925479D01*
X-1598668Y1916017D01*
X-1601496Y1905463D01*
Y1894537D01*
X-1598668Y1883983D01*
X-1593205Y1874521D01*
X-1585479Y1866795D01*
X-1576017Y1861332D01*
X-1572143Y1860294D01*
X-1572801Y1855294D01*
X-1593665D01*
X-1618189Y1879818D01*
Y1884339D01*
X-1621509Y1892355D01*
X-1627645Y1898491D01*
X-1635661Y1901811D01*
X-1644339D01*
X-1652355Y1898491D01*
X-1658491Y1892355D01*
X-1661811Y1884339D01*
Y1875661D01*
X-1658491Y1867645D01*
X-1652355Y1861509D01*
X-1644339Y1858189D01*
X-1639818D01*
X-1610814Y1829186D01*
X-1605853Y1825870D01*
X-1600000Y1824706D01*
X-1320000D01*
X-1314147Y1825870D01*
X-1309186Y1829186D01*
X-1276665Y1861706D01*
X-1276017Y1861332D01*
X-1265463Y1858504D01*
X-1254537D01*
X-1243983Y1861332D01*
X-1234521Y1866795D01*
X-1226795Y1874521D01*
X-1221332Y1883983D01*
X-1218504Y1894537D01*
Y1905463D01*
X-1221332Y1916017D01*
X-1226795Y1925479D01*
X-1234521Y1933205D01*
X-1243983Y1938668D01*
X-1254537Y1941496D01*
D02*
G37*
G36*
X174606Y1893257D02*
X125394D01*
X113790Y1891730D01*
X102978Y1887251D01*
X93692Y1880126D01*
X86568Y1870841D01*
X82089Y1860029D01*
X80561Y1848425D01*
X82089Y1836822D01*
X86568Y1826009D01*
X93692Y1816724D01*
X102978Y1809599D01*
X113790Y1805120D01*
X125394Y1803593D01*
X174606D01*
X186210Y1805120D01*
X197022Y1809599D01*
X206308Y1816724D01*
X213432Y1826009D01*
X217911Y1836822D01*
X219439Y1848425D01*
X217911Y1860029D01*
X213432Y1870841D01*
X206308Y1880126D01*
X197022Y1887251D01*
X186210Y1891730D01*
X174606Y1893257D01*
D02*
G37*
G36*
Y1794832D02*
X125394D01*
X113790Y1793305D01*
X102978Y1788826D01*
X93692Y1781701D01*
X86568Y1772416D01*
X82089Y1761603D01*
X80561Y1750000D01*
X82089Y1738397D01*
X86568Y1727584D01*
X93692Y1718299D01*
X102978Y1711174D01*
X113790Y1706695D01*
X125394Y1705168D01*
X174606D01*
X186210Y1706695D01*
X197022Y1711174D01*
X206308Y1718299D01*
X213432Y1727584D01*
X217911Y1738397D01*
X219439Y1750000D01*
X217911Y1761603D01*
X213432Y1772416D01*
X206308Y1781701D01*
X197022Y1788826D01*
X186210Y1793305D01*
X174606Y1794832D01*
D02*
G37*
G36*
X-195661Y1671811D02*
X-204339D01*
X-212355Y1668491D01*
X-218490Y1662355D01*
X-221811Y1654339D01*
Y1645661D01*
X-218490Y1637645D01*
X-212355Y1631509D01*
X-204339Y1628189D01*
X-195661D01*
X-187645Y1631509D01*
X-181510Y1637645D01*
X-178189Y1645661D01*
Y1654339D01*
X-181510Y1662355D01*
X-187645Y1668491D01*
X-195661Y1671811D01*
D02*
G37*
G36*
X-3185125Y1632244D02*
X-3193615D01*
X-3201816Y1630047D01*
X-3209168Y1625802D01*
X-3215172Y1619798D01*
X-3219417Y1612446D01*
X-3221614Y1604245D01*
Y1595755D01*
X-3219417Y1587554D01*
X-3215172Y1580202D01*
X-3209168Y1574198D01*
X-3201816Y1569953D01*
X-3193615Y1567756D01*
X-3185125D01*
X-3176924Y1569953D01*
X-3169572Y1574198D01*
X-3163568Y1580202D01*
X-3159323Y1587554D01*
X-3157126Y1595755D01*
Y1604245D01*
X-3159323Y1612446D01*
X-3163568Y1619798D01*
X-3169572Y1625802D01*
X-3176924Y1630047D01*
X-3185125Y1632244D01*
D02*
G37*
G36*
X-1944537Y1641496D02*
X-1955463D01*
X-1966017Y1638668D01*
X-1975479Y1633205D01*
X-1983205Y1625479D01*
X-1988668Y1616017D01*
X-1991496Y1605463D01*
Y1594537D01*
X-1988668Y1583983D01*
X-1983205Y1574521D01*
X-1975479Y1566795D01*
X-1966017Y1561332D01*
X-1955463Y1558504D01*
X-1944537D01*
X-1933983Y1561332D01*
X-1924521Y1566795D01*
X-1916795Y1574521D01*
X-1911332Y1583983D01*
X-1908504Y1594537D01*
Y1605463D01*
X-1911332Y1616017D01*
X-1916795Y1625479D01*
X-1924521Y1633205D01*
X-1933983Y1638668D01*
X-1944537Y1641496D01*
D02*
G37*
G36*
X-3099508Y1632440D02*
X-3121752D01*
X-3125654Y1631664D01*
X-3128962Y1629454D01*
X-3140084Y1618332D01*
X-3142294Y1615024D01*
X-3143070Y1611122D01*
Y1588878D01*
X-3142294Y1584976D01*
X-3140084Y1581668D01*
X-3128962Y1570546D01*
X-3125654Y1568336D01*
X-3121752Y1567560D01*
X-3110435D01*
X-3101942Y1559067D01*
X-3098425Y1555512D01*
X-3098425Y1555512D01*
X-3083766Y1543481D01*
X-3067035Y1534538D01*
X-3048880Y1529031D01*
X-3040709Y1528226D01*
Y1520315D01*
X-3011377D01*
Y1498821D01*
X-3010601Y1494919D01*
X-3010601Y1494919D01*
X-3010600Y1494917D01*
X-3008390Y1491609D01*
X-3005082Y1489399D01*
X-3001180Y1488623D01*
X-2898818D01*
X-2894916Y1489399D01*
X-2891609Y1491609D01*
X-2889398Y1494917D01*
X-2888622Y1498819D01*
Y1601181D01*
X-2889398Y1605082D01*
X-2889399Y1605083D01*
X-2889399Y1605085D01*
X-2891609Y1608393D01*
X-2894917Y1610603D01*
X-2898819Y1611379D01*
X-3001181D01*
X-3005083Y1610603D01*
X-3008391Y1608393D01*
X-3010601Y1605085D01*
X-3011377Y1601183D01*
Y1579685D01*
X-3040709D01*
Y1578082D01*
X-3045709Y1575160D01*
X-3055763Y1579324D01*
X-3065515Y1586807D01*
X-3066163Y1587777D01*
X-3078190Y1599804D01*
Y1611122D01*
X-3078966Y1615024D01*
X-3081176Y1618332D01*
X-3092298Y1629454D01*
X-3095606Y1631664D01*
X-3099508Y1632440D01*
D02*
G37*
G36*
X-325661Y1531811D02*
X-334339D01*
X-342355Y1528491D01*
X-348490Y1522355D01*
X-351811Y1514339D01*
Y1505661D01*
X-348490Y1497645D01*
X-342355Y1491509D01*
X-334339Y1488189D01*
X-325661D01*
X-317645Y1491509D01*
X-311510Y1497645D01*
X-308189Y1505661D01*
Y1514339D01*
X-311510Y1522355D01*
X-317645Y1528491D01*
X-325661Y1531811D01*
D02*
G37*
G36*
X-1944537Y1541496D02*
X-1955463D01*
X-1966017Y1538668D01*
X-1975479Y1533205D01*
X-1983205Y1525479D01*
X-1988668Y1516017D01*
X-1991496Y1505463D01*
Y1494537D01*
X-1988668Y1483983D01*
X-1983205Y1474521D01*
X-1975479Y1466795D01*
X-1966017Y1461332D01*
X-1955463Y1458504D01*
X-1944537D01*
X-1933983Y1461332D01*
X-1924521Y1466795D01*
X-1916795Y1474521D01*
X-1911332Y1483983D01*
X-1908504Y1494537D01*
Y1505463D01*
X-1911332Y1516017D01*
X-1916795Y1525479D01*
X-1924521Y1533205D01*
X-1933983Y1538668D01*
X-1944537Y1541496D01*
D02*
G37*
G36*
X-928819Y1541377D02*
X-1031181D01*
X-1035083Y1540601D01*
X-1038391Y1538391D01*
X-1040601Y1535083D01*
X-1041377Y1531181D01*
Y1428819D01*
X-1040601Y1424917D01*
X-1038391Y1421609D01*
X-1035083Y1419399D01*
X-1031181Y1418623D01*
X-928819D01*
X-924917Y1419399D01*
X-921609Y1421609D01*
X-919399Y1424917D01*
X-918623Y1428819D01*
Y1531181D01*
X-919399Y1535083D01*
X-921609Y1538391D01*
X-924917Y1540601D01*
X-928819Y1541377D01*
D02*
G37*
G36*
X-14537Y1411496D02*
X-25463D01*
X-36017Y1408668D01*
X-45479Y1403205D01*
X-53205Y1395479D01*
X-58668Y1386017D01*
X-61496Y1375463D01*
Y1364537D01*
X-58668Y1353983D01*
X-53205Y1344521D01*
X-45479Y1336795D01*
X-36017Y1331332D01*
X-25463Y1328504D01*
X-14537D01*
X-3983Y1331332D01*
X5479Y1336795D01*
X13205Y1344521D01*
X18668Y1353983D01*
X21496Y1364537D01*
Y1375463D01*
X18668Y1386017D01*
X13205Y1395479D01*
X5479Y1403205D01*
X-3983Y1408668D01*
X-14537Y1411496D01*
D02*
G37*
G36*
X-1198819Y1431377D02*
X-1301181D01*
X-1305083Y1430601D01*
X-1308391Y1428391D01*
X-1310601Y1425083D01*
X-1311377Y1421181D01*
Y1318819D01*
X-1310601Y1314917D01*
X-1308391Y1311609D01*
X-1305083Y1309399D01*
X-1301181Y1308623D01*
X-1198819D01*
X-1194917Y1309399D01*
X-1191609Y1311609D01*
X-1189399Y1314917D01*
X-1188623Y1318819D01*
Y1421181D01*
X-1189399Y1425083D01*
X-1191609Y1428391D01*
X-1194917Y1430601D01*
X-1198819Y1431377D01*
D02*
G37*
G36*
X-1438820D02*
X-1541182D01*
X-1545084Y1430601D01*
X-1548392Y1428391D01*
X-1550602Y1425083D01*
X-1551378Y1421181D01*
Y1318819D01*
X-1550602Y1314917D01*
X-1548392Y1311609D01*
X-1545084Y1309399D01*
X-1541182Y1308623D01*
X-1438820D01*
X-1434918Y1309399D01*
X-1431610Y1311609D01*
X-1429400Y1314917D01*
X-1428624Y1318819D01*
Y1421181D01*
X-1429400Y1425083D01*
X-1431610Y1428391D01*
X-1434918Y1430601D01*
X-1438820Y1431377D01*
D02*
G37*
G36*
X-674537Y1351496D02*
X-685463D01*
X-696017Y1348668D01*
X-705479Y1343205D01*
X-713205Y1335479D01*
X-718668Y1326017D01*
X-721496Y1315463D01*
Y1304537D01*
X-718668Y1293983D01*
X-713205Y1284521D01*
X-705479Y1276795D01*
X-696017Y1271332D01*
X-685463Y1268504D01*
X-674537D01*
X-663983Y1271332D01*
X-654521Y1276795D01*
X-646795Y1284521D01*
X-641332Y1293983D01*
X-638504Y1304537D01*
Y1315463D01*
X-641332Y1326017D01*
X-646795Y1335479D01*
X-654521Y1343205D01*
X-663983Y1348668D01*
X-674537Y1351496D01*
D02*
G37*
G36*
X-774537D02*
X-785463D01*
X-796017Y1348668D01*
X-805479Y1343205D01*
X-813205Y1335479D01*
X-818668Y1326017D01*
X-821496Y1315463D01*
Y1304537D01*
X-818668Y1293983D01*
X-813205Y1284521D01*
X-805479Y1276795D01*
X-796017Y1271332D01*
X-785463Y1268504D01*
X-774537D01*
X-763983Y1271332D01*
X-754521Y1276795D01*
X-746795Y1284521D01*
X-741332Y1293983D01*
X-738504Y1304537D01*
Y1315463D01*
X-741332Y1326017D01*
X-746795Y1335479D01*
X-754521Y1343205D01*
X-763983Y1348668D01*
X-774537Y1351496D01*
D02*
G37*
G36*
X-2640000Y1695294D02*
X-2800000D01*
X-2805853Y1694130D01*
X-2810814Y1690814D01*
X-2814130Y1685853D01*
X-2815294Y1680000D01*
Y1328740D01*
X-2815227Y1328404D01*
X-2816415Y1316343D01*
X-2820031Y1304422D01*
X-2825903Y1293436D01*
X-2833806Y1283806D01*
X-2843436Y1275903D01*
X-2854422Y1270031D01*
X-2866343Y1266415D01*
X-2878404Y1265227D01*
X-2878740Y1265294D01*
X-3220000D01*
X-3225853Y1264130D01*
X-3230814Y1260814D01*
X-3234130Y1255853D01*
X-3235294Y1250000D01*
Y1150000D01*
X-3234130Y1144147D01*
X-3230814Y1139186D01*
X-3225853Y1135870D01*
X-3220000Y1134706D01*
X-2762034D01*
X-2759728Y1134247D01*
Y1134125D01*
X-2738587Y1135789D01*
X-2717966Y1140739D01*
X-2698374Y1148855D01*
X-2680292Y1159935D01*
X-2664166Y1173708D01*
X-2650394Y1189834D01*
X-2639313Y1207915D01*
X-2631198Y1227508D01*
X-2626247Y1248129D01*
X-2624583Y1269270D01*
X-2624706D01*
Y1680000D01*
X-2625870Y1685853D01*
X-2629186Y1690814D01*
X-2634147Y1694130D01*
X-2640000Y1695294D01*
D02*
G37*
G36*
X-1944537Y1341496D02*
X-1955463D01*
X-1966017Y1338668D01*
X-1975479Y1333205D01*
X-1983205Y1325479D01*
X-1988668Y1316017D01*
X-1991496Y1305463D01*
Y1294537D01*
X-1988668Y1283983D01*
X-1983205Y1274521D01*
X-1975479Y1266795D01*
X-1966017Y1261332D01*
X-1955463Y1258504D01*
X-1944537D01*
X-1933983Y1261332D01*
X-1924521Y1266795D01*
X-1916795Y1274521D01*
X-1911332Y1283983D01*
X-1908504Y1294537D01*
Y1305463D01*
X-1911332Y1316017D01*
X-1916795Y1325479D01*
X-1924521Y1333205D01*
X-1933983Y1338668D01*
X-1944537Y1341496D01*
D02*
G37*
G36*
X-1075661Y1291811D02*
X-1084339D01*
X-1092355Y1288491D01*
X-1098491Y1282355D01*
X-1101811Y1274339D01*
Y1265661D01*
X-1098491Y1257645D01*
X-1092355Y1251509D01*
X-1084339Y1248189D01*
X-1075661D01*
X-1067645Y1251509D01*
X-1061509Y1257645D01*
X-1058189Y1265661D01*
Y1274339D01*
X-1061509Y1282355D01*
X-1067645Y1288491D01*
X-1075661Y1291811D01*
D02*
G37*
G36*
X-14537Y1311496D02*
X-25463D01*
X-36017Y1308668D01*
X-45479Y1303205D01*
X-53205Y1295479D01*
X-58668Y1286017D01*
X-61496Y1275463D01*
Y1264537D01*
X-58668Y1253983D01*
X-53205Y1244521D01*
X-45479Y1236795D01*
X-36017Y1231332D01*
X-25463Y1228504D01*
X-14537D01*
X-3983Y1231332D01*
X5479Y1236795D01*
X13205Y1244521D01*
X18668Y1253983D01*
X21496Y1264537D01*
Y1275463D01*
X18668Y1286017D01*
X13205Y1295479D01*
X5479Y1303205D01*
X-3983Y1308668D01*
X-14537Y1311496D01*
D02*
G37*
G36*
X-1944537Y1241496D02*
X-1955463D01*
X-1966017Y1238668D01*
X-1975479Y1233205D01*
X-1983205Y1225479D01*
X-1988668Y1216017D01*
X-1991496Y1205463D01*
Y1194537D01*
X-1988668Y1183983D01*
X-1983205Y1174521D01*
X-1975479Y1166795D01*
X-1966017Y1161332D01*
X-1955463Y1158504D01*
X-1944537D01*
X-1933983Y1161332D01*
X-1924521Y1166795D01*
X-1916795Y1174521D01*
X-1911332Y1183983D01*
X-1908504Y1194537D01*
Y1205463D01*
X-1911332Y1216017D01*
X-1916795Y1225479D01*
X-1924521Y1233205D01*
X-1933983Y1238668D01*
X-1944537Y1241496D01*
D02*
G37*
G36*
X-1285661Y1111811D02*
X-1294339D01*
X-1302355Y1108491D01*
X-1308491Y1102355D01*
X-1311811Y1094339D01*
Y1085661D01*
X-1308491Y1077645D01*
X-1302355Y1071509D01*
X-1294339Y1068189D01*
X-1285661D01*
X-1277645Y1071509D01*
X-1271509Y1077645D01*
X-1268189Y1085661D01*
Y1094339D01*
X-1271509Y1102355D01*
X-1277645Y1108491D01*
X-1285661Y1111811D01*
D02*
G37*
G36*
X-1491993Y1071811D02*
X-1500670D01*
X-1508686Y1068491D01*
X-1514822Y1062355D01*
X-1518142Y1054339D01*
Y1045661D01*
X-1514822Y1037645D01*
X-1508686Y1031509D01*
X-1500670Y1028189D01*
X-1491993D01*
X-1483977Y1031509D01*
X-1477841Y1037645D01*
X-1474521Y1045661D01*
Y1054339D01*
X-1477841Y1062355D01*
X-1483977Y1068491D01*
X-1491993Y1071811D01*
D02*
G37*
G36*
X-1794615Y1040906D02*
X-1805385D01*
X-1815789Y1038118D01*
X-1825117Y1032733D01*
X-1832733Y1025117D01*
X-1838118Y1015789D01*
X-1840906Y1005385D01*
Y994615D01*
X-1838118Y984211D01*
X-1832733Y974883D01*
X-1825117Y967267D01*
X-1815789Y961882D01*
X-1805385Y959095D01*
X-1794615D01*
X-1784211Y961882D01*
X-1774883Y967267D01*
X-1767267Y974883D01*
X-1761882Y984211D01*
X-1759094Y994615D01*
Y1005385D01*
X-1761882Y1015789D01*
X-1767267Y1025117D01*
X-1774883Y1032733D01*
X-1784211Y1038118D01*
X-1794615Y1040906D01*
D02*
G37*
G36*
X-1944537Y1041496D02*
X-1955463D01*
X-1966017Y1038668D01*
X-1975479Y1033205D01*
X-1983205Y1025479D01*
X-1988668Y1016017D01*
X-1991496Y1005463D01*
Y994537D01*
X-1988668Y983983D01*
X-1983205Y974521D01*
X-1975479Y966795D01*
X-1966017Y961332D01*
X-1955463Y958504D01*
X-1944537D01*
X-1933983Y961332D01*
X-1924521Y966795D01*
X-1916795Y974521D01*
X-1911332Y983983D01*
X-1908504Y994537D01*
Y1005463D01*
X-1911332Y1016017D01*
X-1916795Y1025479D01*
X-1924521Y1033205D01*
X-1933983Y1038668D01*
X-1944537Y1041496D01*
D02*
G37*
G36*
X-1577553Y1020518D02*
X-1585754D01*
X-1593676Y1018395D01*
X-1600779Y1014295D01*
X-1606578Y1008495D01*
X-1610679Y1001393D01*
X-1612802Y993471D01*
Y985269D01*
X-1610679Y977347D01*
X-1606578Y970245D01*
X-1600779Y964446D01*
X-1593676Y960345D01*
X-1585754Y958222D01*
X-1577553D01*
X-1569631Y960345D01*
X-1562528Y964446D01*
X-1556729Y970245D01*
X-1552628Y977347D01*
X-1550505Y985269D01*
Y993471D01*
X-1552628Y1001393D01*
X-1556729Y1008495D01*
X-1562528Y1014295D01*
X-1569631Y1018395D01*
X-1577553Y1020518D01*
D02*
G37*
G36*
X-735314Y1027244D02*
X-744686D01*
X-753737Y1024819D01*
X-761853Y1020133D01*
X-768480Y1013507D01*
X-773165Y1005391D01*
X-775591Y996339D01*
Y986968D01*
X-773165Y977916D01*
X-768480Y969800D01*
X-761853Y963174D01*
X-753737Y958488D01*
X-744686Y956063D01*
X-735314D01*
X-726263Y958488D01*
X-718147Y963174D01*
X-711520Y969800D01*
X-706835Y977916D01*
X-704409Y986968D01*
Y996339D01*
X-706835Y1005391D01*
X-711520Y1013507D01*
X-718147Y1020133D01*
X-726263Y1024819D01*
X-735314Y1027244D01*
D02*
G37*
G36*
X-783150D02*
X-854331D01*
Y956063D01*
X-783150D01*
Y1027244D01*
D02*
G37*
G36*
X-1633819Y1051377D02*
X-1736181D01*
X-1740083Y1050601D01*
X-1743390Y1048391D01*
X-1745601Y1045083D01*
X-1746377Y1041181D01*
Y938819D01*
X-1745601Y934917D01*
X-1743390Y931609D01*
X-1740083Y929399D01*
X-1736181Y928623D01*
X-1633819D01*
X-1629917Y929399D01*
X-1626609Y931609D01*
X-1624399Y934917D01*
X-1623623Y938819D01*
Y1041181D01*
X-1624399Y1045083D01*
X-1626609Y1048391D01*
X-1629917Y1050601D01*
X-1633819Y1051377D01*
D02*
G37*
G36*
X-155661Y971811D02*
X-164339D01*
X-172355Y968490D01*
X-178490Y962355D01*
X-181811Y954338D01*
Y945662D01*
X-178490Y937645D01*
X-172355Y931510D01*
X-164339Y928189D01*
X-155661D01*
X-147645Y931510D01*
X-141510Y937645D01*
X-138189Y945662D01*
Y954338D01*
X-141510Y962355D01*
X-147645Y968490D01*
X-155661Y971811D01*
D02*
G37*
G36*
X-1374615Y990905D02*
X-1385385D01*
X-1395789Y988118D01*
X-1405117Y982733D01*
X-1412733Y975117D01*
X-1418118Y965789D01*
X-1420906Y955385D01*
Y944615D01*
X-1418118Y934211D01*
X-1412733Y924883D01*
X-1405117Y917267D01*
X-1395789Y911882D01*
X-1385385Y909095D01*
X-1374615D01*
X-1364211Y911882D01*
X-1354883Y917267D01*
X-1347267Y924883D01*
X-1341882Y934211D01*
X-1339094Y944615D01*
Y955385D01*
X-1341882Y965789D01*
X-1347267Y975117D01*
X-1354883Y982733D01*
X-1364211Y988118D01*
X-1374615Y990905D01*
D02*
G37*
G36*
X-731110Y946889D02*
X-739600D01*
X-747801Y944691D01*
X-755154Y940446D01*
X-761157Y934443D01*
X-765402Y927091D01*
X-767599Y918890D01*
Y910400D01*
X-765402Y902199D01*
X-761157Y894846D01*
X-755154Y888843D01*
X-747801Y884598D01*
X-739600Y882401D01*
X-731110D01*
X-722909Y884598D01*
X-715557Y888843D01*
X-709554Y894846D01*
X-705309Y902199D01*
X-703111Y910400D01*
Y918890D01*
X-705309Y927091D01*
X-709554Y934443D01*
X-715557Y940446D01*
X-722909Y944691D01*
X-731110Y946889D01*
D02*
G37*
G36*
X-1545906Y946378D02*
X-1617401D01*
Y874882D01*
X-1545906D01*
Y946378D01*
D02*
G37*
G36*
X-1944537Y941496D02*
X-1955463D01*
X-1966017Y938668D01*
X-1975479Y933205D01*
X-1983205Y925479D01*
X-1988668Y916017D01*
X-1991496Y905463D01*
Y894537D01*
X-1988668Y883983D01*
X-1983205Y874521D01*
X-1975479Y866795D01*
X-1966017Y861332D01*
X-1955463Y858504D01*
X-1944537D01*
X-1933983Y861332D01*
X-1924521Y866795D01*
X-1916795Y874521D01*
X-1911332Y883983D01*
X-1908504Y894537D01*
Y905463D01*
X-1911332Y916017D01*
X-1916795Y925479D01*
X-1924521Y933205D01*
X-1933983Y938668D01*
X-1944537Y941496D01*
D02*
G37*
G36*
X-1794615Y840905D02*
X-1805385D01*
X-1815789Y838118D01*
X-1825117Y832733D01*
X-1832733Y825117D01*
X-1838118Y815789D01*
X-1840906Y805385D01*
Y794615D01*
X-1838118Y784211D01*
X-1832733Y774883D01*
X-1825117Y767267D01*
X-1815789Y761882D01*
X-1805385Y759095D01*
X-1794615D01*
X-1784211Y761882D01*
X-1774883Y767267D01*
X-1767267Y774883D01*
X-1761882Y784211D01*
X-1759094Y794615D01*
Y805385D01*
X-1761882Y815789D01*
X-1767267Y825117D01*
X-1774883Y832733D01*
X-1784211Y838118D01*
X-1794615Y840905D01*
D02*
G37*
G36*
X-1944537Y841496D02*
X-1955463D01*
X-1966017Y838668D01*
X-1975479Y833205D01*
X-1983205Y825479D01*
X-1988668Y816017D01*
X-1991496Y805463D01*
Y794537D01*
X-1988668Y783983D01*
X-1983205Y774521D01*
X-1975479Y766795D01*
X-1966017Y761332D01*
X-1955463Y758504D01*
X-1944537D01*
X-1933983Y761332D01*
X-1924521Y766795D01*
X-1916795Y774521D01*
X-1911332Y783983D01*
X-1908504Y794537D01*
Y805463D01*
X-1911332Y816017D01*
X-1916795Y825479D01*
X-1924521Y833205D01*
X-1933983Y838668D01*
X-1944537Y841496D01*
D02*
G37*
G36*
X-808819Y846377D02*
X-911181D01*
X-915083Y845601D01*
X-918391Y843391D01*
X-920601Y840083D01*
X-921377Y836181D01*
Y733819D01*
X-920601Y729917D01*
X-918391Y726609D01*
X-915083Y724399D01*
X-911181Y723623D01*
X-808819D01*
X-804917Y724399D01*
X-801609Y726609D01*
X-799399Y729917D01*
X-798623Y733819D01*
Y836181D01*
X-799399Y840083D01*
X-801609Y843391D01*
X-804917Y845601D01*
X-808819Y846377D01*
D02*
G37*
G36*
X-2415662Y741811D02*
X-2424338D01*
X-2432355Y738490D01*
X-2438490Y732355D01*
X-2441811Y724338D01*
Y715662D01*
X-2438490Y707645D01*
X-2432355Y701510D01*
X-2424338Y698189D01*
X-2415662D01*
X-2407645Y701510D01*
X-2401510Y707645D01*
X-2398189Y715662D01*
Y724338D01*
X-2401510Y732355D01*
X-2407645Y738490D01*
X-2415662Y741811D01*
D02*
G37*
G36*
X-3505392Y744000D02*
X-3514608D01*
X-3523510Y741615D01*
X-3531490Y737007D01*
X-3538007Y730490D01*
X-3542615Y722510D01*
X-3545000Y713608D01*
Y704392D01*
X-3542615Y695490D01*
X-3538007Y687510D01*
X-3531490Y680993D01*
X-3523510Y676385D01*
X-3514608Y674000D01*
X-3505392D01*
X-3496490Y676385D01*
X-3488510Y680993D01*
X-3481993Y687510D01*
X-3477385Y695490D01*
X-3475000Y704392D01*
Y713608D01*
X-3477385Y722510D01*
X-3481993Y730490D01*
X-3488510Y737007D01*
X-3496490Y741615D01*
X-3505392Y744000D01*
D02*
G37*
G36*
X-38819Y781377D02*
X-141181D01*
X-145083Y780601D01*
X-148391Y778391D01*
X-150601Y775083D01*
X-151377Y771181D01*
Y668819D01*
X-150601Y664917D01*
X-148391Y661610D01*
X-145083Y659399D01*
X-141181Y658623D01*
X-38819D01*
X-34917Y659399D01*
X-31609Y661610D01*
X-29399Y664917D01*
X-28623Y668819D01*
Y771181D01*
X-29399Y775083D01*
X-31609Y778391D01*
X-34917Y780601D01*
X-38819Y781377D01*
D02*
G37*
G36*
X-3324537Y711496D02*
X-3335463D01*
X-3346017Y708668D01*
X-3355479Y703205D01*
X-3363205Y695479D01*
X-3368668Y686017D01*
X-3371496Y675463D01*
Y664537D01*
X-3368668Y653983D01*
X-3363205Y644521D01*
X-3355479Y636795D01*
X-3346017Y631332D01*
X-3335463Y628504D01*
X-3324537D01*
X-3313983Y631332D01*
X-3304521Y636795D01*
X-3296795Y644521D01*
X-3291332Y653983D01*
X-3288504Y664537D01*
Y675463D01*
X-3291332Y686017D01*
X-3296795Y695479D01*
X-3304521Y703205D01*
X-3313983Y708668D01*
X-3324537Y711496D01*
D02*
G37*
G36*
X-1165661Y661811D02*
X-1174339D01*
X-1182355Y658490D01*
X-1188491Y652355D01*
X-1191811Y644338D01*
Y635662D01*
X-1188491Y627645D01*
X-1182355Y621510D01*
X-1174339Y618189D01*
X-1165661D01*
X-1157645Y621510D01*
X-1151509Y627645D01*
X-1148189Y635662D01*
Y644338D01*
X-1151509Y652355D01*
X-1157645Y658490D01*
X-1165661Y661811D01*
D02*
G37*
G36*
X-1254615Y670905D02*
X-1265385D01*
X-1275789Y668118D01*
X-1285117Y662733D01*
X-1292733Y655117D01*
X-1298118Y645789D01*
X-1300906Y635385D01*
Y624615D01*
X-1298118Y614211D01*
X-1292733Y604883D01*
X-1285117Y597267D01*
X-1275789Y591882D01*
X-1265385Y589095D01*
X-1254615D01*
X-1244211Y591882D01*
X-1234883Y597267D01*
X-1227267Y604883D01*
X-1221882Y614211D01*
X-1219094Y624615D01*
Y635385D01*
X-1221882Y645789D01*
X-1227267Y655117D01*
X-1234883Y662733D01*
X-1244211Y668118D01*
X-1254615Y670905D01*
D02*
G37*
G36*
X-1418819Y701377D02*
X-1521181D01*
X-1525083Y700601D01*
X-1528390Y698391D01*
X-1530601Y695083D01*
X-1531377Y691181D01*
Y588819D01*
X-1530601Y584917D01*
X-1528390Y581610D01*
X-1525083Y579399D01*
X-1521181Y578623D01*
X-1418819D01*
X-1414917Y579399D01*
X-1411609Y581610D01*
X-1409399Y584917D01*
X-1408623Y588819D01*
Y691181D01*
X-1409399Y695083D01*
X-1411609Y698391D01*
X-1414917Y700601D01*
X-1418819Y701377D01*
D02*
G37*
G36*
X-1115661Y611811D02*
X-1124339D01*
X-1132355Y608490D01*
X-1138491Y602355D01*
X-1141811Y594338D01*
Y585662D01*
X-1138491Y577645D01*
X-1132355Y571510D01*
X-1124339Y568189D01*
X-1115661D01*
X-1107645Y571510D01*
X-1101509Y577645D01*
X-1098189Y585662D01*
Y594338D01*
X-1101509Y602355D01*
X-1107645Y608490D01*
X-1115661Y611811D01*
D02*
G37*
G36*
X-3505392Y626000D02*
X-3514608D01*
X-3523510Y623615D01*
X-3531490Y619007D01*
X-3538007Y612490D01*
X-3542615Y604510D01*
X-3545000Y595608D01*
Y586392D01*
X-3542615Y577490D01*
X-3538007Y569510D01*
X-3531490Y562993D01*
X-3523510Y558385D01*
X-3514608Y556000D01*
X-3505392D01*
X-3496490Y558385D01*
X-3488510Y562993D01*
X-3481993Y569510D01*
X-3477385Y577490D01*
X-3475000Y586392D01*
Y595608D01*
X-3477385Y604510D01*
X-3481993Y612490D01*
X-3488510Y619007D01*
X-3496490Y623615D01*
X-3505392Y626000D01*
D02*
G37*
G36*
X-3324537Y611496D02*
X-3335463D01*
X-3346017Y608668D01*
X-3355479Y603205D01*
X-3363205Y595479D01*
X-3368668Y586017D01*
X-3371496Y575463D01*
Y564537D01*
X-3368668Y553983D01*
X-3363205Y544521D01*
X-3355479Y536795D01*
X-3346017Y531332D01*
X-3335463Y528504D01*
X-3324537D01*
X-3313983Y531332D01*
X-3304521Y536795D01*
X-3296795Y544521D01*
X-3291332Y553983D01*
X-3288504Y564537D01*
Y575463D01*
X-3291332Y586017D01*
X-3296795Y595479D01*
X-3304521Y603205D01*
X-3313983Y608668D01*
X-3324537Y611496D01*
D02*
G37*
G36*
X-2455662Y821811D02*
X-2464338D01*
X-2472355Y818490D01*
X-2478490Y812355D01*
X-2479910Y808929D01*
X-2504813Y784025D01*
X-2509233Y777410D01*
X-2510785Y769606D01*
Y510460D01*
X-2512851Y509267D01*
X-2519661Y502457D01*
X-2524476Y494117D01*
X-2526968Y484815D01*
Y475185D01*
X-2524476Y465883D01*
X-2519661Y457543D01*
X-2512851Y450733D01*
X-2504511Y445918D01*
X-2495209Y443425D01*
X-2485579D01*
X-2476276Y445918D01*
X-2467936Y450733D01*
X-2461127Y457543D01*
X-2456311Y465883D01*
X-2453819Y475185D01*
Y484815D01*
X-2456311Y494117D01*
X-2461127Y502457D01*
X-2467936Y509267D01*
X-2470002Y510460D01*
Y761160D01*
X-2451071Y780090D01*
X-2447645Y781510D01*
X-2441510Y787645D01*
X-2438189Y795662D01*
Y804338D01*
X-2441510Y812355D01*
X-2447645Y818490D01*
X-2455662Y821811D01*
D02*
G37*
G36*
X-2784791Y516575D02*
X-2794421D01*
X-2803724Y514082D01*
X-2812064Y509267D01*
X-2818873Y502457D01*
X-2823689Y494117D01*
X-2826181Y484815D01*
Y475185D01*
X-2823689Y465883D01*
X-2818873Y457543D01*
X-2812064Y450733D01*
X-2803724Y445918D01*
X-2794421Y443425D01*
X-2784791D01*
X-2775489Y445918D01*
X-2767149Y450733D01*
X-2760339Y457543D01*
X-2755524Y465883D01*
X-2753032Y475185D01*
Y484815D01*
X-2755524Y494117D01*
X-2760339Y502457D01*
X-2767149Y509267D01*
X-2775489Y514082D01*
X-2784791Y516575D01*
D02*
G37*
G36*
X-658819Y516377D02*
X-761181D01*
X-765083Y515601D01*
X-768390Y513391D01*
X-770601Y510083D01*
X-771377Y506181D01*
Y403819D01*
X-770601Y399917D01*
X-768390Y396610D01*
X-765083Y394399D01*
X-761181Y393623D01*
X-658819D01*
X-654917Y394399D01*
X-651609Y396610D01*
X-649399Y399917D01*
X-648623Y403819D01*
Y506181D01*
X-649399Y510083D01*
X-651609Y513391D01*
X-654917Y515601D01*
X-658819Y516377D01*
D02*
G37*
G36*
X-3180000Y505490D02*
X-3320000D01*
X-3329755Y503550D01*
X-3338024Y498024D01*
X-3424552Y411496D01*
X-3435463D01*
X-3446017Y408668D01*
X-3455479Y403205D01*
X-3463205Y395479D01*
X-3468668Y386017D01*
X-3471496Y375463D01*
Y364537D01*
X-3468668Y353983D01*
X-3463205Y344521D01*
X-3455479Y336795D01*
X-3446017Y331332D01*
X-3435463Y328504D01*
X-3424537D01*
X-3413983Y331332D01*
X-3404521Y336795D01*
X-3396795Y344521D01*
X-3391332Y353983D01*
X-3388504Y364537D01*
Y375448D01*
X-3369669Y394283D01*
X-3365669Y391212D01*
X-3368668Y386017D01*
X-3371496Y375463D01*
Y364537D01*
X-3368668Y353983D01*
X-3363205Y344521D01*
X-3355479Y336795D01*
X-3346017Y331332D01*
X-3335463Y328504D01*
X-3324537D01*
X-3313983Y331332D01*
X-3304521Y336795D01*
X-3296795Y344521D01*
X-3291332Y353983D01*
X-3288504Y364537D01*
Y375463D01*
X-3291332Y386017D01*
X-3296795Y395479D01*
X-3304521Y403205D01*
X-3313983Y408668D01*
X-3324537Y411496D01*
X-3335463D01*
X-3346017Y408668D01*
X-3351212Y405668D01*
X-3354282Y409670D01*
X-3309442Y454510D01*
X-3180000D01*
X-3170245Y456450D01*
X-3161976Y461976D01*
X-3156450Y470245D01*
X-3154510Y480000D01*
X-3156450Y489755D01*
X-3161976Y498024D01*
X-3170245Y503550D01*
X-3180000Y505490D01*
D02*
G37*
G36*
X-1015662Y441811D02*
X-1024339D01*
X-1032355Y438490D01*
X-1038491Y432355D01*
X-1041811Y424339D01*
Y415661D01*
X-1038491Y407645D01*
X-1034047Y403202D01*
X-1032897Y400000D01*
X-1034047Y396798D01*
X-1038491Y392355D01*
X-1041811Y384339D01*
Y375661D01*
X-1038491Y367645D01*
X-1034047Y363202D01*
X-1032897Y360000D01*
X-1034047Y356798D01*
X-1038491Y352355D01*
X-1041811Y344339D01*
Y335661D01*
X-1038491Y327645D01*
X-1034047Y323202D01*
X-1032897Y320000D01*
X-1034047Y316798D01*
X-1038491Y312355D01*
X-1041811Y304339D01*
Y295661D01*
X-1038491Y287645D01*
X-1033636Y282790D01*
X-1038295Y278132D01*
X-1041615Y270115D01*
Y261438D01*
X-1038295Y253422D01*
X-1032159Y247286D01*
X-1024143Y243966D01*
X-1015466D01*
X-1007449Y247286D01*
X-1001314Y253422D01*
X-997993Y261438D01*
Y270115D01*
X-1001314Y278132D01*
X-1006168Y282986D01*
X-1001510Y287645D01*
X-998189Y295661D01*
Y304339D01*
X-1001510Y312355D01*
X-1005953Y316798D01*
X-1007103Y320000D01*
X-1005953Y323202D01*
X-1001510Y327645D01*
X-998189Y335661D01*
Y344339D01*
X-1001510Y352355D01*
X-1005953Y356798D01*
X-1007103Y360000D01*
X-1005953Y363202D01*
X-1001510Y367645D01*
X-998189Y375661D01*
Y384339D01*
X-1001510Y392355D01*
X-1005953Y396798D01*
X-1007103Y400000D01*
X-1005953Y403202D01*
X-1001510Y407645D01*
X-998189Y415661D01*
Y424339D01*
X-1001510Y432355D01*
X-1007645Y438490D01*
X-1015662Y441811D01*
D02*
G37*
G36*
X-2255662Y661811D02*
X-2264338D01*
X-2272355Y658490D01*
X-2278490Y652355D01*
X-2281811Y644338D01*
Y635662D01*
X-2278490Y627645D01*
X-2275294Y624448D01*
Y449492D01*
X-2310814Y413971D01*
X-2314130Y409010D01*
X-2315294Y403157D01*
Y225552D01*
X-2318490Y222355D01*
X-2321811Y214339D01*
Y205661D01*
X-2318490Y197645D01*
X-2312355Y191510D01*
X-2304338Y188189D01*
X-2295662D01*
X-2287645Y191510D01*
X-2281510Y197645D01*
X-2278189Y205661D01*
Y214339D01*
X-2281510Y222355D01*
X-2284706Y225552D01*
Y396822D01*
X-2249186Y432342D01*
X-2245870Y437304D01*
X-2244706Y443157D01*
Y624448D01*
X-2241510Y627645D01*
X-2238189Y635662D01*
Y644338D01*
X-2241510Y652355D01*
X-2247645Y658490D01*
X-2255662Y661811D01*
D02*
G37*
G36*
X-2035661Y211811D02*
X-2044339D01*
X-2052355Y208490D01*
X-2058490Y202355D01*
X-2061811Y194339D01*
Y185661D01*
X-2058490Y177645D01*
X-2052355Y171510D01*
X-2044339Y168189D01*
X-2035661D01*
X-2027645Y171510D01*
X-2021509Y177645D01*
X-2018189Y185661D01*
Y194339D01*
X-2021509Y202355D01*
X-2027645Y208490D01*
X-2035661Y211811D01*
D02*
G37*
G36*
X174606Y194832D02*
X125394D01*
X113790Y193305D01*
X102978Y188826D01*
X93692Y181701D01*
X86568Y172416D01*
X82089Y161603D01*
X80561Y150000D01*
X82089Y138397D01*
X86568Y127584D01*
X93692Y118299D01*
X102978Y111174D01*
X113790Y106695D01*
X125394Y105168D01*
X174606D01*
X186210Y106695D01*
X197022Y111174D01*
X206308Y118299D01*
X213432Y127584D01*
X217911Y138397D01*
X219439Y150000D01*
X217911Y161603D01*
X213432Y172416D01*
X206308Y181701D01*
X197022Y188826D01*
X186210Y193305D01*
X174606Y194832D01*
D02*
G37*
G36*
X-304615Y150905D02*
X-315385D01*
X-325789Y148118D01*
X-335117Y142733D01*
X-342733Y135117D01*
X-348118Y125789D01*
X-350906Y115385D01*
Y104615D01*
X-348118Y94211D01*
X-342733Y84883D01*
X-335117Y77267D01*
X-325789Y71882D01*
X-315385Y69094D01*
X-304615D01*
X-294211Y71882D01*
X-284883Y77267D01*
X-277267Y84883D01*
X-271882Y94211D01*
X-269094Y104615D01*
Y115385D01*
X-271882Y125789D01*
X-277267Y135117D01*
X-284883Y142733D01*
X-294211Y148118D01*
X-304615Y150905D01*
D02*
G37*
G36*
X5463Y41496D02*
X-5463D01*
X-16017Y38668D01*
X-25479Y33205D01*
X-33205Y25479D01*
X-38668Y16017D01*
X-41496Y5463D01*
Y-5463D01*
X-38668Y-16017D01*
X-33205Y-25479D01*
X-25479Y-33205D01*
X-16017Y-38668D01*
X-5463Y-41496D01*
X5463D01*
X16017Y-38668D01*
X25479Y-33205D01*
X33205Y-25479D01*
X38668Y-16017D01*
X41496Y-5463D01*
Y5463D01*
X38668Y16017D01*
X33205Y25479D01*
X25479Y33205D01*
X16017Y38668D01*
X5463Y41496D01*
D02*
G37*
G36*
X-94537D02*
X-105463D01*
X-116017Y38668D01*
X-125479Y33205D01*
X-133205Y25479D01*
X-138668Y16017D01*
X-141496Y5463D01*
Y-5463D01*
X-138668Y-16017D01*
X-133205Y-25479D01*
X-125479Y-33205D01*
X-116017Y-38668D01*
X-105463Y-41496D01*
X-94537D01*
X-83983Y-38668D01*
X-74521Y-33205D01*
X-66795Y-25479D01*
X-61332Y-16017D01*
X-58504Y-5463D01*
Y5463D01*
X-61332Y16017D01*
X-66795Y25479D01*
X-74521Y33205D01*
X-83983Y38668D01*
X-94537Y41496D01*
D02*
G37*
G36*
X-194537D02*
X-205463D01*
X-216017Y38668D01*
X-225479Y33205D01*
X-233205Y25479D01*
X-238668Y16017D01*
X-241496Y5463D01*
Y-5463D01*
X-238668Y-16017D01*
X-233205Y-25479D01*
X-225479Y-33205D01*
X-216017Y-38668D01*
X-205463Y-41496D01*
X-194537D01*
X-183983Y-38668D01*
X-174521Y-33205D01*
X-166795Y-25479D01*
X-161332Y-16017D01*
X-158504Y-5463D01*
Y5463D01*
X-161332Y16017D01*
X-166795Y25479D01*
X-174521Y33205D01*
X-183983Y38668D01*
X-194537Y41496D01*
D02*
G37*
G36*
X-294537D02*
X-305463D01*
X-316017Y38668D01*
X-325479Y33205D01*
X-333205Y25479D01*
X-338668Y16017D01*
X-341496Y5463D01*
Y-5463D01*
X-338668Y-16017D01*
X-333205Y-25479D01*
X-325479Y-33205D01*
X-316017Y-38668D01*
X-305463Y-41496D01*
X-294537D01*
X-283983Y-38668D01*
X-274521Y-33205D01*
X-266795Y-25479D01*
X-261332Y-16017D01*
X-258504Y-5463D01*
Y5463D01*
X-261332Y16017D01*
X-266795Y25479D01*
X-274521Y33205D01*
X-283983Y38668D01*
X-294537Y41496D01*
D02*
G37*
G36*
X-394537D02*
X-405463D01*
X-416017Y38668D01*
X-425479Y33205D01*
X-433205Y25479D01*
X-438668Y16017D01*
X-441496Y5463D01*
Y-5463D01*
X-438668Y-16017D01*
X-433205Y-25479D01*
X-425479Y-33205D01*
X-416017Y-38668D01*
X-405463Y-41496D01*
X-394537D01*
X-383983Y-38668D01*
X-374521Y-33205D01*
X-366795Y-25479D01*
X-361332Y-16017D01*
X-358504Y-5463D01*
Y5463D01*
X-361332Y16017D01*
X-366795Y25479D01*
X-374521Y33205D01*
X-383983Y38668D01*
X-394537Y41496D01*
D02*
G37*
G36*
X-494537D02*
X-505463D01*
X-516017Y38668D01*
X-525479Y33205D01*
X-533205Y25479D01*
X-538668Y16017D01*
X-541496Y5463D01*
Y-5463D01*
X-538668Y-16017D01*
X-533205Y-25479D01*
X-525479Y-33205D01*
X-516017Y-38668D01*
X-505463Y-41496D01*
X-494537D01*
X-483983Y-38668D01*
X-474521Y-33205D01*
X-466795Y-25479D01*
X-461332Y-16017D01*
X-458504Y-5463D01*
Y5463D01*
X-461332Y16017D01*
X-466795Y25479D01*
X-474521Y33205D01*
X-483983Y38668D01*
X-494537Y41496D01*
D02*
G37*
G36*
X-465661Y291811D02*
X-474339D01*
X-482355Y288490D01*
X-488490Y282355D01*
X-491811Y274339D01*
Y265661D01*
X-488490Y257645D01*
X-482355Y251510D01*
X-474339Y248189D01*
X-465661D01*
X-457645Y251510D01*
X-451510Y257645D01*
X-448189Y265661D01*
Y274339D01*
X-451510Y282355D01*
X-457645Y288490D01*
X-465661Y291811D01*
D02*
G37*
%LPD*%
D14*
X-120000Y370000D02*
X-20000Y470000D01*
X-480000Y370000D02*
X-120000D01*
X-3320000Y480000D02*
X-3180000D01*
X-3430000Y370000D02*
X-3320000Y480000D01*
X-510000Y400000D02*
X-480000Y370000D01*
X-328757Y601243D02*
Y626646D01*
X-510000Y480000D02*
X-450000D01*
X-328757Y601243D01*
X-510000Y440000D02*
Y480000D01*
Y400000D02*
Y440000D01*
D17*
X-1173228Y769764D02*
X-1172992Y769528D01*
X-1600000Y1840000D02*
X-1320000D01*
X-1640000Y1880000D02*
X-1600000Y1840000D01*
X-1320000D02*
X-1260000Y1900000D01*
X-2300000Y403157D02*
X-2260000Y443157D01*
Y640000D01*
X-2300000Y210000D02*
Y403157D01*
X-580000Y280000D02*
Y340000D01*
X-750000Y110000D02*
X-580000Y280000D01*
X-1960000Y-50000D02*
X-780000D01*
X-2150000Y140000D02*
X-1960000Y-50000D01*
X-2150000Y140000D02*
Y190000D01*
X-780000Y-50000D02*
X-750000Y-20000D01*
Y110000D01*
D46*
X-2950000Y1491929D02*
D03*
Y1608071D02*
D03*
D47*
X-3010039Y1550000D02*
D03*
D101*
X-310000Y110000D02*
D03*
X-1800000Y800000D02*
D03*
Y1000000D02*
D03*
X-1260000Y630000D02*
D03*
X-1380000Y950000D02*
D03*
D103*
X-2490394Y480000D02*
D03*
X-2789606D02*
D03*
D106*
X-3082285Y1571655D02*
X-3075013Y1565278D01*
X-3066971Y1559905D01*
X-3058296Y1555628D01*
X-3049137Y1552519D01*
X-3039651Y1550632D01*
X-3030000Y1550000D01*
X-3110630Y1600000D02*
X-3082285Y1571655D01*
D107*
X-222441Y507559D02*
X-212466Y508432D01*
X-202795Y511023D01*
X-193720Y515255D01*
X-185519Y520998D01*
X-178439Y528078D01*
X-172696Y536279D01*
X-168464Y545354D01*
X-165873Y555025D01*
X-165000Y565000D01*
X-960000Y710000D02*
X-820000D01*
X-1470000Y780000D02*
X-1165000D01*
X-1022000Y710000D02*
X-1000000D01*
X-600000Y530000D02*
Y560000D01*
X-817402Y530000D02*
X-600000D01*
X-817402D02*
Y609803D01*
X-550000Y642323D02*
X-507756D01*
X-562598D02*
X-550000D01*
Y990000D02*
X-470000D01*
X-550000Y642323D02*
Y990000D01*
X-289803Y507559D02*
Y552598D01*
X-470000Y727323D02*
X-165000D01*
Y565000D02*
Y727323D01*
X-290000Y507559D02*
X-289803D01*
X-222441D01*
X-1470000Y713553D02*
Y780000D01*
X-1523425Y1209527D02*
X-1440473D01*
X-1350000Y1220000D02*
X-1320000D01*
X-1280000D02*
X-1204134D01*
X-1095866Y1182599D02*
X-1040000D01*
Y1180000D02*
Y1182599D01*
X-980000Y1180000D02*
Y1270000D01*
Y1310000D02*
Y1400000D01*
D110*
X-2490394Y480000D02*
Y769606D01*
X-2460000Y800000D01*
D111*
X-1230787Y465239D02*
D03*
X-1194761Y429213D02*
D03*
X-1280000Y478425D02*
D03*
X-1329213Y465239D02*
D03*
X-1365239Y429213D02*
D03*
X-1378425Y380000D02*
D03*
X-1365239Y330787D02*
D03*
X-1329213Y294761D02*
D03*
X-1280000Y281575D02*
D03*
X-1230787Y294761D02*
D03*
X-1194761Y330787D02*
D03*
X-1181575Y380000D02*
D03*
X-3251575Y1400000D02*
D03*
X-3264761Y1350787D02*
D03*
X-3300787Y1314761D02*
D03*
X-3350000Y1301575D02*
D03*
X-3399213Y1314761D02*
D03*
X-3435239Y1350787D02*
D03*
X-3448425Y1400000D02*
D03*
X-3435239Y1449213D02*
D03*
X-3399213Y1485239D02*
D03*
X-3350000Y1498425D02*
D03*
X-3264761Y1449213D02*
D03*
X-3300787Y1485239D02*
D03*
X-2900787Y1885239D02*
D03*
X-2864761Y1849213D02*
D03*
X-2950000Y1898425D02*
D03*
X-2999213Y1885239D02*
D03*
X-3035239Y1849213D02*
D03*
X-3048425Y1800000D02*
D03*
X-3035239Y1750787D02*
D03*
X-2999213Y1714761D02*
D03*
X-2950000Y1701575D02*
D03*
X-2900787Y1714761D02*
D03*
X-2864761Y1750787D02*
D03*
X-2851575Y1800000D02*
D03*
X-1661575Y600000D02*
D03*
X-1674761Y550787D02*
D03*
X-1710787Y514761D02*
D03*
X-1760000Y501575D02*
D03*
X-1809213Y514761D02*
D03*
X-1845239Y550787D02*
D03*
X-1858425Y600000D02*
D03*
X-1845239Y649213D02*
D03*
X-1809213Y685239D02*
D03*
X-1760000Y698425D02*
D03*
X-1674761Y649213D02*
D03*
X-1710787Y685239D02*
D03*
X-1661575Y1400000D02*
D03*
X-1674761Y1350787D02*
D03*
X-1710787Y1314761D02*
D03*
X-1760000Y1301575D02*
D03*
X-1809213Y1314761D02*
D03*
X-1845239Y1350787D02*
D03*
X-1858425Y1400000D02*
D03*
X-1845239Y1449213D02*
D03*
X-1809213Y1485239D02*
D03*
X-1760000Y1498425D02*
D03*
X-1674761Y1449213D02*
D03*
X-1710787Y1485239D02*
D03*
X249213Y635239D02*
D03*
X285239Y599213D02*
D03*
X200000Y648425D02*
D03*
X150787Y635239D02*
D03*
X114761Y599213D02*
D03*
X101575Y550000D02*
D03*
X114761Y500787D02*
D03*
X150787Y464761D02*
D03*
X200000Y451575D02*
D03*
X249213Y464761D02*
D03*
X285239Y500787D02*
D03*
X298425Y550000D02*
D03*
X249213Y1435239D02*
D03*
X285239Y1399213D02*
D03*
X200000Y1448425D02*
D03*
X150787Y1435239D02*
D03*
X114761Y1399213D02*
D03*
X101575Y1350000D02*
D03*
X114761Y1300787D02*
D03*
X150787Y1264761D02*
D03*
X200000Y1251575D02*
D03*
X249213Y1264761D02*
D03*
X285239Y1300787D02*
D03*
X298425Y1350000D02*
D03*
X-3375984Y1069491D02*
D03*
X-3339958Y1033465D02*
D03*
X-3425197Y1082677D02*
D03*
X-3474410Y1069491D02*
D03*
X-3510436Y1033465D02*
D03*
X-3523622Y984252D02*
D03*
X-3510436Y935039D02*
D03*
X-3474410Y899013D02*
D03*
X-3425197Y885827D02*
D03*
X-3375984Y899013D02*
D03*
X-3339958Y935039D02*
D03*
X-3326772Y984252D02*
D03*
X-3375984Y163979D02*
D03*
X-3339958Y127953D02*
D03*
X-3425197Y177165D02*
D03*
X-3474410Y163979D02*
D03*
X-3510436Y127953D02*
D03*
X-3523622Y78740D02*
D03*
X-3510436Y29528D02*
D03*
X-3474410Y-6498D02*
D03*
X-3425197Y-19685D02*
D03*
X-3375984Y-6498D02*
D03*
X-3339958Y29528D02*
D03*
X-3326772Y78740D02*
D03*
X-891039Y1151184D02*
D03*
X-890043Y1184791D02*
D03*
X-890830Y1218404D02*
D03*
X-550000Y490000D02*
D03*
X-515000Y555000D02*
D03*
X-675000Y665000D02*
D03*
X-2420000Y720000D02*
D03*
X-1170000Y640000D02*
D03*
X-1020000Y300000D02*
D03*
Y340000D02*
D03*
Y420000D02*
D03*
X-1019804Y265777D02*
D03*
X-1496332Y1050000D02*
D03*
X-1080000Y1270000D02*
D03*
X-330000Y1510000D02*
D03*
X-1020000Y380000D02*
D03*
X-2040000Y190000D02*
D03*
X-200000Y1650000D02*
D03*
X-1290000Y1090000D02*
D03*
X250000Y1750000D02*
D03*
Y1550000D02*
D03*
Y1150000D02*
D03*
Y950000D02*
D03*
Y750000D02*
D03*
Y350000D02*
D03*
Y150000D02*
D03*
X150000Y1550000D02*
D03*
Y1150000D02*
D03*
Y750000D02*
D03*
Y350000D02*
D03*
X0Y1650000D02*
D03*
X50000Y1550000D02*
D03*
X0Y1450000D02*
D03*
X50000Y1350000D02*
D03*
X-50000Y1550000D02*
D03*
X-100000Y1450000D02*
D03*
Y1250000D02*
D03*
Y850000D02*
D03*
X-150000Y1550000D02*
D03*
X-200000Y1450000D02*
D03*
X-150000Y1350000D02*
D03*
X-200000Y850000D02*
D03*
X-250000Y1550000D02*
D03*
X-300000Y1050000D02*
D03*
X-250000Y950000D02*
D03*
X-300000Y850000D02*
D03*
X-350000Y1750000D02*
D03*
X-400000Y1650000D02*
D03*
Y1250000D02*
D03*
X-350000Y950000D02*
D03*
X-400000Y850000D02*
D03*
X-450000Y1750000D02*
D03*
X-500000Y1650000D02*
D03*
Y1450000D02*
D03*
X-550000Y1750000D02*
D03*
X-600000Y1650000D02*
D03*
X-550000Y1550000D02*
D03*
X-600000Y1450000D02*
D03*
X-550000Y1350000D02*
D03*
X-650000Y1750000D02*
D03*
X-700000Y1650000D02*
D03*
X-650000Y1550000D02*
D03*
X-700000Y850000D02*
D03*
Y250000D02*
D03*
X-800000Y1850000D02*
D03*
X-750000Y1750000D02*
D03*
X-800000Y1650000D02*
D03*
X-750000Y1550000D02*
D03*
X-800000Y1450000D02*
D03*
Y1250000D02*
D03*
Y250000D02*
D03*
X-900000Y1850000D02*
D03*
X-850000Y1750000D02*
D03*
X-900000Y1650000D02*
D03*
X-850000Y1550000D02*
D03*
Y1350000D02*
D03*
X-1000000Y1850000D02*
D03*
X-950000Y1750000D02*
D03*
X-1000000Y1650000D02*
D03*
Y1050000D02*
D03*
X-950000Y950000D02*
D03*
X-1000000Y850000D02*
D03*
X-1100000Y1850000D02*
D03*
X-1050000Y1750000D02*
D03*
X-1100000Y1650000D02*
D03*
Y1450000D02*
D03*
Y1050000D02*
D03*
Y450000D02*
D03*
X-1200000Y1850000D02*
D03*
X-1150000Y1750000D02*
D03*
X-1200000Y1650000D02*
D03*
X-1150000Y1550000D02*
D03*
X-1200000Y1050000D02*
D03*
X-1150000Y550000D02*
D03*
X-1200000Y250000D02*
D03*
X-1250000Y1750000D02*
D03*
X-1300000Y1650000D02*
D03*
X-1250000Y1550000D02*
D03*
Y550000D02*
D03*
X-1350000Y1750000D02*
D03*
X-1400000Y1650000D02*
D03*
X-1350000Y1550000D02*
D03*
X-1400000Y1450000D02*
D03*
X-1350000Y550000D02*
D03*
X-1400000Y250000D02*
D03*
X-1450000Y1750000D02*
D03*
X-1500000Y1650000D02*
D03*
X-1450000Y1550000D02*
D03*
Y950000D02*
D03*
X-1500000Y450000D02*
D03*
X-1450000Y350000D02*
D03*
X-1500000Y250000D02*
D03*
X-1550000Y1750000D02*
D03*
X-1600000Y1650000D02*
D03*
X-1550000Y1550000D02*
D03*
X-1600000Y650000D02*
D03*
Y450000D02*
D03*
X-1550000Y350000D02*
D03*
X-1600000Y250000D02*
D03*
X-1650000Y1750000D02*
D03*
X-1700000Y1650000D02*
D03*
X-1650000Y1550000D02*
D03*
X-1700000Y1250000D02*
D03*
X-1650000Y750000D02*
D03*
X-1700000Y450000D02*
D03*
X-1650000Y350000D02*
D03*
X-1700000Y250000D02*
D03*
X-1750000Y1750000D02*
D03*
X-1800000Y1650000D02*
D03*
X-1750000Y1550000D02*
D03*
X-1800000Y1250000D02*
D03*
X-1750000Y1150000D02*
D03*
Y750000D02*
D03*
X-1800000Y450000D02*
D03*
X-1750000Y350000D02*
D03*
X-1900000Y1650000D02*
D03*
X-1850000Y1550000D02*
D03*
X-1900000Y1450000D02*
D03*
Y1250000D02*
D03*
X-1850000Y1150000D02*
D03*
X-1900000Y1050000D02*
D03*
X-1850000Y950000D02*
D03*
X-1900000Y850000D02*
D03*
X-1850000Y750000D02*
D03*
X-1900000Y650000D02*
D03*
Y450000D02*
D03*
Y50000D02*
D03*
X-1950000Y1750000D02*
D03*
X-2000000Y1650000D02*
D03*
Y1450000D02*
D03*
Y1250000D02*
D03*
Y1050000D02*
D03*
Y850000D02*
D03*
Y450000D02*
D03*
X-2100000Y1850000D02*
D03*
X-2050000Y1550000D02*
D03*
Y1350000D02*
D03*
X-2100000Y450000D02*
D03*
Y250000D02*
D03*
X-2200000Y1850000D02*
D03*
X-2150000Y1750000D02*
D03*
X-2200000Y1650000D02*
D03*
X-2150000Y1550000D02*
D03*
X-2200000Y1450000D02*
D03*
X-2150000Y1350000D02*
D03*
X-2200000Y1250000D02*
D03*
X-2150000Y1150000D02*
D03*
X-2200000Y1050000D02*
D03*
Y250000D02*
D03*
X-2300000Y1850000D02*
D03*
X-2250000Y1750000D02*
D03*
X-2300000Y1650000D02*
D03*
X-2250000Y1550000D02*
D03*
X-2300000Y1450000D02*
D03*
X-2250000Y1350000D02*
D03*
X-2300000Y1250000D02*
D03*
X-2250000Y1150000D02*
D03*
X-2300000Y1050000D02*
D03*
Y850000D02*
D03*
Y450000D02*
D03*
X-2250000Y150000D02*
D03*
X-2400000Y1850000D02*
D03*
X-2350000Y1750000D02*
D03*
X-2400000Y1650000D02*
D03*
X-2350000Y1550000D02*
D03*
X-2400000Y1450000D02*
D03*
X-2350000Y1350000D02*
D03*
X-2400000Y1250000D02*
D03*
X-2350000Y1150000D02*
D03*
X-2400000Y1050000D02*
D03*
Y850000D02*
D03*
X-2350000Y350000D02*
D03*
X-2400000Y250000D02*
D03*
Y50000D02*
D03*
X-2500000Y1850000D02*
D03*
X-2450000Y1750000D02*
D03*
X-2500000Y1650000D02*
D03*
X-2450000Y1550000D02*
D03*
X-2500000Y1450000D02*
D03*
X-2450000Y1350000D02*
D03*
X-2500000Y1250000D02*
D03*
X-2450000Y1150000D02*
D03*
X-2500000Y1050000D02*
D03*
Y850000D02*
D03*
X-2450000Y550000D02*
D03*
X-2500000Y250000D02*
D03*
X-2450000Y150000D02*
D03*
X-2500000Y50000D02*
D03*
X-2600000Y1850000D02*
D03*
X-2550000Y1750000D02*
D03*
X-2600000Y1650000D02*
D03*
X-2550000Y1550000D02*
D03*
X-2600000Y1450000D02*
D03*
X-2550000Y1350000D02*
D03*
X-2600000Y1250000D02*
D03*
X-2550000Y1150000D02*
D03*
X-2600000Y1050000D02*
D03*
X-2550000Y950000D02*
D03*
X-2600000Y850000D02*
D03*
X-2550000Y750000D02*
D03*
X-2600000Y650000D02*
D03*
Y450000D02*
D03*
X-2550000Y350000D02*
D03*
X-2600000Y250000D02*
D03*
X-2550000Y150000D02*
D03*
X-2600000Y50000D02*
D03*
X-2650000Y1150000D02*
D03*
X-2700000Y1050000D02*
D03*
X-2650000Y950000D02*
D03*
X-2700000Y850000D02*
D03*
X-2650000Y750000D02*
D03*
X-2700000Y650000D02*
D03*
Y450000D02*
D03*
X-2650000Y350000D02*
D03*
X-2700000Y250000D02*
D03*
X-2650000Y150000D02*
D03*
X-2700000Y50000D02*
D03*
X-2800000Y1050000D02*
D03*
X-2750000Y950000D02*
D03*
X-2800000Y850000D02*
D03*
X-2750000Y750000D02*
D03*
X-2800000Y650000D02*
D03*
X-2750000Y550000D02*
D03*
X-2800000Y250000D02*
D03*
X-2750000Y150000D02*
D03*
X-2800000Y50000D02*
D03*
X-2900000Y1050000D02*
D03*
X-2850000Y950000D02*
D03*
X-2900000Y850000D02*
D03*
X-2850000Y750000D02*
D03*
X-2900000Y650000D02*
D03*
X-2850000Y550000D02*
D03*
X-2900000Y450000D02*
D03*
Y250000D02*
D03*
X-2850000Y150000D02*
D03*
X-2900000Y50000D02*
D03*
X-3000000Y1050000D02*
D03*
X-2950000Y950000D02*
D03*
X-3000000Y850000D02*
D03*
X-2950000Y750000D02*
D03*
X-3000000Y650000D02*
D03*
X-2950000Y550000D02*
D03*
X-3000000Y250000D02*
D03*
X-2950000Y150000D02*
D03*
X-3000000Y50000D02*
D03*
X-3100000Y1050000D02*
D03*
X-3050000Y950000D02*
D03*
X-3100000Y850000D02*
D03*
X-3050000Y750000D02*
D03*
X-3100000Y650000D02*
D03*
X-3050000Y550000D02*
D03*
X-3100000Y250000D02*
D03*
X-3050000Y150000D02*
D03*
X-3100000Y50000D02*
D03*
X-3200000Y1050000D02*
D03*
X-3150000Y950000D02*
D03*
X-3200000Y850000D02*
D03*
X-3150000Y750000D02*
D03*
Y550000D02*
D03*
Y350000D02*
D03*
X-3200000Y250000D02*
D03*
X-3150000Y150000D02*
D03*
X-3200000Y50000D02*
D03*
X-3250000Y950000D02*
D03*
X-3300000Y850000D02*
D03*
X-3250000Y750000D02*
D03*
Y350000D02*
D03*
X-3300000Y250000D02*
D03*
X-3250000Y150000D02*
D03*
X-3400000Y250000D02*
D03*
X-3500000Y850000D02*
D03*
Y650000D02*
D03*
Y450000D02*
D03*
Y250000D02*
D03*
X-950000Y380000D02*
D03*
X-1060000Y300000D02*
D03*
X-1070000Y380000D02*
D03*
X-1990000Y740000D02*
D03*
Y700000D02*
D03*
X-2030000D02*
D03*
X-2220000Y470000D02*
D03*
X-2230000Y560000D02*
D03*
X-2200000Y590000D02*
D03*
X-900000Y1530000D02*
D03*
X-1060000D02*
D03*
X-1410000Y1420000D02*
D03*
X-1570000D02*
D03*
X-1330000D02*
D03*
X-1170000D02*
D03*
X-1560000Y640000D02*
D03*
X-420000Y590000D02*
D03*
X-130000Y1000000D02*
D03*
X-600000Y1210000D02*
D03*
X-720000D02*
D03*
X-660000D02*
D03*
X-680000Y1460000D02*
D03*
X-570000Y1400000D02*
D03*
X-2000000Y50000D02*
D03*
X-2120000D02*
D03*
X-2240000D02*
D03*
X-2360000D02*
D03*
X-2240000Y320000D02*
D03*
X-1220000Y690000D02*
D03*
X-470000Y270000D02*
D03*
X-460000Y1550000D02*
D03*
X-1080000Y1310000D02*
D03*
X-40000Y1650000D02*
D03*
X-1400000Y1310000D02*
D03*
X-1290000Y1130000D02*
D03*
X-910000Y590000D02*
D03*
X-750000Y770000D02*
D03*
X-720000Y750000D02*
D03*
X-680000D02*
D03*
X-465000Y865000D02*
D03*
Y815000D02*
D03*
X-425000Y865000D02*
D03*
X-465000Y840000D02*
D03*
X-410697Y816115D02*
D03*
X-377075D02*
D03*
X-343453D02*
D03*
X-309831D02*
D03*
X-276209D02*
D03*
X-242587D02*
D03*
X-208965D02*
D03*
X-175343D02*
D03*
X-141722Y815863D02*
D03*
X-76208Y606339D02*
D03*
Y572717D02*
D03*
X-78754Y539191D02*
D03*
X-105153Y477811D02*
D03*
X-156298Y434818D02*
D03*
X-187800Y423069D02*
D03*
X-221150Y418799D02*
D03*
X-254772Y418767D02*
D03*
X-288374Y417602D02*
D03*
X-321970Y418909D02*
D03*
X-352935Y432009D02*
D03*
X-375140Y457256D02*
D03*
X-384463Y489559D02*
D03*
X-475000Y560000D02*
D03*
X-1393956Y868792D02*
D03*
X-1350000Y870000D02*
D03*
X-1341453Y692165D02*
D03*
X-1374137Y684280D02*
D03*
X-1564674Y667303D02*
D03*
X-1565863Y700904D02*
D03*
X-1564505Y734499D02*
D03*
X-1555889Y766998D02*
D03*
X-1544608Y798671D02*
D03*
X-1525511Y826343D02*
D03*
X-1499901Y848128D02*
D03*
X-1469525Y862540D02*
D03*
X-1436429Y868465D02*
D03*
X-1203956Y868792D02*
D03*
X-1170334D02*
D03*
X-1137075Y863869D02*
D03*
X-1107786Y847358D02*
D03*
X-1315742Y691208D02*
D03*
X-1308861Y868792D02*
D03*
X-1275242Y869170D02*
D03*
X-1241622Y868792D02*
D03*
X-735595Y667278D02*
D03*
X-950994Y621208D02*
D03*
X-984580Y622759D02*
D03*
X-987212Y796982D02*
D03*
X-1020000Y620000D02*
D03*
X-1050000D02*
D03*
X-1080000Y830000D02*
D03*
X-1050000Y810000D02*
D03*
X-1020000Y800000D02*
D03*
X-950000D02*
D03*
X-1560000Y610000D02*
D03*
X-1550000Y570000D02*
D03*
X-1383774Y653774D02*
D03*
Y606226D02*
D03*
X-790000Y420000D02*
D03*
X-670000Y380000D02*
D03*
X-710000D02*
D03*
X-780000Y390000D02*
D03*
X-630000Y460000D02*
D03*
X-600000Y470000D02*
D03*
X-570000D02*
D03*
X-440000Y815000D02*
D03*
X-1471024Y1090000D02*
D03*
X-1522958Y895741D02*
D03*
X-1529442Y862750D02*
D03*
X-1561606Y852958D02*
D03*
X-1595228D02*
D03*
X-1628850D02*
D03*
X-1644500Y823200D02*
D03*
X-1744549Y812958D02*
D03*
X-1787042Y1053606D02*
D03*
X-1780995Y1086680D02*
D03*
X-1749010Y1097042D02*
D03*
X-1715388D02*
D03*
X-1681766D02*
D03*
X-1469371Y974281D02*
D03*
X-1479090Y942094D02*
D03*
X-1497772Y914140D02*
D03*
X-1669821Y1122487D02*
D03*
X-1669220Y1156104D02*
D03*
X-1665000Y1190000D02*
D03*
Y1225000D02*
D03*
X-1651332Y1255000D02*
D03*
X-1630000Y1280000D02*
D03*
X-1575000Y1300000D02*
D03*
X-1336332Y1310000D02*
D03*
X-1366332D02*
D03*
X-1165000Y1305000D02*
D03*
X-1136332Y1275000D02*
D03*
X-884398Y1443277D02*
D03*
X-884137Y1409656D02*
D03*
X-888077Y1376266D02*
D03*
X-891208Y1342790D02*
D03*
X-891290Y1309168D02*
D03*
X-895020Y1275753D02*
D03*
X-1069170Y1359825D02*
D03*
X-1075233Y1392896D02*
D03*
X-1075863Y1426512D02*
D03*
X-1071332Y1460000D02*
D03*
Y1500000D02*
D03*
X-886332D02*
D03*
Y1470000D02*
D03*
X-1035000Y1565000D02*
D03*
X-926332D02*
D03*
X-956332Y1585000D02*
D03*
X-996332D02*
D03*
X-1573668Y1350000D02*
D03*
Y1390000D02*
D03*
X-1550000Y1450000D02*
D03*
X-1430000D02*
D03*
X-1460000Y1470000D02*
D03*
X-1520000D02*
D03*
X-1490000Y1480000D02*
D03*
X-1406332Y1390000D02*
D03*
Y1350000D02*
D03*
X-1333668Y1390000D02*
D03*
Y1350000D02*
D03*
X-1166332Y1390000D02*
D03*
Y1350000D02*
D03*
X-1310000Y1450000D02*
D03*
X-1190000D02*
D03*
X-1220000Y1470000D02*
D03*
X-1280000D02*
D03*
X-1250000Y1480000D02*
D03*
X-1260000Y1110000D02*
D03*
X-1220000Y1090000D02*
D03*
X-1180000D02*
D03*
X-1140000D02*
D03*
X-1100000D02*
D03*
X-1060000D02*
D03*
X-1020000D02*
D03*
X-980000D02*
D03*
X-940000Y1100000D02*
D03*
X-910000Y1120000D02*
D03*
X-890000Y1250000D02*
D03*
X-935000Y830000D02*
D03*
X-785000Y790000D02*
D03*
Y830000D02*
D03*
X-810000Y860000D02*
D03*
X-920000D02*
D03*
X-880000D02*
D03*
X-850000D02*
D03*
X-588839Y442307D02*
D03*
X-815301Y441208D02*
D03*
X-848409Y447066D02*
D03*
X-897100Y491653D02*
D03*
X-905620Y524178D02*
D03*
X-909170Y557612D02*
D03*
X-1210000Y660000D02*
D03*
X-1370000Y1050000D02*
D03*
X-1330000D02*
D03*
X-1290000D02*
D03*
X-1715000Y815000D02*
D03*
X-1680000D02*
D03*
X-110000Y800000D02*
D03*
X-80000D02*
D03*
X-50000D02*
D03*
X-75000Y640000D02*
D03*
X-40000D02*
D03*
X-20000Y800000D02*
D03*
X-15000Y665000D02*
D03*
Y770000D02*
D03*
Y700000D02*
D03*
Y735000D02*
D03*
X-475000Y520000D02*
D03*
X-1070000Y420000D02*
D03*
X-950000D02*
D03*
X-1090000Y630000D02*
D03*
X-128285Y453412D02*
D03*
X-91243Y509379D02*
D03*
X-750000Y380000D02*
D03*
X-630000Y420000D02*
D03*
X-540000Y290000D02*
D03*
X-640000Y390000D02*
D03*
X-877065Y464652D02*
D03*
X-1520000Y550000D02*
D03*
X-1450000Y530000D02*
D03*
X-1490000D02*
D03*
X-1420000Y550000D02*
D03*
X-1390000Y570000D02*
D03*
X-1130000Y640000D02*
D03*
X-960000Y220000D02*
D03*
X-690000Y910000D02*
D03*
X-1120000Y300000D02*
D03*
X-1110000Y240000D02*
D03*
X-960000Y260000D02*
D03*
X-405000Y895000D02*
D03*
Y925000D02*
D03*
X-390000Y960000D02*
D03*
X-385000Y995000D02*
D03*
X-395000Y1035000D02*
D03*
X-559449Y1073668D02*
D03*
X-635000Y745000D02*
D03*
Y775000D02*
D03*
Y805000D02*
D03*
Y835000D02*
D03*
Y865000D02*
D03*
Y895000D02*
D03*
X-665000Y905000D02*
D03*
X-1800000Y935000D02*
D03*
X-1784539Y850984D02*
D03*
X-3220000Y570000D02*
D03*
Y670000D02*
D03*
X-3330000Y810000D02*
D03*
X-1390000Y1070000D02*
D03*
X-1469658Y1007902D02*
D03*
X-1640000Y1880000D02*
D03*
X-2460000Y800000D02*
D03*
X-2260000Y640000D02*
D03*
X-2300000Y210000D02*
D03*
X-600000Y1160000D02*
D03*
X-660000D02*
D03*
X-720000D02*
D03*
X-560000Y210000D02*
D03*
X-510000D02*
D03*
Y150000D02*
D03*
X-560000D02*
D03*
X-640000Y180000D02*
D03*
Y140000D02*
D03*
Y100000D02*
D03*
X-3180000Y480000D02*
D03*
X-580000Y340000D02*
D03*
X-1120000Y590000D02*
D03*
X-160000Y950000D02*
D03*
X-328757Y626646D02*
D03*
X-2150000Y190000D02*
D03*
X-510000Y440000D02*
D03*
Y400000D02*
D03*
Y480000D02*
D03*
D112*
X-1280000Y380000D02*
D03*
X-3350000Y1400000D02*
D03*
X-2950000Y1800000D02*
D03*
X-1760000Y600000D02*
D03*
Y1400000D02*
D03*
X200000Y550000D02*
D03*
Y1350000D02*
D03*
X-3425197Y984252D02*
D03*
Y78740D02*
D03*
D113*
X-1580000Y890000D02*
D03*
D114*
Y990000D02*
D03*
X-735355Y985355D02*
D03*
D115*
X-1581653Y989370D02*
D03*
D116*
Y910630D02*
D03*
D117*
X-20000Y470000D02*
D03*
Y370000D02*
D03*
Y570000D02*
D03*
X-860000Y1900000D02*
D03*
X-960000D02*
D03*
X-1060000D02*
D03*
X-1160000D02*
D03*
X-1360000D02*
D03*
X-1560000D02*
D03*
X-1260000D02*
D03*
X-1460000D02*
D03*
X-680000Y1310000D02*
D03*
X-780000D02*
D03*
X-1950000Y800000D02*
D03*
Y900000D02*
D03*
Y1000000D02*
D03*
Y1200000D02*
D03*
Y1100000D02*
D03*
Y1300000D02*
D03*
Y1500000D02*
D03*
X-900000Y0D02*
D03*
X-800000D02*
D03*
X-1950000Y1700000D02*
D03*
X-700000Y0D02*
D03*
X-1000000D02*
D03*
X-3430000Y370000D02*
D03*
X-3330000Y570000D02*
D03*
Y670000D02*
D03*
X-1100000Y0D02*
D03*
X-1200000D02*
D03*
X-700000Y1900000D02*
D03*
X-600000D02*
D03*
X-500000D02*
D03*
X-400000D02*
D03*
X-300000D02*
D03*
X-200000D02*
D03*
X-100000D02*
D03*
X-0D02*
D03*
X-500000Y0D02*
D03*
X-400000D02*
D03*
X-300000D02*
D03*
X-200000D02*
D03*
X-100000D02*
D03*
X0D02*
D03*
X-20000Y1370000D02*
D03*
Y1270000D02*
D03*
Y1170000D02*
D03*
X-1950000Y1600000D02*
D03*
X-3330000Y370000D02*
D03*
D118*
X-735355Y914645D02*
D03*
X-3150000Y1639370D02*
D03*
X-3189370Y1600000D02*
D03*
D119*
X-664645Y985355D02*
D03*
D120*
X-3510000Y709000D02*
D03*
Y591000D02*
D03*
D121*
X150000Y150000D02*
D03*
Y248425D02*
D03*
Y51575D02*
D03*
Y1048425D02*
D03*
Y950000D02*
D03*
Y851575D02*
D03*
Y1848425D02*
D03*
Y1651575D02*
D03*
Y1750000D02*
D03*
D122*
X-3110630Y1600000D02*
D03*
D123*
X-818740Y991654D02*
D03*
D124*
X-740000D02*
D03*
X-661260D02*
D03*
M02*
