G04*
G04 #@! TF.GenerationSoftware,Altium Limited,Altium Designer,25.8.1 (18)*
G04*
G04 Layer_Color=16711935*
%FSLAX26Y26*%
%MOIN*%
G70*
G04*
G04 #@! TF.SameCoordinates,3AB4B18C-38BA-446E-90AA-5604B7F899A8*
G04*
G04*
G04 #@! TF.FilePolarity,Positive*
G04*
G01*
G75*
%ADD17C,0.010000*%
D17*
X-2878740Y1250000D02*
X-2868463Y1250674D01*
X-2858361Y1252683D01*
X-2848608Y1255994D01*
X-2839370Y1260549D01*
X-2830806Y1266271D01*
X-2823062Y1273062D01*
X-2816271Y1280806D01*
X-2810549Y1289370D01*
X-2805994Y1298608D01*
X-2802683Y1308361D01*
X-2800674Y1318463D01*
X-2800000Y1328740D01*
X-2759728Y1149541D02*
X-2749841Y1149950D01*
X-2740022Y1151174D01*
X-2730337Y1153205D01*
X-2720853Y1156029D01*
X-2711634Y1159626D01*
X-2702744Y1163972D01*
X-2694243Y1169037D01*
X-2686190Y1174787D01*
X-2678639Y1181183D01*
X-2671641Y1188180D01*
X-2665246Y1195731D01*
X-2659496Y1203785D01*
X-2654430Y1212285D01*
X-2650084Y1221176D01*
X-2646487Y1230394D01*
X-2643664Y1239878D01*
X-2641633Y1249563D01*
X-2640409Y1259383D01*
X-2640000Y1269270D01*
X-3421260Y1950000D02*
X-3431537Y1949326D01*
X-3441639Y1947317D01*
X-3451392Y1944006D01*
X-3460630Y1939451D01*
X-3469194Y1933729D01*
X-3476938Y1926938D01*
X-3483729Y1919194D01*
X-3489451Y1910630D01*
X-3494006Y1901392D01*
X-3497317Y1891639D01*
X-3499326Y1881537D01*
X-3500000Y1871260D01*
X-2800000D02*
X-2800674Y1881537D01*
X-2802683Y1891639D01*
X-2805994Y1901392D01*
X-2810549Y1910630D01*
X-2816271Y1919194D01*
X-2823062Y1926938D01*
X-2830806Y1933729D01*
X-2839370Y1939451D01*
X-2848608Y1944006D01*
X-2858361Y1947317D01*
X-2868463Y1949326D01*
X-2878740Y1950000D01*
X-3500000Y1328740D02*
X-3499326Y1318463D01*
X-3497317Y1308361D01*
X-3494006Y1298608D01*
X-3489451Y1289370D01*
X-3483729Y1280806D01*
X-3476938Y1273062D01*
X-3469194Y1266271D01*
X-3460630Y1260549D01*
X-3451392Y1255994D01*
X-3441639Y1252683D01*
X-3431537Y1250674D01*
X-3421260Y1250000D01*
X-3466406Y1150000D02*
X-3476400Y1149564D01*
X-3486317Y1148258D01*
X-3496083Y1146093D01*
X-3505623Y1143085D01*
X-3514865Y1139257D01*
X-3523738Y1134638D01*
X-3532174Y1129264D01*
X-3540110Y1123174D01*
X-3547485Y1116416D01*
X-3554243Y1109041D01*
X-3560333Y1101105D01*
X-3565707Y1092669D01*
X-3570326Y1083796D01*
X-3574154Y1074554D01*
X-3577162Y1065014D01*
X-3579327Y1055248D01*
X-3580633Y1045331D01*
X-3581069Y1035337D01*
X-2540000Y1970000D02*
X-2549802Y1969518D01*
X-2559509Y1968079D01*
X-2569028Y1965694D01*
X-2578268Y1962388D01*
X-2587140Y1958192D01*
X-2595557Y1953147D01*
X-2603439Y1947301D01*
X-2610711Y1940711D01*
X-2617301Y1933439D01*
X-2623147Y1925557D01*
X-2628192Y1917140D01*
X-2632388Y1908268D01*
X-2635694Y1899028D01*
X-2638079Y1889509D01*
X-2639519Y1879802D01*
X-2640000Y1870000D01*
X360000D02*
X359519Y1879802D01*
X358079Y1889509D01*
X355694Y1899028D01*
X352388Y1908268D01*
X348192Y1917140D01*
X343147Y1925557D01*
X337301Y1933439D01*
X330711Y1940711D01*
X323439Y1947301D01*
X315557Y1953147D01*
X307140Y1958192D01*
X298268Y1962388D01*
X289029Y1965694D01*
X279509Y1968079D01*
X269802Y1969518D01*
X260000Y1970000D01*
X-3582677Y30000D02*
X-3582196Y20198D01*
X-3580756Y10491D01*
X-3578371Y972D01*
X-3575065Y-8268D01*
X-3570869Y-17140D01*
X-3565824Y-25557D01*
X-3559978Y-33439D01*
X-3553388Y-40711D01*
X-3546117Y-47301D01*
X-3538234Y-53147D01*
X-3529817Y-58192D01*
X-3520945Y-62388D01*
X-3511706Y-65694D01*
X-3502186Y-68079D01*
X-3492479Y-69519D01*
X-3482677Y-70000D01*
X260000D02*
X269802Y-69519D01*
X279509Y-68079D01*
X289029Y-65694D01*
X298268Y-62388D01*
X307140Y-58192D01*
X315557Y-53147D01*
X323439Y-47301D01*
X330711Y-40711D01*
X337301Y-33439D01*
X343147Y-25557D01*
X348192Y-17140D01*
X352388Y-8268D01*
X355694Y972D01*
X358079Y10491D01*
X359519Y20198D01*
X360000Y30000D01*
X-3220000Y1150000D02*
Y1250000D01*
X-2640000Y1269270D02*
Y1680000D01*
X-3220000Y1250000D02*
X-2878740D01*
X-3220000Y1150000D02*
X-2760000D01*
X-2800000Y1328740D02*
Y1680000D01*
X-2640000D01*
X-3470000Y1150000D02*
X-3380000D01*
X-2640000Y1840000D02*
Y1870000D01*
X-2800000Y1840000D02*
Y1870000D01*
X-3420000Y1250000D02*
X-3380000D01*
X-3421260Y1950000D02*
X-2878740D01*
X-3500000Y1328740D02*
Y1871260D01*
X-3380000Y1150000D02*
Y1250000D01*
X-2800000Y1840000D02*
X-2640000D01*
X-2540000Y1970000D02*
X260000Y1970000D01*
X-3482677Y-70000D02*
X260000D01*
X-3582677Y30000D02*
X-3581061Y1035337D01*
X360000Y30000D02*
Y1870000D01*
M02*
