G04*
G04 #@! TF.GenerationSoftware,Altium Limited,Altium Designer,25.8.1 (18)*
G04*
G04 Layer_Color=16711935*
%FSLAX26Y26*%
%MOIN*%
G70*
G04*
G04 #@! TF.SameCoordinates,3AB4B18C-38BA-446E-90AA-5604B7F899A8*
G04*
G04*
G04 #@! TF.FilePolarity,Negative*
G04*
G01*
G75*
%ADD81R,0.094614X0.049339*%
%ADD82R,0.049339X0.047370*%
%ADD90C,0.031622*%
%ADD91C,0.267842*%
%ADD92C,0.017874*%
%ADD93C,0.027874*%
%ADD94C,0.059496*%
%ADD95R,0.059496X0.059496*%
%ADD96C,0.070992*%
%ADD97C,0.028000*%
%ADD98C,0.052488*%
%ADD99P,0.039598X4X270.0*%
%ADD100C,0.058000*%
%ADD101C,0.061811*%
%ADD102O,0.126110X0.076898*%
%ADD103C,0.053150*%
%ADD104R,0.059181X0.059181*%
%ADD105C,0.059181*%
G36*
X-3098985Y1626218D02*
X-3098470Y1626116D01*
X-3097974Y1625948D01*
X-3097503Y1625716D01*
X-3097068Y1625424D01*
X-3096673Y1625079D01*
X-3085551Y1613957D01*
X-3085206Y1613562D01*
X-3084914Y1613126D01*
X-3084682Y1612656D01*
X-3084514Y1612160D01*
X-3084412Y1611645D01*
X-3084377Y1611122D01*
Y1588878D01*
X-3084412Y1588355D01*
X-3084514Y1587840D01*
X-3084682Y1587344D01*
X-3084914Y1586874D01*
X-3085206Y1586438D01*
X-3085551Y1586043D01*
X-3096673Y1574921D01*
X-3097068Y1574576D01*
X-3097503Y1574284D01*
X-3097974Y1574052D01*
X-3098470Y1573884D01*
X-3098985Y1573782D01*
X-3099508Y1573747D01*
X-3121752D01*
X-3122275Y1573782D01*
X-3122789Y1573884D01*
X-3123286Y1574052D01*
X-3123756Y1574284D01*
X-3124192Y1574576D01*
X-3124586Y1574921D01*
X-3135709Y1586043D01*
X-3136054Y1586438D01*
X-3136346Y1586874D01*
X-3136577Y1587344D01*
X-3136746Y1587840D01*
X-3136848Y1588355D01*
X-3136883Y1588878D01*
Y1611122D01*
X-3136848Y1611645D01*
X-3136746Y1612160D01*
X-3136577Y1612656D01*
X-3136345Y1613126D01*
X-3136054Y1613562D01*
X-3135709Y1613957D01*
X-3124586Y1625079D01*
X-3124192Y1625424D01*
X-3123756Y1625716D01*
X-3123286Y1625948D01*
X-3122789Y1626116D01*
X-3122275Y1626218D01*
X-3121752Y1626253D01*
X-3099508D01*
X-3098985Y1626218D01*
D02*
G37*
D81*
X-2950000Y1491929D02*
D03*
Y1608071D02*
D03*
D82*
X-3010039Y1550000D02*
D03*
D90*
X-1230787Y465239D02*
D03*
X-1194761Y429213D02*
D03*
X-1280000Y478425D02*
D03*
X-1329213Y465239D02*
D03*
X-1365239Y429213D02*
D03*
X-1378425Y380000D02*
D03*
X-1365239Y330787D02*
D03*
X-1329213Y294761D02*
D03*
X-1280000Y281575D02*
D03*
X-1230787Y294761D02*
D03*
X-1194761Y330787D02*
D03*
X-1181575Y380000D02*
D03*
X-3251575Y1400000D02*
D03*
X-3264761Y1350787D02*
D03*
X-3300787Y1314761D02*
D03*
X-3350000Y1301575D02*
D03*
X-3399213Y1314761D02*
D03*
X-3435239Y1350787D02*
D03*
X-3448425Y1400000D02*
D03*
X-3435239Y1449213D02*
D03*
X-3399213Y1485239D02*
D03*
X-3350000Y1498425D02*
D03*
X-3264761Y1449213D02*
D03*
X-3300787Y1485239D02*
D03*
X-2900787Y1885239D02*
D03*
X-2864761Y1849213D02*
D03*
X-2950000Y1898425D02*
D03*
X-2999213Y1885239D02*
D03*
X-3035239Y1849213D02*
D03*
X-3048425Y1800000D02*
D03*
X-3035239Y1750787D02*
D03*
X-2999213Y1714761D02*
D03*
X-2950000Y1701575D02*
D03*
X-2900787Y1714761D02*
D03*
X-2864761Y1750787D02*
D03*
X-2851575Y1800000D02*
D03*
X-1661575Y600000D02*
D03*
X-1674761Y550787D02*
D03*
X-1710787Y514761D02*
D03*
X-1760000Y501575D02*
D03*
X-1809213Y514761D02*
D03*
X-1845239Y550787D02*
D03*
X-1858425Y600000D02*
D03*
X-1845239Y649213D02*
D03*
X-1809213Y685239D02*
D03*
X-1760000Y698425D02*
D03*
X-1674761Y649213D02*
D03*
X-1710787Y685239D02*
D03*
X-1661575Y1400000D02*
D03*
X-1674761Y1350787D02*
D03*
X-1710787Y1314761D02*
D03*
X-1760000Y1301575D02*
D03*
X-1809213Y1314761D02*
D03*
X-1845239Y1350787D02*
D03*
X-1858425Y1400000D02*
D03*
X-1845239Y1449213D02*
D03*
X-1809213Y1485239D02*
D03*
X-1760000Y1498425D02*
D03*
X-1674761Y1449213D02*
D03*
X-1710787Y1485239D02*
D03*
X249213Y635239D02*
D03*
X285239Y599213D02*
D03*
X200000Y648425D02*
D03*
X150787Y635239D02*
D03*
X114761Y599213D02*
D03*
X101575Y550000D02*
D03*
X114761Y500787D02*
D03*
X150787Y464761D02*
D03*
X200000Y451575D02*
D03*
X249213Y464761D02*
D03*
X285239Y500787D02*
D03*
X298425Y550000D02*
D03*
X249213Y1435239D02*
D03*
X285239Y1399213D02*
D03*
X200000Y1448425D02*
D03*
X150787Y1435239D02*
D03*
X114761Y1399213D02*
D03*
X101575Y1350000D02*
D03*
X114761Y1300787D02*
D03*
X150787Y1264761D02*
D03*
X200000Y1251575D02*
D03*
X249213Y1264761D02*
D03*
X285239Y1300787D02*
D03*
X298425Y1350000D02*
D03*
X-3375984Y1069491D02*
D03*
X-3339958Y1033465D02*
D03*
X-3425197Y1082677D02*
D03*
X-3474410Y1069491D02*
D03*
X-3510436Y1033465D02*
D03*
X-3523622Y984252D02*
D03*
X-3510436Y935039D02*
D03*
X-3474410Y899013D02*
D03*
X-3425197Y885827D02*
D03*
X-3375984Y899013D02*
D03*
X-3339958Y935039D02*
D03*
X-3326772Y984252D02*
D03*
X-3375984Y163979D02*
D03*
X-3339958Y127953D02*
D03*
X-3425197Y177165D02*
D03*
X-3474410Y163979D02*
D03*
X-3510436Y127953D02*
D03*
X-3523622Y78740D02*
D03*
X-3510436Y29528D02*
D03*
X-3474410Y-6498D02*
D03*
X-3425197Y-19685D02*
D03*
X-3375984Y-6498D02*
D03*
X-3339958Y29528D02*
D03*
X-3326772Y78740D02*
D03*
D91*
X-1280000Y380000D02*
D03*
X-3350000Y1400000D02*
D03*
X-2950000Y1800000D02*
D03*
X-1760000Y600000D02*
D03*
Y1400000D02*
D03*
X200000Y550000D02*
D03*
Y1350000D02*
D03*
X-3425197Y984252D02*
D03*
Y78740D02*
D03*
D92*
X-1580000Y890000D02*
D03*
D93*
Y990000D02*
D03*
D94*
X-1581653Y989370D02*
D03*
D95*
Y910630D02*
D03*
D96*
X-20000Y470000D02*
D03*
Y370000D02*
D03*
Y570000D02*
D03*
X-860000Y1900000D02*
D03*
X-960000D02*
D03*
X-1060000D02*
D03*
X-1160000D02*
D03*
X-1360000D02*
D03*
X-1560000D02*
D03*
X-1260000D02*
D03*
X-1460000D02*
D03*
X-680000Y1310000D02*
D03*
X-780000D02*
D03*
X-1950000Y800000D02*
D03*
Y900000D02*
D03*
Y1000000D02*
D03*
Y1200000D02*
D03*
Y1100000D02*
D03*
Y1300000D02*
D03*
Y1500000D02*
D03*
X-900000Y0D02*
D03*
X-800000D02*
D03*
X-1950000Y1700000D02*
D03*
X-700000Y0D02*
D03*
X-1000000D02*
D03*
X-3430000Y370000D02*
D03*
X-3330000Y570000D02*
D03*
Y670000D02*
D03*
X-1100000Y0D02*
D03*
X-1200000D02*
D03*
X-700000Y1900000D02*
D03*
X-600000D02*
D03*
X-500000D02*
D03*
X-400000D02*
D03*
X-300000D02*
D03*
X-200000D02*
D03*
X-100000D02*
D03*
X-0D02*
D03*
X-500000Y0D02*
D03*
X-400000D02*
D03*
X-300000D02*
D03*
X-200000D02*
D03*
X-100000D02*
D03*
X0D02*
D03*
X-20000Y1370000D02*
D03*
Y1270000D02*
D03*
Y1170000D02*
D03*
X-1950000Y1600000D02*
D03*
X-3330000Y370000D02*
D03*
D97*
X-735355Y985355D02*
D03*
D98*
Y914645D02*
D03*
X-3150000Y1639370D02*
D03*
X-3189370Y1600000D02*
D03*
D99*
X-664645Y985355D02*
D03*
D100*
X-3510000Y709000D02*
D03*
Y591000D02*
D03*
D101*
X-310000Y110000D02*
D03*
X-1800000Y800000D02*
D03*
Y1000000D02*
D03*
X-1260000Y630000D02*
D03*
X-1380000Y950000D02*
D03*
D102*
X150000Y150000D02*
D03*
Y248425D02*
D03*
Y51575D02*
D03*
Y1048425D02*
D03*
Y950000D02*
D03*
Y851575D02*
D03*
Y1848425D02*
D03*
Y1651575D02*
D03*
Y1750000D02*
D03*
D103*
X-2490394Y480000D02*
D03*
X-2789606D02*
D03*
D104*
X-818740Y991654D02*
D03*
D105*
X-740000D02*
D03*
X-661260D02*
D03*
M02*
