G04*
G04 #@! TF.GenerationSoftware,Altium Limited,Altium Designer,25.8.1 (18)*
G04*
G04 Layer_Color=16711935*
%FSLAX26Y26*%
%MOIN*%
G70*
G04*
G04 #@! TF.SameCoordinates,3AB4B18C-38BA-446E-90AA-5604B7F899A8*
G04*
G04*
G04 #@! TF.FilePolarity,Positive*
G04*
G01*
G75*
%ADD16C,0.003937*%
%ADD125C,0.003500*%
%ADD126C,0.003150*%
%ADD127C,0.002362*%
D16*
X-1142204Y380000D02*
X-1142564Y389943D01*
X-1143639Y399834D01*
X-1145426Y409622D01*
X-1147914Y419255D01*
X-1151091Y428684D01*
X-1154940Y437858D01*
X-1159441Y446732D01*
X-1164571Y455257D01*
X-1170302Y463390D01*
X-1176605Y471088D01*
X-1183447Y478311D01*
X-1190793Y485022D01*
X-1198604Y491185D01*
X-1206839Y496769D01*
X-1215455Y501743D01*
X-1224408Y506084D01*
X-1233651Y509766D01*
X-1243136Y512772D01*
X-1252812Y515086D01*
X-1262631Y516696D01*
X-1272540Y517593D01*
X-1282487Y517773D01*
X-1292422Y517234D01*
X-1302293Y515980D01*
X-1312046Y514017D01*
X-1321633Y511355D01*
X-1331003Y508008D01*
X-1340107Y503994D01*
X-1348897Y499334D01*
X-1357329Y494051D01*
X-1365357Y488174D01*
X-1372940Y481733D01*
X-1380039Y474761D01*
X-1386616Y467296D01*
X-1392637Y459375D01*
X-1398071Y451041D01*
X-1402889Y442336D01*
X-1407067Y433306D01*
X-1410582Y423998D01*
X-1413416Y414461D01*
X-1415555Y404744D01*
X-1416987Y394898D01*
X-1417705Y384975D01*
Y375025D01*
X-1416987Y365102D01*
X-1415555Y355256D01*
X-1413416Y345539D01*
X-1410582Y336002D01*
X-1407067Y326694D01*
X-1402889Y317664D01*
X-1398071Y308959D01*
X-1392637Y300625D01*
X-1386616Y292704D01*
X-1380039Y285238D01*
X-1372940Y278267D01*
X-1365357Y271825D01*
X-1357329Y265948D01*
X-1348898Y260666D01*
X-1340107Y256005D01*
X-1331003Y251991D01*
X-1321634Y248645D01*
X-1312047Y245983D01*
X-1302293Y244020D01*
X-1292423Y242766D01*
X-1282488Y242227D01*
X-1272540Y242406D01*
X-1262631Y243303D01*
X-1252812Y244913D01*
X-1243136Y247227D01*
X-1233651Y250233D01*
X-1224409Y253916D01*
X-1215455Y258256D01*
X-1206839Y263231D01*
X-1198604Y268814D01*
X-1190793Y274977D01*
X-1183447Y281688D01*
X-1176605Y288911D01*
X-1170302Y296610D01*
X-1164571Y304742D01*
X-1159441Y313268D01*
X-1154940Y322141D01*
X-1151091Y331316D01*
X-1147914Y340745D01*
X-1145426Y350378D01*
X-1143639Y360166D01*
X-1142564Y370057D01*
X-1142204Y380000D01*
X-3212204Y1400000D02*
X-3212564Y1409943D01*
X-3213639Y1419834D01*
X-3215426Y1429622D01*
X-3217914Y1439255D01*
X-3221091Y1448684D01*
X-3224940Y1457858D01*
X-3229441Y1466732D01*
X-3234570Y1475257D01*
X-3240302Y1483390D01*
X-3246605Y1491088D01*
X-3253447Y1498311D01*
X-3260793Y1505022D01*
X-3268604Y1511185D01*
X-3276839Y1516769D01*
X-3285455Y1521744D01*
X-3294408Y1526083D01*
X-3303651Y1529766D01*
X-3313136Y1532772D01*
X-3322812Y1535086D01*
X-3332631Y1536696D01*
X-3342540Y1537593D01*
X-3352488Y1537773D01*
X-3362422Y1537234D01*
X-3372293Y1535980D01*
X-3382046Y1534017D01*
X-3391633Y1531355D01*
X-3401003Y1528008D01*
X-3410107Y1523994D01*
X-3418897Y1519334D01*
X-3427329Y1514051D01*
X-3435357Y1508174D01*
X-3442940Y1501733D01*
X-3450039Y1494761D01*
X-3456615Y1487296D01*
X-3462637Y1479375D01*
X-3468071Y1471041D01*
X-3472889Y1462336D01*
X-3477067Y1453306D01*
X-3480582Y1443998D01*
X-3483416Y1434461D01*
X-3485555Y1424744D01*
X-3486987Y1414898D01*
X-3487705Y1404975D01*
Y1395025D01*
X-3486987Y1385102D01*
X-3485555Y1375256D01*
X-3483416Y1365539D01*
X-3480582Y1356002D01*
X-3477067Y1346694D01*
X-3472889Y1337664D01*
X-3468071Y1328959D01*
X-3462637Y1320624D01*
X-3456616Y1312704D01*
X-3450039Y1305238D01*
X-3442940Y1298267D01*
X-3435357Y1291825D01*
X-3427329Y1285948D01*
X-3418898Y1280666D01*
X-3410107Y1276005D01*
X-3401003Y1271991D01*
X-3391634Y1268645D01*
X-3382047Y1265983D01*
X-3372293Y1264020D01*
X-3362423Y1262765D01*
X-3352488Y1262227D01*
X-3342540Y1262407D01*
X-3332631Y1263303D01*
X-3322812Y1264913D01*
X-3313136Y1267227D01*
X-3303651Y1270233D01*
X-3294409Y1273916D01*
X-3285455Y1278256D01*
X-3276839Y1283230D01*
X-3268604Y1288814D01*
X-3260793Y1294977D01*
X-3253447Y1301688D01*
X-3246605Y1308911D01*
X-3240302Y1316610D01*
X-3234571Y1324742D01*
X-3229441Y1333268D01*
X-3224940Y1342141D01*
X-3221091Y1351316D01*
X-3217914Y1360745D01*
X-3215426Y1370378D01*
X-3213639Y1380166D01*
X-3212564Y1390057D01*
X-3212204Y1400000D01*
X-2812204Y1800000D02*
X-2812564Y1809943D01*
X-2813639Y1819834D01*
X-2815426Y1829622D01*
X-2817914Y1839255D01*
X-2821091Y1848684D01*
X-2824940Y1857858D01*
X-2829441Y1866732D01*
X-2834570Y1875257D01*
X-2840302Y1883390D01*
X-2846605Y1891088D01*
X-2853447Y1898311D01*
X-2860793Y1905022D01*
X-2868604Y1911185D01*
X-2876839Y1916769D01*
X-2885455Y1921744D01*
X-2894408Y1926083D01*
X-2903651Y1929766D01*
X-2913136Y1932772D01*
X-2922812Y1935086D01*
X-2932631Y1936696D01*
X-2942540Y1937593D01*
X-2952488Y1937773D01*
X-2962422Y1937234D01*
X-2972293Y1935980D01*
X-2982046Y1934017D01*
X-2991633Y1931355D01*
X-3001003Y1928008D01*
X-3010107Y1923994D01*
X-3018897Y1919334D01*
X-3027329Y1914051D01*
X-3035357Y1908174D01*
X-3042940Y1901733D01*
X-3050039Y1894761D01*
X-3056615Y1887296D01*
X-3062637Y1879375D01*
X-3068071Y1871041D01*
X-3072889Y1862336D01*
X-3077067Y1853306D01*
X-3080582Y1843998D01*
X-3083416Y1834461D01*
X-3085555Y1824744D01*
X-3086987Y1814898D01*
X-3087705Y1804975D01*
Y1795025D01*
X-3086987Y1785102D01*
X-3085555Y1775256D01*
X-3083416Y1765539D01*
X-3080582Y1756002D01*
X-3077067Y1746694D01*
X-3072889Y1737664D01*
X-3068071Y1728959D01*
X-3062637Y1720624D01*
X-3056616Y1712704D01*
X-3050039Y1705238D01*
X-3042940Y1698267D01*
X-3035357Y1691825D01*
X-3027329Y1685948D01*
X-3018898Y1680666D01*
X-3010107Y1676005D01*
X-3001003Y1671991D01*
X-2991634Y1668645D01*
X-2982047Y1665983D01*
X-2972293Y1664020D01*
X-2962423Y1662765D01*
X-2952488Y1662227D01*
X-2942540Y1662407D01*
X-2932631Y1663303D01*
X-2922812Y1664913D01*
X-2913136Y1667227D01*
X-2903651Y1670233D01*
X-2894409Y1673916D01*
X-2885455Y1678256D01*
X-2876839Y1683230D01*
X-2868604Y1688814D01*
X-2860793Y1694977D01*
X-2853447Y1701688D01*
X-2846605Y1708911D01*
X-2840302Y1716610D01*
X-2834571Y1724742D01*
X-2829441Y1733268D01*
X-2824940Y1742141D01*
X-2821091Y1751316D01*
X-2817914Y1760745D01*
X-2815426Y1770378D01*
X-2813639Y1780166D01*
X-2812564Y1790057D01*
X-2812204Y1800000D01*
X-1622204Y600000D02*
X-1622564Y609943D01*
X-1623639Y619834D01*
X-1625426Y629622D01*
X-1627914Y639255D01*
X-1631091Y648684D01*
X-1634940Y657858D01*
X-1639441Y666732D01*
X-1644571Y675257D01*
X-1650302Y683390D01*
X-1656605Y691088D01*
X-1663447Y698311D01*
X-1670793Y705022D01*
X-1678604Y711185D01*
X-1686839Y716769D01*
X-1695455Y721744D01*
X-1704408Y726083D01*
X-1713651Y729766D01*
X-1723136Y732772D01*
X-1732812Y735086D01*
X-1742631Y736696D01*
X-1752540Y737593D01*
X-1762487Y737773D01*
X-1772422Y737234D01*
X-1782293Y735980D01*
X-1792046Y734017D01*
X-1801633Y731355D01*
X-1811003Y728008D01*
X-1820107Y723994D01*
X-1828897Y719334D01*
X-1837329Y714051D01*
X-1845357Y708174D01*
X-1852940Y701733D01*
X-1860039Y694761D01*
X-1866616Y687296D01*
X-1872637Y679375D01*
X-1878071Y671041D01*
X-1882889Y662336D01*
X-1887067Y653306D01*
X-1890582Y643998D01*
X-1893416Y634461D01*
X-1895555Y624744D01*
X-1896987Y614898D01*
X-1897705Y604975D01*
Y595025D01*
X-1896987Y585102D01*
X-1895555Y575256D01*
X-1893416Y565539D01*
X-1890582Y556002D01*
X-1887067Y546694D01*
X-1882889Y537664D01*
X-1878071Y528959D01*
X-1872637Y520625D01*
X-1866616Y512704D01*
X-1860039Y505238D01*
X-1852940Y498267D01*
X-1845357Y491825D01*
X-1837329Y485948D01*
X-1828898Y480666D01*
X-1820107Y476005D01*
X-1811003Y471991D01*
X-1801634Y468645D01*
X-1792047Y465983D01*
X-1782293Y464020D01*
X-1772423Y462765D01*
X-1762488Y462227D01*
X-1752540Y462406D01*
X-1742631Y463303D01*
X-1732812Y464913D01*
X-1723136Y467227D01*
X-1713651Y470233D01*
X-1704409Y473916D01*
X-1695455Y478256D01*
X-1686839Y483231D01*
X-1678604Y488814D01*
X-1670793Y494977D01*
X-1663447Y501688D01*
X-1656605Y508911D01*
X-1650302Y516610D01*
X-1644571Y524742D01*
X-1639441Y533268D01*
X-1634940Y542141D01*
X-1631091Y551316D01*
X-1627914Y560745D01*
X-1625426Y570378D01*
X-1623639Y580166D01*
X-1622564Y590057D01*
X-1622204Y600000D01*
Y1400000D02*
X-1622564Y1409943D01*
X-1623639Y1419834D01*
X-1625426Y1429622D01*
X-1627914Y1439255D01*
X-1631091Y1448684D01*
X-1634940Y1457858D01*
X-1639441Y1466732D01*
X-1644571Y1475257D01*
X-1650302Y1483390D01*
X-1656605Y1491088D01*
X-1663447Y1498311D01*
X-1670793Y1505022D01*
X-1678604Y1511185D01*
X-1686839Y1516769D01*
X-1695455Y1521744D01*
X-1704408Y1526083D01*
X-1713651Y1529766D01*
X-1723136Y1532772D01*
X-1732812Y1535086D01*
X-1742631Y1536696D01*
X-1752540Y1537593D01*
X-1762487Y1537773D01*
X-1772422Y1537234D01*
X-1782293Y1535980D01*
X-1792046Y1534017D01*
X-1801633Y1531355D01*
X-1811003Y1528008D01*
X-1820107Y1523994D01*
X-1828897Y1519334D01*
X-1837329Y1514051D01*
X-1845357Y1508174D01*
X-1852940Y1501733D01*
X-1860039Y1494761D01*
X-1866616Y1487296D01*
X-1872637Y1479375D01*
X-1878071Y1471041D01*
X-1882889Y1462336D01*
X-1887067Y1453306D01*
X-1890582Y1443998D01*
X-1893416Y1434461D01*
X-1895555Y1424744D01*
X-1896987Y1414898D01*
X-1897705Y1404975D01*
Y1395025D01*
X-1896987Y1385102D01*
X-1895555Y1375256D01*
X-1893416Y1365539D01*
X-1890582Y1356002D01*
X-1887067Y1346694D01*
X-1882889Y1337664D01*
X-1878071Y1328959D01*
X-1872637Y1320624D01*
X-1866616Y1312704D01*
X-1860039Y1305238D01*
X-1852940Y1298267D01*
X-1845357Y1291825D01*
X-1837329Y1285948D01*
X-1828898Y1280666D01*
X-1820107Y1276005D01*
X-1811003Y1271991D01*
X-1801634Y1268645D01*
X-1792047Y1265983D01*
X-1782293Y1264020D01*
X-1772423Y1262765D01*
X-1762488Y1262227D01*
X-1752540Y1262407D01*
X-1742631Y1263303D01*
X-1732812Y1264913D01*
X-1723136Y1267227D01*
X-1713651Y1270233D01*
X-1704409Y1273916D01*
X-1695455Y1278256D01*
X-1686839Y1283230D01*
X-1678604Y1288814D01*
X-1670793Y1294977D01*
X-1663447Y1301688D01*
X-1656605Y1308911D01*
X-1650302Y1316610D01*
X-1644571Y1324742D01*
X-1639441Y1333268D01*
X-1634940Y1342141D01*
X-1631091Y1351316D01*
X-1627914Y1360745D01*
X-1625426Y1370378D01*
X-1623639Y1380166D01*
X-1622564Y1390057D01*
X-1622204Y1400000D01*
X-3287401Y78740D02*
X-3287760Y88683D01*
X-3288836Y98574D01*
X-3290623Y108362D01*
X-3293111Y117995D01*
X-3296288Y127424D01*
X-3300137Y136599D01*
X-3304638Y145472D01*
X-3309767Y153997D01*
X-3315499Y162130D01*
X-3321802Y169828D01*
X-3328644Y177052D01*
X-3335990Y183762D01*
X-3343800Y189925D01*
X-3352036Y195509D01*
X-3360652Y200484D01*
X-3369605Y204824D01*
X-3378848Y208506D01*
X-3388332Y211513D01*
X-3398009Y213827D01*
X-3407828Y215436D01*
X-3417736Y216333D01*
X-3427684Y216513D01*
X-3437619Y215974D01*
X-3447489Y214720D01*
X-3457243Y212757D01*
X-3466830Y210095D01*
X-3476200Y206749D01*
X-3485304Y202734D01*
X-3494094Y198074D01*
X-3502526Y192792D01*
X-3510554Y186914D01*
X-3518137Y180473D01*
X-3525235Y173502D01*
X-3531812Y166036D01*
X-3537834Y158115D01*
X-3543267Y149781D01*
X-3548086Y141076D01*
X-3552264Y132046D01*
X-3555779Y122738D01*
X-3558613Y113201D01*
X-3560752Y103484D01*
X-3562184Y93638D01*
X-3562902Y83715D01*
Y73765D01*
X-3562184Y63842D01*
X-3560752Y53996D01*
X-3558613Y44279D01*
X-3555779Y34742D01*
X-3552264Y25434D01*
X-3548086Y16404D01*
X-3543268Y7699D01*
X-3537834Y-635D01*
X-3531813Y-8556D01*
X-3525236Y-16022D01*
X-3518137Y-22993D01*
X-3510554Y-29434D01*
X-3502526Y-35312D01*
X-3494095Y-40594D01*
X-3485304Y-45255D01*
X-3476200Y-49269D01*
X-3466831Y-52615D01*
X-3457244Y-55277D01*
X-3447490Y-57240D01*
X-3437620Y-58494D01*
X-3427685Y-59033D01*
X-3417737Y-58853D01*
X-3407828Y-57956D01*
X-3398009Y-56347D01*
X-3388333Y-54033D01*
X-3378848Y-51027D01*
X-3369605Y-47344D01*
X-3360652Y-43004D01*
X-3352036Y-38029D01*
X-3343801Y-32446D01*
X-3335990Y-26283D01*
X-3328644Y-19572D01*
X-3321802Y-12348D01*
X-3315499Y-4650D01*
X-3309767Y3483D01*
X-3304638Y12008D01*
X-3300137Y20881D01*
X-3296288Y30056D01*
X-3293111Y39485D01*
X-3290623Y49118D01*
X-3288836Y58906D01*
X-3287760Y68797D01*
X-3287401Y78740D01*
Y984252D02*
X-3287760Y994195D01*
X-3288836Y1004086D01*
X-3290623Y1013874D01*
X-3293111Y1023507D01*
X-3296288Y1032936D01*
X-3300137Y1042110D01*
X-3304638Y1050984D01*
X-3309767Y1059509D01*
X-3315499Y1067642D01*
X-3321802Y1075340D01*
X-3328644Y1082563D01*
X-3335990Y1089274D01*
X-3343800Y1095437D01*
X-3352036Y1101021D01*
X-3360652Y1105995D01*
X-3369605Y1110335D01*
X-3378848Y1114018D01*
X-3388332Y1117024D01*
X-3398009Y1119338D01*
X-3407828Y1120948D01*
X-3417736Y1121845D01*
X-3427684Y1122024D01*
X-3437619Y1121486D01*
X-3447489Y1120232D01*
X-3457243Y1118269D01*
X-3466830Y1115607D01*
X-3476200Y1112260D01*
X-3485304Y1108246D01*
X-3494094Y1103586D01*
X-3502526Y1098303D01*
X-3510554Y1092426D01*
X-3518137Y1085985D01*
X-3525235Y1079013D01*
X-3531812Y1071548D01*
X-3537834Y1063627D01*
X-3543267Y1055293D01*
X-3548086Y1046588D01*
X-3552264Y1037558D01*
X-3555779Y1028250D01*
X-3558613Y1018713D01*
X-3560752Y1008996D01*
X-3562184Y999150D01*
X-3562902Y989227D01*
Y979277D01*
X-3562184Y969354D01*
X-3560752Y959508D01*
X-3558613Y949791D01*
X-3555779Y940254D01*
X-3552264Y930946D01*
X-3548086Y921916D01*
X-3543268Y913211D01*
X-3537834Y904876D01*
X-3531813Y896956D01*
X-3525236Y889490D01*
X-3518137Y882519D01*
X-3510554Y876077D01*
X-3502526Y870200D01*
X-3494095Y864918D01*
X-3485304Y860257D01*
X-3476200Y856243D01*
X-3466831Y852897D01*
X-3457244Y850235D01*
X-3447490Y848272D01*
X-3437620Y847018D01*
X-3427685Y846479D01*
X-3417737Y846659D01*
X-3407828Y847555D01*
X-3398009Y849165D01*
X-3388333Y851479D01*
X-3378848Y854485D01*
X-3369605Y858168D01*
X-3360652Y862508D01*
X-3352036Y867482D01*
X-3343801Y873066D01*
X-3335990Y879229D01*
X-3328644Y885940D01*
X-3321802Y893163D01*
X-3315499Y900861D01*
X-3309767Y908994D01*
X-3304638Y917520D01*
X-3300137Y926393D01*
X-3296288Y935568D01*
X-3293111Y944996D01*
X-3290623Y954630D01*
X-3288836Y964418D01*
X-3287760Y974309D01*
X-3287401Y984252D01*
X337796Y1350000D02*
X337436Y1359943D01*
X336361Y1369834D01*
X334574Y1379622D01*
X332086Y1389255D01*
X328909Y1398684D01*
X325060Y1407858D01*
X320559Y1416732D01*
X315430Y1425257D01*
X309698Y1433390D01*
X303395Y1441088D01*
X296553Y1448311D01*
X289207Y1455022D01*
X281396Y1461185D01*
X273161Y1466769D01*
X264545Y1471744D01*
X255592Y1476083D01*
X246349Y1479766D01*
X236864Y1482772D01*
X227188Y1485086D01*
X217369Y1486696D01*
X207460Y1487593D01*
X197512Y1487773D01*
X187578Y1487234D01*
X177708Y1485980D01*
X167954Y1484017D01*
X158367Y1481355D01*
X148997Y1478008D01*
X139893Y1473994D01*
X131103Y1469334D01*
X122671Y1464051D01*
X114643Y1458174D01*
X107060Y1451733D01*
X99962Y1444761D01*
X93385Y1437296D01*
X87363Y1429375D01*
X81929Y1421041D01*
X77111Y1412336D01*
X72933Y1403306D01*
X69418Y1393998D01*
X66584Y1384461D01*
X64445Y1374744D01*
X63013Y1364898D01*
X62295Y1354975D01*
Y1345025D01*
X63013Y1335102D01*
X64445Y1325256D01*
X66584Y1315539D01*
X69418Y1306002D01*
X72933Y1296694D01*
X77111Y1287664D01*
X81929Y1278959D01*
X87363Y1270624D01*
X93384Y1262704D01*
X99961Y1255238D01*
X107060Y1248267D01*
X114643Y1241825D01*
X122671Y1235948D01*
X131102Y1230666D01*
X139893Y1226005D01*
X148997Y1221991D01*
X158366Y1218645D01*
X167953Y1215983D01*
X177707Y1214020D01*
X187577Y1212765D01*
X197512Y1212227D01*
X207460Y1212407D01*
X217369Y1213303D01*
X227188Y1214913D01*
X236864Y1217227D01*
X246349Y1220233D01*
X255591Y1223916D01*
X264545Y1228256D01*
X273161Y1233230D01*
X281396Y1238814D01*
X289207Y1244977D01*
X296553Y1251688D01*
X303395Y1258911D01*
X309698Y1266610D01*
X315429Y1274742D01*
X320559Y1283268D01*
X325060Y1292141D01*
X328909Y1301316D01*
X332086Y1310745D01*
X334574Y1320378D01*
X336361Y1330166D01*
X337436Y1340057D01*
X337796Y1350000D01*
Y550000D02*
X337436Y559943D01*
X336361Y569834D01*
X334574Y579622D01*
X332086Y589255D01*
X328909Y598684D01*
X325060Y607858D01*
X320559Y616732D01*
X315430Y625257D01*
X309698Y633390D01*
X303395Y641088D01*
X296553Y648311D01*
X289207Y655022D01*
X281396Y661185D01*
X273161Y666769D01*
X264545Y671744D01*
X255592Y676083D01*
X246349Y679766D01*
X236864Y682772D01*
X227188Y685086D01*
X217369Y686696D01*
X207460Y687593D01*
X197512Y687773D01*
X187578Y687234D01*
X177708Y685980D01*
X167954Y684017D01*
X158367Y681355D01*
X148997Y678008D01*
X139893Y673994D01*
X131103Y669334D01*
X122671Y664051D01*
X114643Y658174D01*
X107060Y651733D01*
X99962Y644761D01*
X93385Y637296D01*
X87363Y629375D01*
X81929Y621041D01*
X77111Y612336D01*
X72933Y603306D01*
X69418Y593998D01*
X66584Y584461D01*
X64445Y574744D01*
X63013Y564898D01*
X62295Y554975D01*
Y545025D01*
X63013Y535102D01*
X64445Y525256D01*
X66584Y515539D01*
X69418Y506002D01*
X72933Y496694D01*
X77111Y487664D01*
X81929Y478959D01*
X87363Y470625D01*
X93384Y462704D01*
X99961Y455238D01*
X107060Y448267D01*
X114643Y441825D01*
X122671Y435948D01*
X131102Y430666D01*
X139893Y426005D01*
X148997Y421991D01*
X158366Y418645D01*
X167953Y415983D01*
X177707Y414020D01*
X187577Y412765D01*
X197512Y412227D01*
X207460Y412406D01*
X217369Y413303D01*
X227188Y414913D01*
X236864Y417227D01*
X246349Y420233D01*
X255591Y423916D01*
X264545Y428256D01*
X273161Y433231D01*
X281396Y438814D01*
X289207Y444977D01*
X296553Y451688D01*
X303395Y458911D01*
X309698Y466610D01*
X315429Y474742D01*
X320559Y483268D01*
X325060Y492141D01*
X328909Y501316D01*
X332086Y510745D01*
X334574Y520378D01*
X336361Y530166D01*
X337436Y540057D01*
X337796Y550000D01*
X337005Y74565D02*
X317326D01*
Y84405D01*
X320606Y87684D01*
X327165D01*
X330445Y84405D01*
Y74565D01*
X320606Y107363D02*
X317326Y104083D01*
Y97524D01*
X320606Y94244D01*
X333725D01*
X337005Y97524D01*
Y104083D01*
X333725Y107363D01*
X317326Y113923D02*
X337005D01*
Y123762D01*
X333725Y127042D01*
X330445D01*
X327165Y123762D01*
Y113923D01*
Y123762D01*
X323886Y127042D01*
X320606D01*
X317326Y123762D01*
Y113923D01*
Y166399D02*
Y153280D01*
X337005D01*
Y166399D01*
X327165Y153280D02*
Y159839D01*
X317326Y172958D02*
X337005D01*
Y182798D01*
X333725Y186077D01*
X320606D01*
X317326Y182798D01*
Y172958D01*
X320606Y205756D02*
X317326Y202476D01*
Y195917D01*
X320606Y192637D01*
X333725D01*
X337005Y195917D01*
Y202476D01*
X333725Y205756D01*
X327165D01*
Y199196D01*
X317326Y225435D02*
Y212316D01*
X337005D01*
Y225435D01*
X327165Y212316D02*
Y218875D01*
X337005Y874565D02*
X317326D01*
Y884405D01*
X320606Y887684D01*
X327165D01*
X330445Y884405D01*
Y874565D01*
X320606Y907363D02*
X317326Y904083D01*
Y897524D01*
X320606Y894244D01*
X333725D01*
X337005Y897524D01*
Y904083D01*
X333725Y907363D01*
X317326Y913923D02*
X337005D01*
Y923762D01*
X333725Y927042D01*
X330445D01*
X327165Y923762D01*
Y913923D01*
Y923762D01*
X323886Y927042D01*
X320606D01*
X317326Y923762D01*
Y913923D01*
Y966399D02*
Y953280D01*
X337005D01*
Y966399D01*
X327165Y953280D02*
Y959839D01*
X317326Y972958D02*
X337005D01*
Y982798D01*
X333725Y986077D01*
X320606D01*
X317326Y982798D01*
Y972958D01*
X320606Y1005756D02*
X317326Y1002476D01*
Y995917D01*
X320606Y992637D01*
X333725D01*
X337005Y995917D01*
Y1002476D01*
X333725Y1005756D01*
X327165D01*
Y999197D01*
X317326Y1025435D02*
Y1012316D01*
X337005D01*
Y1025435D01*
X327165Y1012316D02*
Y1018875D01*
X337005Y1674565D02*
X317326D01*
Y1684405D01*
X320606Y1687685D01*
X327165D01*
X330445Y1684405D01*
Y1674565D01*
X320606Y1707363D02*
X317326Y1704083D01*
Y1697524D01*
X320606Y1694244D01*
X333725D01*
X337005Y1697524D01*
Y1704083D01*
X333725Y1707363D01*
X317326Y1713923D02*
X337005D01*
Y1723762D01*
X333725Y1727042D01*
X330445D01*
X327165Y1723762D01*
Y1713923D01*
Y1723762D01*
X323886Y1727042D01*
X320606D01*
X317326Y1723762D01*
Y1713923D01*
Y1766399D02*
Y1753280D01*
X337005D01*
Y1766399D01*
X327165Y1753280D02*
Y1759839D01*
X317326Y1772958D02*
X337005D01*
Y1782798D01*
X333725Y1786078D01*
X320606D01*
X317326Y1782798D01*
Y1772958D01*
X320606Y1805756D02*
X317326Y1802476D01*
Y1795917D01*
X320606Y1792637D01*
X333725D01*
X337005Y1795917D01*
Y1802476D01*
X333725Y1805756D01*
X327165D01*
Y1799197D01*
X317326Y1825435D02*
Y1812316D01*
X337005D01*
Y1825435D01*
X327165Y1812316D02*
Y1818875D01*
D125*
X346850Y-86221D02*
Y386221D01*
Y713779D02*
Y1186220D01*
Y1513780D02*
Y1986220D01*
X-700000Y950000D02*
X360000Y950000D01*
X-2640000Y950000D02*
X-1580000Y950000D01*
D126*
X-1070000Y725321D02*
Y741720D01*
X-1073280Y745000D01*
X-1079839D01*
X-1083119Y741720D01*
Y725321D01*
X-1089679Y745000D02*
X-1096238D01*
X-1092958D01*
Y725321D01*
X-1089679Y728601D01*
D127*
X-1175000Y1225743D02*
Y1212624D01*
X-1172376Y1210000D01*
X-1167129D01*
X-1164505Y1212624D01*
Y1225743D01*
X-1148762Y1210000D02*
X-1159257D01*
X-1148762Y1220495D01*
Y1223119D01*
X-1151386Y1225743D01*
X-1156633D01*
X-1159257Y1223119D01*
X-2214257Y475000D02*
X-2227376D01*
X-2230000Y472376D01*
Y467128D01*
X-2227376Y464505D01*
X-2214257D01*
X-2216881Y459257D02*
X-2214257Y456633D01*
Y451386D01*
X-2216881Y448762D01*
X-2219505D01*
X-2222128Y451386D01*
Y454010D01*
Y451386D01*
X-2224752Y448762D01*
X-2227376D01*
X-2230000Y451386D01*
Y456633D01*
X-2227376Y459257D01*
M02*
